<svg width="163" height="248" viewBox="0 0 163 248" fill="none" xmlns="http://www.w3.org/2000/svg">
<path fill-rule="evenodd" clip-rule="evenodd" d="M161.383 230.241C161.046 223.978 160.632 217.72 160.136 211.467C159.148 199.012 157.855 186.548 155.703 174.236C153.58 162.088 150.609 150.276 146.328 138.701C144.342 133.33 142.192 128.749 139.072 123.921C136.122 119.357 132.357 116.264 127.667 113.508C123.441 111.026 118.532 106.719 114.479 103.938C112.787 102.778 109.306 102.855 108.145 101.139C106.626 98.8897 107.611 95.4488 106.079 93.2088C104.329 90.6468 101.876 88.6558 99.11 87.2108C96.091 85.1658 92.535 84.2397 88.97 84.3667C83.713 84.0477 78.418 85.7228 75.043 90.0028C73.359 92.1398 72.375 94.6038 72.239 97.3338C72.204 98.0428 72.432 98.6028 72.807 99.0068C72.585 99.3048 72.363 99.6027 72.143 99.9017C71.453 98.8787 69.839 98.3358 68.764 99.1078C65.246 101.634 61.444 103.643 57.4305 105.115C56.4916 104.671 55.355 104.876 54.5507 105.602C54.2243 105.896 53.8781 106.148 53.5162 106.362C52.0282 106.765 50.5171 107.102 48.9837 107.363C48.5037 107.444 48.0971 107.717 47.7887 108.084C47.3317 107.657 46.7036 107.452 46.0022 107.719C37.9033 110.808 30.255 115.606 24.4415 122.106C18.0008 129.307 14.618 138.265 12.0426 147.443C9.25465 157.378 7.47305 167.56 5.97665 177.76C4.46035 188.094 2.96695 198.469 1.92375 208.863C1.33655 214.712 1.11265 220.615 1.37845 226.49C1.51085 229.426 1.77895 232.353 2.20595 235.261C2.30545 235.941 2.40965 236.725 2.57735 237.507C2.06755 237.408 1.46035 237.839 1.56375 238.529C2.28325 243.335 8.09185 244.735 12.098 245.289C18.6509 246.194 25.2378 246.696 31.8536 246.735C38.355 246.772 44.8552 246.355 51.3431 245.981C57.9946 245.598 64.646 245.213 71.297 244.823C97.946 243.26 124.597 241.714 151.246 240.15C153.681 240.007 156.461 239.814 158.546 238.401C161.405 236.464 161.552 233.387 161.383 230.241Z" fill="white"/>
<path fill-rule="evenodd" clip-rule="evenodd" d="M31.4694 176.483C31.3769 176.31 31.5916 176.154 31.734 176.279C34.9691 179.119 36.6628 183.68 37.018 187.896C37.3942 192.367 36.8608 196.996 36.6569 201.464C36.43 206.442 36.2261 211.422 35.9492 216.397C35.668 221.445 35.365 226.491 35.1054 231.54L34.5212 242.898C34.4591 244.108 34.5937 245.597 34.1293 246.726C33.4097 248.478 31.2723 248.207 30.8231 246.743L30.809 246.695L30.768 246.726C30.3717 245.407 30.6683 243.841 30.7355 242.477L31.3475 230.068C31.7799 221.297 32.1656 212.526 32.6301 203.756L32.788 200.833C33.0051 196.898 33.1716 192.973 33.3053 189.04L33.3487 187.728C33.4756 183.778 33.3749 180.049 31.4694 176.483ZM109.894 103.67C111.697 103.499 113.058 104.097 114.694 104.726C115.407 105.001 116.082 105.317 116.766 105.645C117.622 106.056 118.172 106.782 118.699 107.55L118.981 107.964C121.177 111.181 122.653 114.893 124.32 118.396C126.269 122.494 128.237 126.583 130.145 130.701L131.086 132.729C131.557 133.743 132.026 134.758 132.488 135.776L133.287 137.548C134.089 139.346 134.809 141.247 133.665 143.101C132.602 144.825 130.717 146.159 129.224 147.492C127.979 148.604 126.733 149.716 125.487 150.827C128.063 153.407 129.791 156.655 130.808 160.139C132.251 159.537 134.014 159.422 135.506 159.161C137.596 158.797 137.852 161.962 135.88 161.923C134.423 161.894 132.715 162.043 131.221 161.736C131.48 162.881 131.669 164.043 131.789 165.208C132.416 171.315 131.044 177.458 129.614 183.366L129.496 183.852C127.942 190.247 126.469 196.659 125.151 203.108C123.829 209.57 122.641 216.059 121.586 222.571C120.513 229.198 119.753 235.862 118.936 242.524C118.813 243.532 118.178 244.397 117.065 244.397C116.137 244.397 115.076 243.53 115.193 242.524C116.035 235.269 117.23 228.052 118.417 220.846C120.462 208.437 123.036 196.136 125.996 183.916L126.513 181.788C127.845 176.268 129.054 170.581 128.386 164.888C127.841 160.252 125.904 155.31 122.074 152.43L121.958 152.343C121.063 151.687 120.719 150.432 121.6 149.568C122.161 149.018 122.722 148.469 123.284 147.92L126.655 144.627L127.334 143.962C127.901 143.409 128.47 142.859 129.057 142.325C129.412 142.003 130.374 141.388 130.444 140.857C130.49 140.511 130.08 139.903 129.914 139.584L129.153 138.048C128.721 137.172 128.303 136.289 127.881 135.408C127.006 133.583 126.12 131.763 125.264 129.929L120.126 118.915C118.677 115.808 117.385 112.527 115.49 109.655L115.117 109.095C114.805 108.623 114.529 108.17 114.332 107.593C114.143 107.038 113.905 106.429 113.554 105.955C112.734 104.844 111.165 104.214 109.852 103.981C109.662 103.948 109.731 103.686 109.894 103.67ZM70.3759 100.777C70.4899 100.777 70.5069 100.94 70.4019 100.972C68.8179 101.448 67.3049 102.217 66.0709 103.326C65.4799 103.857 64.8849 104.46 64.5199 105.175C64.3809 105.448 64.3039 105.737 64.2469 106.037L64.2289 106.137C64.1349 106.678 63.9999 106.979 63.7249 107.413L63.6779 107.486C62.1089 109.91 61.0093 112.603 60.0039 115.298L57.8143 121.176L55.6262 127.055C54.9212 128.949 54.2158 130.843 53.5106 132.738C53.121 133.783 52.7204 134.825 52.3201 135.866C52.1468 136.317 51.9605 136.765 51.8021 137.222C51.7803 137.284 51.711 137.66 51.659 137.752L51.6768 137.783C52.1181 138.525 53.2951 139.146 53.9623 139.685L56.2596 141.543C57.8975 142.868 59.5776 144.156 61.1659 145.54C62.1639 146.409 61.5429 147.966 60.4304 148.329C58.5654 148.936 56.7381 149.664 54.9009 150.352C54.1588 150.629 53.3861 150.871 52.6526 151.177L52.2061 151.37C52.0317 151.449 52.1156 151.448 52.1225 151.77C52.1295 152.108 52.2252 152.46 52.2802 152.791C52.899 156.535 53.5549 160.271 54.2473 164.001C56.6963 177.192 59.6221 190.286 62.9589 203.28C64.6449 209.841 66.4519 216.371 68.1749 222.923C69.8929 229.458 72.1539 235.898 74.3129 242.298C74.9219 244.103 72.0609 244.88 71.4669 243.083C68.9789 235.556 66.7029 227.963 64.3529 220.394C60.1765 206.943 56.8858 193.201 53.9754 179.425C52.5328 172.598 51.2135 165.744 50.0185 158.869C49.7923 157.567 49.5704 156.265 49.3531 154.962L49.0364 153.045C48.8193 151.679 48.6957 150.256 49.7572 149.174C50.7937 148.119 52.5732 147.745 53.9372 147.25L54.0362 147.214C54.9041 146.89 55.7783 146.578 56.6492 146.256C55.3664 145.245 54.0994 144.213 52.8197 143.203C51.7875 142.389 50.739 141.591 49.7215 140.757C48.8825 140.07 48.1985 139.188 48.111 138.07C48.0218 136.928 48.5111 135.868 48.9057 134.82L48.9436 134.719C49.3311 133.673 49.7196 132.628 50.118 131.586L52.5835 125.135C54.1503 121.037 55.6509 116.905 57.2988 112.838C57.9508 111.229 58.6613 109.645 59.5009 108.123C59.9056 107.39 60.3398 106.672 60.8116 105.979C61.3399 105.203 61.8199 104.824 62.6389 104.396C63.9489 103.711 64.9769 102.562 66.2919 101.856C67.5829 101.163 68.9109 100.793 70.3759 100.777ZM74.6279 93.4648C74.6779 93.3788 74.8099 93.4168 74.8119 93.5148C74.8459 95.5518 74.3619 97.6328 74.0649 99.6478C73.7659 101.669 73.6699 103.803 73.2369 105.802C73.2279 105.896 73.2099 105.987 73.1849 106.077L73.1639 106.146C72.9819 106.706 72.5069 107.181 71.9249 107.33C72.1079 108.345 72.2799 109.362 72.4249 110.384C72.6749 112.142 72.9019 113.902 73.1259 115.663L73.3939 117.776C73.6469 119.767 73.8929 121.759 74.1359 123.752C74.7539 124.01 75.3849 124.224 76.0319 124.409C77.5199 124.835 79.0439 125.008 80.5799 125.159C83.7079 125.466 86.8599 125.608 89.9989 125.782L90.6719 125.82C94.2009 126.022 97.7489 126.058 101.269 125.696C103.014 125.517 104.746 125.215 106.448 124.788C107.313 124.571 108.154 124.247 109.017 124.035C109.304 123.964 109.559 123.802 109.846 123.629C109.974 123.467 110.152 123.346 110.385 123.298L110.448 123.287L110.511 123.278L110.532 123.269L110.531 123.275C110.707 123.251 110.875 123.252 111.033 123.273C111.096 121.72 111.164 120.166 111.25 118.613C111.48 114.442 112.114 110.091 111.267 105.956C111.239 105.817 111.428 105.768 111.477 105.898C113.138 110.275 112.951 115.062 113.035 119.669C113.117 124.174 113.067 128.683 113.045 133.189C113.368 133.327 113.655 133.513 113.883 133.774C114.339 134.296 114.47 135.204 113.883 135.707C113.624 135.931 113.336 136.086 113.031 136.193C113.015 140.108 112.987 144.024 112.948 147.939C113.692 148.514 113.761 149.879 112.92 150.447C112.779 163.125 112.549 175.804 112.358 188.481L111.958 215.077C111.905 218.62 111.817 222.163 111.785 225.706L111.81 225.716L111.899 225.757C112.048 225.828 112.27 225.941 112.316 226.057C112.328 226.087 112.331 226.108 112.329 226.123C112.574 226.158 112.815 226.273 113.025 226.472C113.542 226.963 113.437 227.703 113.025 228.204L112.915 228.337C112.658 228.649 112.171 228.769 111.773 228.706C111.777 230.917 111.791 233.129 111.784 235.34C111.782 236.016 111.771 236.691 111.76 237.367L111.732 238.986C111.713 239.91 111.631 241.085 110.685 241.5C109.618 241.969 108.66 241.585 108.228 240.5C108.111 240.206 108.136 239.933 108.179 239.642C108.166 239.206 108.097 238.7 108.106 238.295L108.141 236.607C108.147 236.346 108.157 236.086 108.165 235.826L108.134 235.829C104.341 236.013 100.521 235.923 96.7209 235.921L95.0319 235.923C93.6219 235.925 92.2089 235.917 90.8009 235.863L90.2729 235.841C89.2189 235.791 88.1109 235.775 87.0179 235.681C87.1569 236.803 87.2869 237.926 87.4029 239.05C87.5129 240.116 86.4139 241.022 85.4329 241.022C84.2679 241.022 83.6009 240.106 83.4619 239.05C82.8039 234.071 82.5339 229.046 81.9049 224.065C81.3419 219.603 80.8529 215.13 80.3569 210.66L80.1909 209.17C78.3739 192.901 76.6099 176.626 74.9229 160.343L74.1369 152.731C73.3439 145.059 72.5449 137.387 71.8719 129.703C71.4869 125.311 71.1329 120.917 70.7989 116.52C70.5539 113.29 70.3999 110.078 70.2999 106.854C69.9049 106.447 69.7069 105.854 69.8819 105.241C69.9839 104.883 70.1029 104.528 70.2289 104.172C70.2209 103.824 70.2129 103.475 70.2059 103.125C70.1999 102.795 70.5349 102.625 70.8039 102.679C71.2919 101.497 71.8289 100.325 72.2779 99.1548C73.0039 97.2598 73.6019 95.2178 74.6279 93.4648ZM34.0861 113.945C41.6746 109.187 50.7076 105.764 59.7547 106.132C59.9605 106.141 60.0184 106.455 59.8048 106.502C54.979 107.58 50.1002 108.893 45.5316 110.804C40.9496 112.72 36.5928 115.301 32.7125 118.402C25.553 124.124 19.9882 131.566 16.324 139.955C14.1777 144.869 12.6733 150.058 11.3596 155.248C9.96953 160.741 8.82383 166.293 7.87123 171.878C5.98963 182.911 4.89423 194.065 4.31133 205.238C3.71833 216.604 3.96273 227.978 3.53983 239.346C3.46673 241.316 0.652628 241.277 0.509628 239.346C-0.448672 226.422 0.0822255 213.291 0.968426 200.376C1.76533 188.766 3.15703 177.18 5.39793 165.756L5.59313 164.766C7.68803 154.197 10.2148 143.372 15.2793 133.801C19.6031 125.629 26.2783 118.84 34.0861 113.945ZM139.464 164.457C139.504 164.344 139.653 164.345 139.693 164.457C140.558 166.88 140.589 169.613 140.819 172.167L140.837 172.363C141.058 174.692 141.224 177.024 141.378 179.358L141.436 180.233C142.055 189.755 142.83 199.265 143.997 208.737C145.16 218.172 146.733 227.542 148.433 236.893C148.623 237.934 148.162 238.995 147.07 239.295C146.108 239.559 144.873 238.966 144.67 237.931C143.614 232.564 142.76 227.189 141.999 221.775C140.658 212.242 139.657 202.664 139.014 193.059C138.691 188.234 138.492 183.412 138.413 178.577C138.377 176.334 138.435 174.085 138.555 171.844L138.583 171.327C138.715 169.037 138.702 166.641 139.464 164.457ZM57.4653 225.102C57.5667 225.047 57.6922 225.16 57.628 225.265C56.1586 227.654 54.1708 229.714 52.2496 231.744C50.241 233.866 48.2822 236.052 46.2331 238.133C44.7525 239.636 42.3709 237.211 43.9334 235.832C46.1304 233.894 48.4267 232.052 50.6627 230.156L51.6406 229.327C53.474 227.778 55.3618 226.242 57.4653 225.102ZM127.256 223.906C127.146 223.697 127.397 223.527 127.567 223.666C128.752 224.63 129.815 225.78 130.959 226.798C132.093 227.806 133.268 228.746 134.476 229.662C135.689 230.583 136.928 231.467 138.201 232.303C139.257 232.997 140.345 233.553 141.45 234.129C141.962 234.194 142.436 234.446 142.816 234.922C143.416 235.676 143.479 237.097 142.647 237.751L142.498 237.869C141.527 238.632 140.374 238.725 139.418 237.869C138.35 236.913 137.341 235.86 136.316 234.85L136.008 234.548C134.907 233.477 133.832 232.371 132.819 231.215L131.901 230.172C130.2 228.23 128.428 226.138 127.256 223.906ZM121.796 111.989C121.599 111.858 121.721 111.507 121.964 111.59L122.411 111.745C124.276 112.393 126.195 113.112 127.888 114.11C129.708 115.183 131.388 116.461 132.994 117.832C136.316 120.669 139.143 124.158 141.545 127.795C146.366 135.093 149.347 143.45 151.753 151.813C154.32 160.729 156.295 169.838 157.909 178.972C159.548 188.254 160.812 197.621 161.644 207.011C162.053 211.636 162.328 216.265 162.466 220.907C162.537 223.294 162.535 225.681 162.515 228.069C162.51 228.683 162.514 229.297 162.521 229.911L162.544 231.754C162.557 232.918 162.696 234.142 162.42 235.28C161.974 237.112 158.947 236.77 159.046 234.898C158.955 234.275 158.951 233.631 158.975 232.986C158.961 232.903 158.945 232.819 158.928 232.732C158.878 232.485 158.92 232.256 159.018 232.059C159.033 231.749 159.047 231.442 159.052 231.139C159.072 229.91 159.071 228.685 159.037 227.455C158.965 224.863 158.862 222.27 158.758 219.679C158.55 214.501 158.261 209.321 157.841 204.155C156.381 186.176 153.298 168.094 148.121 150.796C145.716 142.764 142.4 134.878 137.646 127.937C135.535 124.856 133.154 122.009 130.514 119.368C127.858 116.71 124.93 114.065 121.796 111.989ZM85.9679 227.893L86.3269 230.49C86.5059 231.788 86.6839 233.087 86.8519 234.387C87.9979 234.23 89.1689 234.164 90.2729 234.066C92.2049 233.895 94.1499 233.812 96.0879 233.732C100.095 233.567 104.122 233.28 108.134 233.3C108.175 233.3 108.214 233.303 108.252 233.306L108.451 228.183L105.633 228.179C103.245 228.175 100.858 228.155 98.4699 228.134C96.3199 228.116 94.1689 228.113 92.0179 228.068L91.0969 228.046C89.4669 228.002 87.6659 228.093 85.9679 227.893ZM108.688 220.457C108.573 220.471 108.456 220.482 108.331 220.488C107.773 220.511 107.211 220.495 106.652 220.499C105.463 220.51 104.273 220.518 103.084 220.518C100.705 220.517 98.3259 220.532 95.9479 220.56C93.4989 220.59 91.0519 220.633 88.6029 220.637C87.4169 220.64 86.2339 220.608 85.0479 220.575C85.2399 222.261 85.4409 223.946 85.6619 225.627C87.5039 225.378 89.4849 225.503 91.2849 225.486L91.5189 225.483C93.9749 225.441 96.4339 225.472 98.8919 225.475C101.42 225.478 103.948 225.486 106.476 225.507L108.553 225.524L108.557 225.419C108.618 223.767 108.657 222.113 108.688 220.457ZM84.1349 212.391C84.3649 214.381 84.5809 216.375 84.8009 218.368C84.9479 218.345 85.0959 218.326 85.2469 218.31C86.4349 218.186 87.6209 218.079 88.8129 218.005C91.1899 217.858 93.5669 217.78 95.9479 217.716C98.3959 217.651 100.845 217.6 103.294 217.566C104.484 217.549 105.672 217.551 106.862 217.559C107.42 217.563 107.984 217.545 108.541 217.583C108.608 217.587 108.671 217.594 108.734 217.601L108.776 214.609C108.783 214.11 108.791 213.612 108.799 213.113C106.96 213.227 105.09 213.183 103.253 213.184L102.829 213.185C100.52 213.195 98.2109 213.164 95.9019 213.116C93.5199 213.066 91.1439 212.988 88.7659 212.836C87.8029 212.774 86.8469 212.692 85.8889 212.586L85.4099 212.531C84.9929 212.482 84.5639 212.442 84.1349 212.391ZM108.989 203.947C104.56 204.298 100.155 204.445 95.7139 204.489L95.0479 204.495C91.1239 204.524 87.1669 204.686 83.2339 204.582C83.4689 206.622 83.7039 208.662 83.9399 210.701C84.5029 210.675 85.0689 210.675 85.6199 210.655C86.7399 210.614 87.8559 210.604 88.9759 210.602C91.2849 210.596 93.5939 210.617 95.9019 210.612C98.2819 210.607 100.66 210.567 103.039 210.522C104.968 210.486 106.917 210.341 108.851 210.346L108.989 203.947ZM109.176 195.244C108.663 195.415 108.057 195.426 107.393 195.456L105.678 195.542C104.884 195.581 104.089 195.617 103.294 195.646C100.644 195.743 97.9949 195.834 95.3449 195.918C92.6289 196.005 89.9009 196.055 87.1849 195.969C85.8549 195.927 84.5359 195.857 83.2089 195.746C82.8809 195.719 82.5469 195.701 82.2119 195.677C82.5209 198.38 82.8309 201.082 83.1419 203.784C87.0559 203.303 91.0009 203.004 94.9109 202.507L98.4459 202.055C101.98 201.604 105.51 201.162 109.057 200.789L109.176 195.244ZM109.365 186.446C108.612 186.632 107.754 186.623 107.03 186.669L106.897 186.678C105.526 186.782 104.153 186.834 102.78 186.868C100.088 186.934 97.3949 186.967 94.7019 186.984L93.0829 186.994C90.9249 187.006 88.7679 187.012 86.6089 186.962C85.2239 186.929 83.8419 186.862 82.4589 186.792C82.0439 186.771 81.6199 186.758 81.1949 186.736C81.4839 189.295 81.7769 191.853 82.0679 194.411C82.5229 194.339 82.9799 194.284 83.4149 194.21C84.5299 194.022 85.6429 193.871 86.7669 193.737C89.1999 193.445 91.6449 193.235 94.0899 193.058C96.5989 192.876 99.1109 192.722 101.621 192.546L103.398 192.421C103.991 192.38 104.583 192.34 105.176 192.303C106.188 192.241 107.365 192.311 108.369 192.091C108.641 191.978 108.943 191.952 109.245 192.016L109.365 186.446ZM109.593 176.148C109.332 176.479 108.943 176.652 108.479 176.712C106.062 177.026 103.583 177.076 101.146 177.224L100.717 177.251C98.1999 177.417 95.6819 177.547 93.1639 177.681C90.5769 177.818 87.9899 177.93 85.4009 178.021C84.3019 178.059 83.1979 178.063 82.0969 178.049L81.6249 178.042C81.1729 178.035 80.6999 178.036 80.2249 178.02C80.4879 180.413 80.7529 182.805 81.0219 185.197C81.5059 185.144 81.9889 185.104 82.4579 185.054C83.8409 184.908 85.2229 184.763 86.6089 184.654C89.2349 184.447 91.8639 184.323 94.4949 184.192C97.1869 184.059 99.8809 183.97 102.573 183.844C103.879 183.783 105.184 183.708 106.485 183.587C107.398 183.504 108.481 183.193 109.433 183.307C109.485 180.92 109.539 178.534 109.593 176.148ZM109.805 166.922C109.764 166.986 109.716 167.048 109.657 167.105C108.593 168.157 107.282 168.076 105.872 168.186L105.785 168.193C104.404 168.309 103.021 168.42 101.638 168.52C98.8719 168.719 96.1019 168.859 93.3319 168.984C90.4979 169.111 87.6459 169.199 84.8089 169.141C82.9919 169.104 81.0899 169.11 79.2369 168.933C79.5209 171.568 79.8069 174.203 80.0959 176.837C80.6169 176.739 81.1409 176.664 81.6379 176.585C82.8899 176.389 84.1429 176.19 85.4019 176.045C87.9169 175.756 90.4339 175.485 92.9539 175.24C95.1099 175.031 97.2649 174.819 99.4219 174.628L100.717 174.516C103.291 174.299 105.897 173.942 108.479 173.889C108.905 173.881 109.386 174.112 109.63 174.478C109.687 171.959 109.746 169.441 109.805 166.922ZM109.984 159.454C109.327 159.534 108.618 159.488 108.012 159.508C106.478 159.558 104.944 159.605 103.411 159.65L94.2079 159.922C91.0739 160.014 87.9299 160.083 84.7949 160.039C83.4169 160.02 82.0319 160.017 80.6529 159.942L80.1939 159.915C79.6269 159.877 78.9309 159.871 78.2509 159.802L79.0529 167.239C80.8969 166.973 82.7979 166.873 84.6259 166.717L85.0169 166.682C87.7129 166.436 90.4229 166.274 93.1239 166.091C95.8959 165.903 98.6629 165.675 101.43 165.442C102.813 165.326 104.196 165.21 105.578 165.083L105.749 165.066C107.055 164.929 108.282 164.639 109.439 165.409C109.608 165.522 109.74 165.672 109.831 165.841C109.882 163.712 109.931 161.583 109.984 159.454ZM110.198 150.775C104.593 151 98.9879 151.172 93.3789 151.247C90.2219 151.289 87.0689 151.259 83.9119 151.193C82.5429 151.165 81.1629 151.099 79.7949 150.994L79.2829 150.953C78.6319 150.898 77.9489 150.859 77.2689 150.793C77.5499 153.35 77.8289 155.907 78.1059 158.465C78.7749 158.341 79.4739 158.283 80.0609 158.208L80.1939 158.191C81.6509 157.99 83.1219 157.873 84.5859 157.744C87.4369 157.493 90.3029 157.331 93.1619 157.193C96.0889 157.052 99.0179 156.933 101.946 156.803L104.875 156.672C105.363 156.65 105.851 156.629 106.339 156.608C107.036 156.579 107.733 156.551 108.43 156.522C108.774 156.508 109.132 156.461 109.476 156.479L109.574 156.465C109.619 156.46 109.659 156.455 109.696 156.451C109.789 156.38 109.89 156.321 109.997 156.276L110.062 156.251L110.198 150.775ZM76.3499 142.55C76.6099 144.852 76.8679 147.154 77.1219 149.457C77.9209 149.365 78.7299 149.315 79.4929 149.246C81.0319 149.108 82.5789 148.987 84.1219 148.916L87.2079 148.773C89.2639 148.678 91.3209 148.586 93.3789 148.511C99.0119 148.305 104.645 148.069 110.274 147.782C110.314 146.22 110.355 144.658 110.397 143.097C110.126 143.386 109.736 143.577 109.223 143.576C103.313 143.56 97.3979 143.594 91.4889 143.497C88.5309 143.448 85.5759 143.376 82.6219 143.224C81.1759 143.15 79.7219 142.999 78.2879 142.8C77.6759 142.715 77.0059 142.655 76.3499 142.55ZM75.4039 134.347C75.6819 136.705 75.9549 139.064 76.2229 141.423C76.9569 141.292 77.7149 141.222 78.3999 141.129C79.8709 140.929 81.3509 140.77 82.8329 140.686C85.7159 140.523 88.6009 140.441 91.4889 140.379C97.3979 140.254 103.313 140.255 109.223 140.208C109.778 140.203 110.19 140.423 110.461 140.751C110.502 139.279 110.545 137.806 110.59 136.334C110.019 136.273 109.453 136.188 108.929 136.151C107.32 136.039 105.709 135.936 104.098 135.844C100.737 135.651 97.3719 135.486 94.0079 135.34C90.6429 135.193 87.2769 135.05 83.9109 134.926L82.4389 134.872C80.0979 134.785 77.7179 134.675 75.4039 134.347ZM74.3459 125.467C74.6349 127.855 74.9199 130.244 75.2039 132.633L75.2899 133.372C78.1049 132.825 81.0719 132.664 83.9109 132.543C87.2779 132.4 90.6379 132.326 94.0079 132.337C97.3739 132.347 100.735 132.427 104.098 132.566C105.779 132.635 107.459 132.715 109.139 132.807C109.601 132.832 110.142 132.818 110.699 132.826C110.712 132.451 110.722 132.076 110.735 131.7C110.786 130.18 110.836 128.659 110.888 127.139C109.752 127.723 108.275 127.958 107.133 128.207L107.003 128.236C105.118 128.659 103.193 128.934 101.269 129.102C97.4899 129.432 93.6719 129.308 89.8969 128.989L89.2359 128.932C85.9209 128.645 82.4839 128.28 79.2699 127.46C77.7389 127.069 76.1569 126.522 74.7849 125.729C74.6419 125.647 74.4949 125.559 74.3459 125.467ZM106.265 97.0878C106.298 96.9588 106.491 96.9288 106.555 97.0498C107.001 97.8978 107.168 98.9168 107.477 99.8258C107.811 100.803 108.122 101.788 108.49 102.753C109.259 104.77 110.166 106.708 111.247 108.577C112.318 110.427 109.32 111.748 108.532 109.722C107.718 107.632 107.049 105.471 106.645 103.262C106.447 102.184 106.271 101.092 106.214 99.9968C106.165 99.0558 106.033 98.0048 106.265 97.0878Z" fill="black"/>
<path fill-rule="evenodd" clip-rule="evenodd" d="M128.151 56.0485C128.067 51.3138 127.974 46.4845 127.271 41.7959C126.583 37.2121 124.691 33.0688 121.439 29.7403C114.532 22.67 104.52 20.943 95.1999 19.3604L79.2669 16.6545C74.4059 15.8292 69.2199 14.5099 64.3079 15.6804C61.8879 16.2572 59.833 17.5971 57.9546 19.1825C56.144 20.7105 54.1974 22.3515 52.9706 24.4073C51.7416 26.466 51.3189 28.8727 50.9194 31.2011C50.4687 33.8263 50.1187 36.472 49.87 39.124C49.3716 44.4374 49.3036 49.7906 49.6651 55.115C49.8402 57.6975 50.1189 60.2728 50.4746 62.8358C50.6511 64.1078 50.8505 65.3758 51.0757 66.6388C51.142 67.0118 51.1925 67.4248 51.2606 67.8408C50.758 69.2708 50.4723 70.7518 50.4953 72.2268C50.5632 76.5708 54.228 79.3048 57.9227 80.7738C60.0649 81.6248 62.3049 82.2028 64.4099 83.1538C66.6239 84.1548 68.1309 85.7758 69.6449 87.6258C72.5319 91.1548 75.7909 94.3258 79.5109 96.9708C87.3999 102.581 97.3909 105.234 106.962 103.22C109.259 102.737 111.575 101.987 113.64 100.856C115.819 99.6628 117.458 97.9328 118.834 95.8878C121.389 92.0918 123.222 87.8178 124.608 83.4678C126.022 79.0308 127.026 74.5858 127.573 69.9588C128.119 65.3468 128.234 60.6888 128.151 56.0485Z" fill="white"/>
<path fill-rule="evenodd" clip-rule="evenodd" d="M77.306 0.161559C83.899 -0.745841 93 2.20316 96.284 8.14926C111.961 4.45196 131.734 4.33086 144.656 16.6393C158.139 31.2398 141.203 50.4906 129.974 54.8309C130.791 58.8058 129.517 84.2708 120.497 95.6288C113.338 105.253 96.667 109.695 88.953 98.1998L88.893 98.1048C88.067 96.7768 88.779 96.8198 89.627 97.8068C97.181 104.453 107.451 104.566 115.365 97.5527C130.198 84.7347 128.669 53.3045 121.611 35.1219C101.513 32.9137 79.994 39.0075 66.113 54.1421L67.052 59.7958C67.211 60.7588 67.393 61.7208 67.532 62.6868C67.621 63.3068 67.63 63.9228 67.202 64.4238C65.785 66.0788 63.399 63.5918 61.435 62.6028C60.8553 62.5208 60.2745 62.4898 59.7049 62.5298C50.2702 63.7458 52.1291 82.0548 62.499 78.8458C63.37 78.3028 64.118 78.4678 64.456 79.2558C66.928 81.5208 68.558 85.5598 72.664 89.4508C74.113 90.9098 75.431 92.1308 77.061 93.3018C78.018 94.2698 80.907 95.2577 79.991 96.9147C78.26 100.686 68.049 88.8408 66.244 85.5648C60.5874 87.7988 54.3191 87.0398 48.4575 86.4938C17.5342 84.8858 21.6624 52.2765 47.0094 31.6887C51.7807 28.1748 57.0449 25.3082 62.517 23.1024C63.264 22.8012 62.938 21.5741 62.18 21.8795C58.5592 23.3393 55.0296 25.0768 51.6649 27.0878L51.6598 25.8855C51.6549 23.8605 51.6867 21.7523 52.0383 19.9021C52.214 18.6201 52.5096 17.2507 52.9647 16.2206C53.5273 13.0624 62.34 2.22176 77.306 0.161559ZM59.292 66.7328C59.7695 66.2798 60.6608 66.8208 61.0859 66.8068C62.173 66.9558 63.206 67.4148 64.011 67.9818C64.543 68.2798 64.915 68.5598 65.227 68.8168L65.235 68.8148C65.233 68.8148 65.23 68.8168 65.227 68.8178L65.257 68.8378C65.71 69.1598 67.37 70.9748 66.321 70.4868C66.243 70.3858 66.163 70.2878 66.082 70.1918C66.074 70.2048 66.062 70.2178 66.047 70.2308L66.106 70.3178C66.998 71.6588 65.459 70.2458 65.222 69.8708C65.211 69.8798 65.198 69.8858 65.186 69.8928L65.494 70.2678C65.537 70.3208 65.571 70.3638 65.599 70.3998L65.664 70.4628C66.695 71.4758 66.727 72.3878 65.529 70.8898C65.577 70.9598 65.614 71.0348 65.62 71.1018L65.691 71.1918C66.631 72.4038 65.866 71.9738 65.399 71.4558L65.36 71.4118L65.368 71.4238C65.802 72.0928 64.94 71.6228 64.788 71.2648L64.781 71.2488C64.615 71.1128 64.513 70.9608 64.478 70.9228L64.472 70.9158C63.663 70.0878 62.492 69.3868 61.496 69.0678C61.352 69.0408 61.206 69.0188 61.0586 69.0028C60.4601 68.8698 59.855 68.7778 59.2436 68.7288C59.1688 68.7198 59.093 68.6648 59.0364 68.5938C58.1118 68.5628 58.3972 68.1838 58.7808 68.1128L58.7875 68.1118L58.7114 68.1058C58.1181 68.0478 57.7129 67.8348 58.3128 67.7038L58.3888 67.6888C58.3795 67.6738 58.3713 67.6598 58.3633 67.6448C57.8495 67.5888 58.1848 67.0888 58.47 67.2098C58.35 66.8178 58.8984 67.0128 58.9669 66.9548C59.019 66.8968 59.0839 66.8458 59.1213 66.8428C59.2865 66.7268 59.2064 66.7368 59.292 66.7328ZM62.436 60.3788L62.316 60.4488C62.218 60.5058 62.118 60.5438 62.018 60.5658C62.16 60.6268 62.3 60.6918 62.439 60.7618C62.437 60.6768 62.435 60.5908 62.435 60.5058L62.436 60.3788Z" fill="black"/>
<path fill-rule="evenodd" clip-rule="evenodd" d="M109.446 86.2648C107.889 86.7158 106.219 86.7557 104.632 86.2897C103.193 85.8677 101.716 84.9378 100.657 83.7078C99.7159 82.6148 99.1069 81.2868 99.1309 79.8698C99.1339 79.7078 99.1919 79.5728 99.2809 79.4678C99.3759 79.3548 99.5099 79.2768 99.6539 79.2438C99.8009 79.2088 99.9569 79.2208 100.09 79.2818C100.21 79.3358 100.313 79.4288 100.377 79.5648C100.54 79.7788 100.702 79.9888 100.865 80.1938C102.173 81.8108 103.441 83.0188 105.408 83.4518C106.476 83.6868 107.542 83.5828 108.521 83.2238C109.568 82.8398 110.515 82.1648 111.257 81.3008C111.592 80.9098 111.988 80.7508 112.375 80.7478C112.813 80.7448 113.247 80.9488 113.573 81.2748C113.894 81.5948 114.109 82.0308 114.129 82.4858C114.146 82.8848 114.016 83.3028 113.669 83.6748C112.527 84.9018 111.047 85.8008 109.446 86.2648ZM109.398 66.0188C110.993 66.9888 113.424 69.2508 111.708 71.6558C109.688 73.7768 106.779 71.3458 105.346 70.2458C104.017 69.3938 102.524 71.5858 103.757 72.5808C114.114 80.2518 118.317 66.2728 110.205 64.8788C109.312 64.7248 108.98 65.7188 109.398 66.0188ZM94.4739 61.7508C93.9619 61.4218 93.3579 61.3098 92.6899 61.6138C92.1679 61.8518 91.2509 62.6438 90.6139 63.6858C90.1769 64.3978 89.8679 65.2338 89.9329 66.1048C89.9479 66.3068 89.8729 66.4558 89.7549 66.5658C89.6619 66.6528 89.5279 66.7168 89.3699 66.7368C89.2359 66.7538 89.0859 66.7388 88.9639 66.7008C88.7319 66.6278 88.6089 66.4778 88.5629 66.3548C88.1159 65.1688 88.3089 63.8448 88.8089 62.6508C89.4839 61.0388 90.7109 59.6888 91.5139 59.2538C92.8889 58.5088 94.5109 58.4748 95.8879 59.2338C97.0599 59.8798 97.7919 60.9228 98.5209 61.9858C98.6759 62.2118 98.8299 62.4358 98.9889 62.6568C99.3069 63.0978 99.3389 63.5358 99.2159 63.9118C99.0789 64.3278 98.7309 64.6788 98.2949 64.8628C97.8919 65.0318 97.4249 65.0558 97.0109 64.8818C96.6619 64.7338 96.3409 64.4468 96.1379 63.9598C95.7969 63.1378 95.2269 62.2318 94.4739 61.7508ZM120.516 63.5778C120.165 63.7608 119.89 63.8158 119.5 63.6988C119.285 63.6338 119.072 63.5098 118.905 63.3438C118.74 63.1778 118.621 62.9728 118.575 62.7448C118.461 62.1818 118.153 61.6548 117.714 61.3118C117.34 61.0188 116.866 60.8628 116.342 60.9508C115.775 61.0448 115.236 61.4088 114.864 61.8368C114.74 61.9798 114.643 62.1428 114.545 62.3048C114.362 62.6068 114.184 62.8878 113.931 63.1098C113.836 63.1948 113.691 63.2528 113.552 63.2528C113.495 63.2528 113.437 63.2438 113.382 63.2268C112.819 62.6608 112.71 62.2318 112.728 61.8058C112.747 61.3588 112.923 60.9068 113.208 60.4848C113.875 59.4958 115.142 58.6838 115.996 58.5008C117.167 58.2488 118.329 58.5508 119.261 59.2048C120.22 59.8778 120.931 60.9228 121.152 62.0998C121.206 62.3838 121.183 62.6898 121.075 62.9548C120.97 63.2148 120.786 63.4368 120.516 63.5778ZM97.0559 51.2003C96.3529 51.8849 95.5219 51.991 94.6809 52.0853C94.2129 52.1382 93.8399 52.1809 93.4729 52.2638C92.4639 52.4916 91.4669 52.8348 90.5569 53.3291C89.6049 53.8458 88.5689 54.4689 87.8229 55.2672C87.6449 55.4572 87.4779 55.6565 87.3109 55.8563C87.1579 56.0385 87.0109 56.2138 86.8559 56.3829C86.6779 56.5771 86.5089 56.7807 86.3409 56.9837C86.2369 57.155 86.2169 57.1972 86.1959 57.241C86.1639 57.3069 86.1269 57.3807 86.0859 57.4598C86.0279 57.5682 85.9609 57.6868 85.8909 57.7944C85.7739 57.991 85.7109 58.0451 85.6569 58.0693C85.5669 58.1094 85.4819 58.1292 85.3989 58.1185C85.3209 58.1085 85.2479 58.0711 85.1759 58.0101C84.8149 57.7052 84.7089 57.205 84.7199 56.674C84.7359 55.8681 85.0329 54.9759 85.3069 54.4275C85.9439 53.1531 86.8269 51.8283 87.8889 50.8772C89.1009 49.7915 90.4269 48.9695 91.9499 48.4032C92.8959 48.0511 93.9919 47.7279 95.0229 47.7687C95.7649 47.7981 96.4729 48.0188 97.0579 48.5699C97.4169 48.9082 97.5899 49.3894 97.5899 49.8703C97.5899 50.3607 97.4109 50.8541 97.0559 51.2003ZM121.945 57.47C121.9 57.5432 121.838 57.5937 121.769 57.624C121.697 57.6558 121.617 57.665 121.54 57.6519C121.463 57.639 121.389 57.6041 121.331 57.5508C121.276 57.4997 121.234 57.4319 121.215 57.3489C120.748 55.2997 119.843 53.7751 117.91 52.792C116.959 52.3083 115.866 52.001 114.831 51.756C114.53 51.6848 114.212 51.6387 113.892 51.592C112.889 51.4454 111.879 51.2776 111.225 50.4665C110.831 49.9779 110.665 49.3531 110.759 48.7816C110.847 48.2436 111.161 47.7502 111.732 47.4546C113.155 46.7189 114.922 47.4408 116.359 48.0558C116.465 48.1014 116.57 48.1462 116.672 48.1894C118.077 48.7825 119.358 49.5655 120.411 50.6851C121.247 51.5734 122.021 52.8866 122.333 54.2375C122.592 55.3613 122.531 56.5087 121.945 57.47Z" fill="black"/>
<path fill-rule="evenodd" clip-rule="evenodd" d="M109.63 74.2538C107.28 73.1948 103.061 74.1188 101.53 74.4858C97.9689 75.3398 94.3859 77.1868 93.2789 80.0788C92.0319 83.3388 94.5209 84.3648 94.8869 84.1968C97.3519 84.3708 100.288 82.8208 102.871 82.4198C104.968 82.0928 107.18 81.8068 109.145 80.6918C110.579 81.4818 113.819 81.9078 116.434 82.5988C118.661 83.1858 119.626 84.4598 121.691 84.1888C124.165 83.8648 123.152 78.6588 120.395 76.5498C117.376 74.2408 112.272 73.3048 109.63 74.2538ZM114.282 96.5138C112.226 97.0158 112.088 92.5088 111.858 90.9158C111.678 89.6718 110.664 86.4638 108.091 86.6028C105.519 86.7408 104.552 89.4288 104.682 91.0998C104.767 92.1848 105.766 97.6758 102.578 98.3708C100.546 98.3628 98.1949 98.2258 96.0579 97.8318C93.5429 97.2618 90.2729 95.2668 89.4089 99.1958C89.0979 100.61 100.177 104.811 105.093 105.191C110.078 106.202 115.911 104.648 119.461 100.832C120.269 99.9638 122.543 96.3608 122.705 95.4788C123.045 93.6238 122.257 92.4308 119.963 93.0838C118.343 93.9498 115.604 96.1918 114.282 96.5138Z" fill="black"/>
<path fill-rule="evenodd" clip-rule="evenodd" d="M124.222 69.6178C121.052 71.1458 116.628 68.8918 114.496 66.5318C113.72 65.6728 113.121 63.2138 113.42 61.6548C114.228 57.4317 117.266 54.8972 120.474 54.0317C124.92 52.8317 129.394 55.8717 128.872 59.4588C128.378 62.8588 127.628 67.7908 124.222 69.6178ZM102.641 61.5058C102.387 66.1078 98.6929 70.1358 94.2769 71.3298C87.1629 73.3158 83.6469 68.3128 82.0539 62.9228C81.8959 62.3878 81.5239 60.7528 82.5219 59.3508C86.4479 53.8356 95.9999 54.7757 100.771 56.2898C102.168 57.6257 102.739 59.5538 102.641 61.5058ZM127.667 53.5682C127.665 53.571 127.663 53.5733 127.661 53.5761C127.644 53.5661 127.628 53.556 127.612 53.5463C127.63 53.5539 127.649 53.5604 127.667 53.5682ZM133.62 54.1002C133.206 49.4145 118.51 51.2087 116.792 51.5927C112.102 52.9724 108.052 56.726 102.809 55.076C97.377 49.018 79.0839 50.7553 75.2489 53.8412C74.5229 53.5563 73.64 53.7092 72.705 53.978C67.902 53.8045 45.9757 55.4608 50.4605 61.5928C51.1412 62.0658 51.8212 61.5848 51.84 60.6118C75.2199 52.169 72.9529 60.0768 75.7259 59.1538C76.1489 59.2758 76.5909 59.3528 76.9779 59.4338C79.1239 60.1248 79.852 59.9108 80.135 62.3208C82.077 80.9308 106.849 74.5078 104.818 59.2428C106.829 59.1328 108.589 58.2618 110.716 59.1118C112.193 73.4918 123.76 74.0718 127.241 69.0868C129.866 65.6278 128.825 60.4058 132.434 57.6844C133.858 58.8768 133.95 54.8523 133.62 54.1002Z" fill="black"/>
</svg>
