<svg width="158" height="244" viewBox="0 0 158 244" fill="none" xmlns="http://www.w3.org/2000/svg">
<path fill-rule="evenodd" clip-rule="evenodd" d="M146.983 156.807C146.319 154.984 147.288 153.165 147.826 151.402C149.736 145.285 151.821 139.168 154.772 133.464C155.89 131.556 154.051 129.215 151.92 129.753C148.273 130.264 144.511 129.857 140.858 129.631C139.521 126.173 135.955 124.738 133.148 122.747C129.963 120.758 126.864 118.473 123.552 116.73C123.367 115.082 121.371 114.674 120.149 115.852C116.796 113.765 112.774 114.153 109.178 112.786C106.447 108.368 106.242 103.723 105.518 99.4617C105.203 97.6037 105.538 95.8117 104.269 94.1557C100.007 88.1587 83.1657 85.5576 76.9557 89.1116C73.6137 87.0266 73.5327 90.8037 73.0017 93.1347C72.4117 94.3007 72.0927 95.6216 72.1917 97.0126C68.6007 104.515 60.3867 107.907 53.031 110.654C52.1082 109.766 50.7893 109.878 49.9113 110.613C43.5352 112 37.347 114.437 32.0049 118.243C25.9356 120.019 21.6612 124.957 18.5703 130.252C18.2298 130.81 18.1495 131.379 18.249 131.902C8.74434 145.84 4.20794 162.526 3.57084 179.378C-2.54136 183.048 6.47594 216.014 8.57514 222.858C8.57724 222.857 8.57934 222.856 8.58144 222.855C9.94324 225.267 11.4895 232.15 14.8977 231.617C17.2356 234.262 20.9613 233.742 24.1339 233.945C23.6171 235.928 23.871 238.197 24.486 240.156C25.2134 242.488 28.783 242.568 29.2892 240.025C60.8827 246.165 93.2997 241.266 125.249 242.187C134.486 242.253 143.723 242.539 152.938 243.197C154.236 243.29 155.552 241.963 155.463 240.671C153.482 219.584 151.621 191.844 149.406 170.964C148.88 166.202 148.465 161.388 146.983 156.807Z" fill="white"/>
<path fill-rule="evenodd" clip-rule="evenodd" d="M73.5237 90.4137C73.6137 90.1657 73.9837 90.1987 73.9907 90.4767C74.1357 96.4057 72.6607 103.651 67.9177 107.656C65.4837 109.712 62.2647 110.653 59.3087 111.734L58.9757 111.857L53.7534 113.803C52.3683 114.319 50.8742 115.113 49.6508 114.384C50.6408 116.84 51.4719 119.363 52.6776 121.73C54.1784 124.677 55.993 127.373 58.2139 129.824C67.0127 139.538 80.9367 142.501 93.4327 139.655C99.8677 138.189 106.129 135.411 110.519 130.345C113.855 126.495 115.772 121.326 116.224 116.228C116.092 116.249 115.953 116.249 115.811 116.217C114.23 115.872 112.634 115.024 111.243 114.193L111.109 114.113C109.77 113.307 108.375 112.383 107.414 111.13C106.46 109.886 105.459 105.829 105.459 105.829C105.186 104.304 104.93 101.267 104.974 99.7247C104.978 99.5797 105.623 99.4937 105.692 99.6447C106.288 100.954 106.481 103.829 106.941 105.191L107.034 105.462C107.525 106.885 107.946 108.616 108.965 109.766C110.877 111.925 113.762 112.839 116.337 113.922C116.522 111.482 120.418 111.538 120.368 114.083C120.366 114.221 120.359 114.359 120.355 114.496C120.662 114.665 120.957 114.858 121.233 115.045L121.503 115.228C122.523 115.922 123.551 116.582 124.637 117.17C126.74 118.311 128.966 119.215 131.12 120.25C133.3 121.297 135.338 122.544 137.242 124.038C138.136 124.739 138.993 125.486 139.806 126.279L140.026 126.497C140.8 127.268 141.807 128.13 142.248 129.143C142.345 129.366 142.832 129.886 143.096 129.903C147.19 130.172 151.275 130.551 155.343 131.119C156.396 131.266 156.812 131.809 156.423 132.688C155.085 135.705 149.848 147.757 148.455 150.991C148.618 153.367 148.398 156.164 148.545 158.541C148.759 162.009 149.04 165.476 149.377 168.935C150.581 181.306 152.406 193.618 154.056 205.936C154.882 212.1 155.634 218.274 156.377 224.449C156.753 227.57 157.071 230.693 157.316 233.827C157.418 235.133 157.511 236.44 157.592 237.747L157.663 238.907C157.76 240.366 157.983 241.759 157.08 243.012C156.671 243.58 155.737 243.9 155.198 243.255C154.522 242.443 154.271 241.837 154.206 240.771C154.156 239.955 154.145 239.136 154.107 238.319C154.027 236.549 153.926 234.779 153.808 233.011C153.572 229.476 153.303 225.942 152.99 222.413C151.897 210.037 149.818 197.755 148.435 185.411C147.738 179.187 147.243 172.952 146.98 166.694C146.849 163.569 146.802 160.444 146.832 157.317C146.844 156.148 146.899 154.985 146.98 153.825C144.907 158.534 142.729 163.198 140.452 167.8L139.912 168.889C138.468 171.798 136.986 174.717 135.252 177.459L134.954 177.927C134.251 179.041 133.291 180.797 132.009 181.148C131.117 181.393 130.026 181.221 129.111 181.203C128.202 181.186 127.293 181.182 126.386 181.145C125.367 181.104 124.396 180.971 123.412 180.705C123.249 180.661 123.094 180.613 122.953 180.552C121.962 182.175 120.278 183.411 118.556 184.131C117.176 184.708 115.731 185.103 114.283 185.469L113.771 185.598C112.219 185.985 110.443 186.168 109.568 187.668L109.364 188.016C108.713 189.122 108.089 190.094 107.011 190.887C105.852 191.741 104.478 192.278 103.109 192.696C101.708 193.124 100.274 193.451 98.8507 193.802L98.4627 193.899C97.5237 194.134 96.5757 194.35 95.6427 194.606C95.2437 194.715 94.8387 194.827 94.4477 194.961C93.9897 195.119 93.6577 195.364 93.2967 195.631C92.9717 196.766 91.5847 197.381 90.4447 197.302C89.8457 197.261 89.3087 197.058 88.8197 196.76C87.9667 197.486 87.0267 198.137 86.1567 198.81C84.9387 199.753 83.7157 200.689 82.4867 201.616C79.9517 203.528 77.3967 205.414 74.8157 207.264C70.2347 210.546 65.5537 213.678 60.7937 216.694C58.8087 217.951 56.8106 219.207 54.7928 220.432L55.0082 220.512L55.4353 220.674C56.4449 221.051 57.5699 221.66 57.7656 222.838C57.9206 223.773 57.3988 224.417 56.4764 224.531C55.3801 224.667 54.527 223.892 53.8444 223.152C53.5432 222.826 53.206 222.523 52.9174 222.187C52.7997 222.05 52.7093 221.892 52.6296 221.726C50.6383 222.9 48.6258 224.034 46.5813 225.095L46.0696 225.359C40.9998 227.952 36.0652 230.794 30.9523 233.313C29.6186 233.971 27.9925 234.682 26.2975 235.167C26.7472 236.911 26.7403 238.826 26.7517 240.596C26.7625 242.321 24.0221 242.313 24.08 240.596L24.1079 239.767C24.1578 238.373 24.2393 236.925 24.5699 235.569C19.5759 236.397 14.5869 234.597 13.658 234.056C12.6327 233.46 11.702 232.505 10.9275 231.62C9.27014 229.725 8.12004 227.453 7.09964 225.168C4.91384 220.274 3.36524 215.042 2.23304 209.811C-1.94096 190.521 -0.145565 169.876 6.63294 151.386C8.32644 146.766 10.3258 142.248 12.617 137.894L12.9015 137.355C15.1879 133.049 17.729 128.76 20.9568 125.095C24.3189 121.278 28.4663 118.31 32.982 116.006C35.1857 114.881 37.4532 113.907 39.7708 113.043C40.1431 112.904 40.5179 112.78 40.8935 112.661C43.3087 111.121 46.2399 109.647 49.172 109.705C49.3713 109.709 49.5327 109.785 49.6531 109.898C49.7944 109.923 49.9358 109.953 50.0773 109.994C50.3898 110.085 50.7198 110.428 50.675 110.78L50.6598 110.897C50.6515 110.954 50.6411 111.009 50.6232 111.063C50.728 111.079 50.8309 111.104 50.9317 111.138C53.7371 110.346 56.4973 109.133 59.2347 108.156L59.8587 107.935C62.1517 107.132 64.5037 106.344 66.3847 104.753C68.2557 103.17 69.6627 101.12 70.6797 98.9037C71.9327 96.1737 72.4947 93.2167 73.5237 90.4137ZM129.691 234.411C130.247 233.998 130.904 234.477 131.111 234.989C131.794 236.668 131.457 239.278 130.495 240.762C129.498 242.301 127.112 241.693 127.054 239.83C126.994 237.887 128.123 235.579 129.691 234.411ZM135.429 188.043C135.479 187.825 135.818 187.827 135.868 188.043C136.331 190.014 136.32 192.136 136.456 194.156L136.472 194.38C136.634 196.608 136.771 198.842 136.869 201.073C137.061 205.464 137.29 209.855 137.546 214.243C137.674 216.418 137.81 218.594 137.956 220.768C138.412 220.514 138.881 220.291 139.368 220.094C140.097 219.799 140.807 219.765 141.591 219.773C142.545 219.783 143.264 220.623 143.137 221.558C143 222.577 142.103 223.013 141.172 222.868C140.141 222.706 139.106 222.456 138.065 222.353C138.181 224.034 138.301 225.715 138.428 227.395C138.596 229.62 138.816 231.841 138.97 234.067C138.985 234.279 139.001 234.491 139.017 234.705C139.638 234.382 140.297 234.216 141.044 234.013L141.238 233.958C142.323 233.647 143.483 233.216 144.487 233.946C145.162 234.436 145.297 235.243 144.738 235.89C143.89 236.872 142.636 236.682 141.465 236.632L140.835 236.609C140.242 236.585 139.694 236.547 139.145 236.397C139.246 237.847 139.299 239.302 139.121 240.731C139.025 241.503 138.009 241.705 137.74 240.918C137.038 238.859 136.893 236.639 136.636 234.483C136.396 232.47 136.25 230.442 136.092 228.419L136.045 227.812C135.691 223.363 135.408 218.911 135.202 214.452C134.995 209.993 134.871 205.536 134.821 201.073C134.799 199.047 134.832 197.014 134.911 194.987L134.937 194.38C135.028 192.296 134.964 190.085 135.429 188.043ZM42.5924 234.74C42.6194 234.455 42.8474 234.101 43.1864 234.145C43.4989 234.186 43.8209 234.166 44.13 234.218C44.5379 234.286 44.8662 234.527 45.2457 234.678C45.8624 234.925 46.5346 235.053 47.1674 235.254C48.3545 235.633 49.0014 236.883 48.5098 238.051C47.9928 239.278 46.6937 239.557 45.5712 239.042C44.6865 238.636 44.027 237.987 43.4321 237.236L43.2635 237.022C43.0071 236.699 42.7162 236.34 42.6086 235.949C42.504 235.568 42.5556 235.127 42.5924 234.74ZM100.268 228.97C101.747 228.761 103.01 229.267 104.378 229.744L104.489 229.782C105.882 230.263 107.913 230.596 108.627 232.022C109.058 232.882 108.723 234.023 107.71 234.278C106.105 234.68 104.666 233.507 103.339 232.717L103.27 232.676C101.989 231.925 100.667 231.294 99.8487 230C99.6307 229.655 99.8197 229.033 100.268 228.97ZM48.6514 111.334C48.059 111.466 47.4666 111.584 46.8748 111.696C44.6238 112.904 42.4389 114.156 40.1147 115.231C37.6488 116.372 35.192 117.551 32.8496 118.931C28.1175 121.72 24.2164 125.346 20.9929 129.79C15.4247 137.468 11.2828 146.321 8.31853 155.305C7.55693 157.613 6.87533 159.947 6.27243 162.3C7.33843 161.314 8.60053 160.708 10.0158 160.188C10.6156 159.968 11.3622 160.341 11.6663 160.86C11.8029 161.093 11.8801 161.324 11.8659 161.598C11.8344 162.202 11.4415 162.888 10.7929 163.008C9.28083 163.287 7.81063 163.829 6.35273 164.307C6.13173 164.38 5.94173 164.352 5.79013 164.267C4.34273 170.4 3.43724 176.659 3.11654 182.956C2.84524 188.287 3.01253 193.66 3.60283 198.984C4.05643 198.78 4.50013 198.589 4.99743 198.473C5.64243 198.323 6.27683 198.14 6.90603 197.934C8.72163 197.338 9.54984 200.337 7.69404 200.794C7.00344 200.964 6.30854 201.105 5.60484 201.209C4.99154 201.299 4.44894 201.259 3.87074 201.165C4.31244 204.486 4.91583 207.783 5.68443 211.034L5.85403 211.745C6.85243 215.896 8.01603 220.087 9.69873 224.01C10.5241 225.934 11.617 227.762 12.9664 229.367C13.6294 230.156 14.3652 230.832 15.1676 231.473C15.8356 232.006 18.1064 233.163 20.7957 233.163C23.4851 233.163 24.2132 232.909 25.57 232.442C28.2533 231.518 30.801 230.043 33.3174 228.729L33.5777 228.594C34.6904 228.018 35.7989 227.434 36.9045 226.844C36.7648 225.716 37.0093 224.769 37.5966 223.728C38.2315 222.601 39.8045 223.162 39.9215 224.315L39.9252 224.359C39.9429 224.618 39.9865 224.883 40.0406 225.147C47.433 221.096 54.6689 216.761 61.7897 212.244C66.3767 209.335 70.9147 206.338 75.3867 203.254C77.6217 201.712 79.8377 200.143 82.0317 198.542C83.1807 197.704 84.3247 196.859 85.4637 196.006C85.9377 195.651 86.4037 195.279 86.8787 194.922C86.7627 194.777 86.6507 194.633 86.5417 194.49C84.7667 192.165 83.6147 189.394 83.0407 186.535C82.6947 184.81 82.5267 183.019 82.4757 181.26L82.4537 180.495C82.4187 179.207 82.4097 177.858 82.6467 176.61C82.3237 176.788 81.9937 176.962 81.6647 177.148C80.4847 177.817 79.3027 178.484 78.1197 179.149C75.7507 180.478 73.3737 181.793 70.9667 183.054C66.6677 185.307 62.3267 187.45 57.8686 189.371L55.6992 190.307C51.9342 191.927 48.1384 193.517 44.2239 194.722C42.0159 195.401 39.7913 195.981 37.5516 196.499L38.4573 197.561C39.0715 198.281 39.0822 199.313 38.2974 199.919C37.5258 200.515 36.4906 200.266 35.9766 199.476L35.0396 198.034C34.8394 197.726 34.7257 197.437 34.6613 197.133C33.6296 197.349 32.5952 197.556 31.558 197.757L29.5973 198.131C26.7976 198.672 24.083 199.742 21.5804 201.112C20.7105 201.588 20.4681 200.663 21.3898 200.018C24.0851 198.133 27.229 197.067 30.4728 196.172L30.6322 196.128C31.8222 195.802 33.0102 195.462 34.1956 195.11C34.0653 194.638 33.9901 194.148 34.0051 193.609C34.0384 192.406 34.1447 191.2 34.2085 189.998C34.3425 187.476 34.5134 184.963 34.7136 182.445C34.7906 181.476 34.8767 180.503 34.9754 179.532C34.3397 179.191 33.7915 178.738 33.0827 178.516L32.9631 178.481C32.2051 178.276 32.4609 177.299 33.1342 177.215C33.7441 177.14 34.3511 177.175 34.9524 177.304C35.0456 177.324 35.1337 177.347 35.2177 177.372C35.3282 176.472 35.4508 175.575 35.59 174.682C35.9582 172.324 36.2187 169.839 36.9852 167.573C37.042 167.406 37.2911 167.346 37.3834 167.521C38.4985 169.644 38.5373 172.247 38.6629 174.61L38.6785 174.892C38.8266 177.47 38.8351 180.073 38.7873 182.655C38.7383 185.315 38.6472 187.969 38.5279 190.627C38.4799 191.698 38.4818 192.808 38.2995 193.832C44.935 191.674 51.4532 189.091 57.701 186.032C62.1087 183.875 66.4777 181.631 70.7967 179.303C72.9607 178.137 75.1357 176.99 77.2977 175.819C78.0547 175.409 78.8117 174.997 79.5687 174.585L80.7027 173.966C81.7647 173.386 82.6507 172.809 83.8877 172.769C84.2567 172.757 84.5867 172.93 84.8217 173.191C85.4867 172.719 86.2547 172.43 87.0607 172.437C88.2747 170.76 89.5067 169.097 90.7877 167.47L91.7337 166.265C93.3727 164.187 95.1077 162.077 97.1967 160.495C98.1287 159.79 99.1547 159.26 100.224 158.823C99.9717 158.761 99.7257 158.638 99.5067 158.434C98.4847 157.486 98.3437 155.726 98.1367 154.404C97.9217 153.033 98.0047 151.806 98.2167 150.44C98.2997 149.908 99.1787 149.798 99.3937 150.286C99.8457 151.314 100.325 152.3 100.737 153.34L100.858 153.654C101.3 154.825 102.241 156.056 102.179 157.327C102.162 157.675 102.045 157.978 101.865 158.222C102.763 157.924 103.674 157.658 104.57 157.38C107.392 156.508 110.225 155.661 113.101 154.984C113.867 154.804 114.636 154.637 115.409 154.483C115.813 152.561 116.403 150.674 117.099 148.821C116.44 148.483 116.014 147.917 115.447 147.414C114.916 146.943 114.552 146.369 114.099 145.828C113.687 145.336 113.918 144.446 114.659 144.475L114.869 144.484C115.636 144.52 116.379 144.599 117.075 144.957L117.323 145.085C117.663 145.262 118.035 145.464 118.367 145.703C118.8 144.706 119.25 143.718 119.706 142.74L120.297 141.476C121.829 138.184 123.357 134.768 125.281 131.704C126.136 130.341 127.274 129.49 128.907 129.359C130.59 129.223 132.338 129.398 134.023 129.459C135.976 129.529 137.928 129.611 139.879 129.714C139.378 129.19 138.922 128.607 138.42 128.104C137.586 127.27 136.706 126.48 135.78 125.749C133.947 124.303 131.933 123.112 129.84 122.086C127.747 121.06 125.593 120.165 123.628 118.897C122.385 118.095 121.273 117.086 120.259 115.994C119.621 122.882 116.296 129.281 111.302 134.089C106.114 139.082 98.9447 141.825 91.9307 142.992C84.7777 144.182 77.3117 143.745 70.4687 141.258C66.9397 139.975 63.5557 138.143 60.5377 135.845C60.5047 136.044 60.4647 136.242 60.3867 136.428C60.2817 136.678 60.1527 136.89 60.0047 137.109L59.7417 137.494C59.5757 137.736 59.4067 137.976 59.2187 138.2C58.7625 138.744 58.1162 138.982 57.4201 138.979C56.0872 138.975 55.0777 137.667 55.4365 136.374C55.6619 135.562 56.1442 135.073 56.8972 134.755C57.1351 134.654 57.3777 134.57 57.6216 134.487L57.8048 134.425C58.0513 134.34 58.296 134.26 58.5497 134.213C57.1207 132.951 55.7948 131.579 54.6075 130.099C50.8834 125.455 47.2103 118.952 48.4553 112.785C48.4769 112.679 48.5722 112.612 48.6748 112.595C48.7471 112.162 48.9774 111.744 49.2928 111.462C49.0805 111.406 48.8665 111.363 48.6514 111.334ZM87.3217 217.959C88.0587 217.548 88.8207 218.523 88.2217 219.126L87.3267 220.021C86.4957 220.856 85.6877 221.7 84.9767 222.651L84.8047 222.884C83.8447 224.19 82.8217 225.703 81.2497 226.191C79.3477 226.782 77.5197 224.464 78.6217 222.771C79.5837 221.292 81.4357 220.734 83.0327 220.122C84.5437 219.543 85.9087 218.744 87.3217 217.959ZM25.969 211.131C26.4023 210.564 27.5321 210.863 27.2361 211.666C26.2747 214.274 25.8828 217.829 23.4545 219.562C22.6711 220.12 21.4404 219.864 20.7954 219.219C20.0625 218.485 20.0332 217.453 20.4523 216.559C20.9635 215.467 22.2209 214.676 23.1022 213.845L23.1813 213.77C24.1295 212.848 25.1549 212.197 25.969 211.131ZM127.46 214.133C128.233 213.799 130.249 213.151 130.846 213.918C130.874 213.946 130.898 213.977 130.917 214.011C131.064 214.266 131.086 214.625 130.917 214.878C130.221 215.924 129.496 216.705 128.507 217.45L128.396 217.533C127.318 218.325 126.306 219.256 124.993 219.613C123.173 220.109 121.902 217.83 123.18 216.499C124.21 215.427 125.782 214.87 127.146 214.272L127.46 214.133ZM54.3852 199.233C54.0807 198.682 54.7027 198.007 55.266 198.351C56.8726 199.334 58.7443 200.071 60.5487 200.6C61.2797 200.815 61.9387 201.555 61.8837 202.354L61.8757 202.475C61.8537 202.758 61.8147 203.038 61.6357 203.273C61.0067 204.095 60.1077 204.412 59.1477 203.925C57.0079 202.84 55.5431 201.326 54.3852 199.233ZM101.346 197.566C101.306 197.335 101.476 197.156 101.711 197.201C103.069 197.458 104.323 198.114 105.489 198.868C106.114 199.273 106.717 199.717 107.341 200.125C108.112 200.63 108.4 201.046 108.514 201.972C108.589 202.583 108.019 203.141 107.496 203.309C106.071 203.769 104.438 202.261 103.473 201.281L103.429 201.236C102.419 200.206 101.585 198.987 101.346 197.566ZM142.127 195.965C141.817 195.129 142.884 194.436 143.582 194.846C144.238 195.233 144.951 195.553 145.571 195.996C146.14 196.404 146.659 196.886 147.205 197.328L147.475 197.541C148.477 198.347 150.129 200.338 148.698 201.494C147.335 202.593 145.528 201.189 144.613 200.162L144.55 200.09C144.023 199.482 143.375 198.821 142.993 198.111C142.633 197.442 142.39 196.675 142.127 195.965ZM128.688 131.24C126.981 131.571 126.285 133.679 125.567 135.052C123.87 138.294 122.31 141.596 120.744 144.902C120.261 145.918 119.792 146.943 119.318 147.966C119.289 148.046 119.252 148.125 119.208 148.203C118.237 150.294 117.237 152.371 116.069 154.356C117.138 154.155 118.213 153.984 119.292 153.85C119.238 152.834 119.933 151.474 120.277 150.618L120.306 150.546C120.735 149.45 121.185 147.722 122.289 147.153C122.657 146.964 123.051 147.201 123.079 147.607C123.163 148.814 121.983 150.195 121.406 151.219C121.057 151.839 120.718 152.461 120.386 153.09C120.262 153.326 120.158 153.557 120.031 153.765C120.587 153.704 121.144 153.651 121.703 153.612L122.067 153.587C124.138 153.45 126.337 153.411 128.208 154.433C129.944 155.38 130.832 157.403 129.878 159.245C128.69 161.54 126.074 161.844 123.773 162.03C120.899 162.262 118.019 162.68 115.166 163.089C112.214 163.511 109.435 164.599 106.528 165.159C106.257 165.211 106.089 164.857 106.337 164.706C108.63 163.309 111.418 162.541 113.982 161.758L114.19 161.695C115.581 161.267 116.94 160.779 118.379 160.537C119.775 160.301 121.181 160.111 122.589 159.966L122.726 159.953C124.277 159.823 128.234 159.867 128.067 157.57C127.956 156.05 125.486 155.787 124.358 155.769C119.187 155.686 113.98 157.059 109.066 158.53L107.969 158.859C105.957 159.465 103.942 160.088 101.967 160.798C99.7297 161.602 97.9667 162.857 96.3377 164.573C94.5307 166.477 92.7807 168.423 90.9067 170.263C89.7247 171.423 88.5277 172.562 87.3217 173.691C87.0487 174.044 86.8307 174.428 86.6797 174.926C86.4247 175.768 86.4837 176.55 86.5797 177.415C86.8227 179.598 86.8767 181.803 87.1807 183.98C87.4627 185.996 87.8577 188.086 88.6947 189.956C89.0257 190.697 89.4567 191.424 89.9487 192.075L90.3447 192.59C90.5177 192.814 90.7107 193.059 90.9137 193.29C91.2117 192.926 91.6427 192.689 92.1437 192.749C93.2077 192.874 94.0447 192.844 95.0887 192.599C95.8977 192.41 96.6997 192.188 97.5037 191.983C99.0847 191.58 100.679 191.213 102.243 190.75L102.512 190.669C103.678 190.311 104.844 189.863 105.814 189.11C106.941 188.236 107.288 186.974 108.123 185.883C109.905 183.552 113.758 183.601 116.366 182.963C118.583 182.421 120.716 181.565 122.25 179.956L122.339 179.86C122.271 179.573 122.381 179.249 122.648 179.1L122.706 179.068C122.81 179.01 122.922 178.986 123.032 178.988C123.174 178.779 123.312 178.563 123.437 178.333C123.539 178.143 123.796 178.283 123.762 178.47C123.742 178.582 123.714 178.691 123.688 178.8C125.174 178.418 126.806 178.491 128.314 178.492L130.272 178.485C130.611 178.481 131.116 178.464 131.161 178.443L131.207 178.423C131.329 178.37 131.156 178.457 131.241 178.344C131.335 178.219 131.427 178.093 131.518 177.966C131.843 177.511 132.15 177.043 132.45 176.571C129.172 177.407 125.775 177.927 122.428 178.36C118.836 178.826 115.197 179.149 111.574 179.152C110.575 179.153 110.584 177.645 111.574 177.607C115.411 177.46 119.228 177.257 123.039 176.765C125.01 176.51 126.973 176.191 128.924 175.817C129.678 175.673 130.429 175.521 131.179 175.359L131.741 175.236C132.094 175.158 133.09 175.046 133.576 174.72C133.672 174.556 133.767 174.392 133.862 174.228C133.815 173.652 132.352 173.729 132.009 173.728C131.036 173.726 130.063 173.734 129.089 173.737C127.143 173.742 125.198 173.725 123.251 173.71C119.363 173.678 115.46 173.542 111.575 173.709C110.632 173.749 110.137 172.236 111.069 171.838C115.184 170.08 119.752 169.698 124.146 169.158C126.457 168.874 128.769 168.546 131.027 167.971L131.586 167.829C133.005 167.465 134.572 167.021 135.767 166.154C133.971 165.427 131.738 165.511 129.877 165.408L129.734 165.399C127.127 165.239 124.516 165.157 121.904 165.153C116.56 165.146 111.215 165.335 105.877 165.589C105.743 165.595 105.715 165.383 105.846 165.355C111.332 164.158 116.908 163.581 122.523 163.492C125.137 163.45 127.754 163.487 130.366 163.603L131.325 163.647C133.552 163.743 136.024 163.769 137.888 165.115C138.172 165.32 138.322 165.582 138.345 165.859C140.845 160.875 143.153 155.786 145.471 150.732C147.273 146.801 149.008 142.838 150.875 138.938L151.48 137.677C152.29 135.993 153.119 134.31 154.04 132.688C150.596 132.227 147.133 131.907 143.668 131.662C140.51 131.439 130.208 130.945 128.688 131.24ZM127.163 185.26C127.556 185.041 128.158 185.219 128.254 185.704C128.326 186.064 128.449 186.465 128.449 186.834C128.449 187.276 128.291 187.757 128.207 188.189C128.013 189.184 127.775 189.992 127.269 190.878C126.953 191.432 126.314 191.809 125.672 191.794C125.164 191.782 124.714 191.646 124.365 191.252C123.947 190.781 123.66 190.087 123.889 189.452C124.49 187.789 125.593 186.132 127.163 185.26ZM43.8604 183.6C44.7794 181.99 46.9578 180.551 48.8587 180.693C51.7132 180.907 52.2956 184.752 49.532 185.67C47.8801 186.218 45.6075 185.655 44.1625 184.752C43.7729 184.509 43.6301 184.004 43.8604 183.6ZM14.5242 178.099C14.3154 177.796 14.6604 177.449 14.9714 177.517C15.6612 177.668 16.4049 177.735 17.0805 177.941C17.7724 178.151 18.4421 178.5 19.1275 178.74C20.5633 179.243 22.0968 179.496 23.4864 180.103C24.0418 180.346 24.4787 181.151 24.4273 181.744L24.4142 181.883C24.3835 182.177 24.3325 182.434 24.1679 182.703C23.7257 183.426 22.8496 183.799 22.0227 183.577C20.4887 183.164 18.9897 182.105 17.6818 181.226L17.4401 181.065C16.8686 180.688 16.2542 180.294 15.7937 179.81C15.313 179.304 14.918 178.672 14.5242 178.099ZM67.2557 172.243C67.0787 171.606 67.8707 171.186 68.3317 171.616C69.2527 172.475 70.2167 173.271 71.1187 174.152L71.1797 174.212C71.8257 174.862 72.7667 176.114 71.9257 176.954C70.8487 178.032 69.3487 176.433 68.7707 175.6C68.0387 174.543 67.5987 173.478 67.2557 172.243ZM137.778 166.983C136.411 168.431 134.305 169.097 132.45 169.649C130.251 170.303 127.986 170.693 125.718 171.015C123.526 171.325 121.352 171.602 119.195 171.959C120.827 171.979 122.458 171.991 124.085 172.02C125.963 172.054 127.839 172.095 129.715 172.149C131.082 172.189 132.685 172.001 133.984 172.51C134.218 172.601 134.437 172.728 134.628 172.882C135.719 170.94 136.766 168.971 137.778 166.983ZM53.4525 153.437C54.8794 152.983 56.2212 152.381 57.7339 152.538C58.1359 152.579 58.4239 152.97 58.2044 153.357C57.4875 154.619 56.3218 155.332 55.1743 156.176L55.0732 156.251C53.8172 157.185 52.4686 158.037 51.1028 158.804C48.7512 160.124 46.6438 156.346 49.0186 155.237C50.4477 154.57 51.9487 153.915 53.4525 153.437ZM79.1427 150.156C81.3257 150.3 83.5077 150.398 85.6927 150.486C88.2247 150.588 87.3737 154.486 85.2587 153.697C83.1697 152.918 81.0797 152.148 78.9717 151.421C78.3297 151.2 78.3817 150.145 79.1017 150.155L79.1427 150.156ZM23.1511 143.222C23.7169 143.183 24.2876 143.306 24.8542 143.361L25.4571 143.42C26.7 143.543 27.8653 143.696 29.0506 144.202C31.2376 145.136 30.063 148.653 27.8675 148.572C26.2447 148.512 24.8571 147.815 23.4869 147.004C22.289 146.294 21.5546 145.406 20.7457 144.292C20.4778 143.923 20.8511 143.51 21.2159 143.473C21.8586 143.407 22.5083 143.267 23.1511 143.222ZM132.782 136.04C132.42 138.299 131.522 140.416 130.168 142.26C129.488 143.186 128.294 143.221 127.62 142.26C126.666 140.9 127.254 139.341 127.972 138.035L128.185 137.653C128.507 137.079 129.001 136.243 129.565 135.665L129.575 135.606C129.877 133.24 133.155 133.713 132.782 136.04ZM44.4857 121.542C45.0299 121.051 46.0322 121.199 46.2088 121.997C46.456 123.114 46.6064 124.374 46.4446 125.508C46.3569 126.123 46.3239 126.813 46.0822 127.386C45.8224 128.002 45.3225 128.476 44.8516 128.94C43.9115 129.864 41.9296 129.559 41.6777 128.101L41.6458 127.923C41.5191 127.233 41.3571 126.496 41.5446 125.813C41.6862 125.297 42.0026 124.771 42.2644 124.293L42.3196 124.191C42.8439 123.214 43.6613 122.284 44.4857 121.542ZM120.984 123.919L121.181 123.922C122.7 123.952 125.477 124.321 125.492 126.199C125.495 126.642 125.168 127.1 124.729 127.202C123.821 127.413 123.234 126.876 122.586 126.334C122.057 125.89 121.44 125.536 120.8 125.282C120.107 125.006 120.153 123.918 120.984 123.919Z" fill="black"/>
<path fill-rule="evenodd" clip-rule="evenodd" d="M123.607 50.7378C122.823 44.4774 120.36 37.8306 117.769 31.9941C111.944 19.6542 98.6067 17.9553 86.6507 15.411C74.8527 13.6928 62.3597 12.1412 50.7393 15.5696C44.2067 17.1705 41.6552 24.9537 42.6862 31.0958C43.2745 34.9231 45.016 38.5455 46.501 42.0925C49.4526 49.3769 51.3253 57.1756 51.3285 65.0627C51.1259 70.2167 50.3987 76.0987 56.3193 78.2817C61.9527 81.0847 62.4287 88.6827 69.4837 92.9927C72.3357 98.7737 80.1067 99.2817 85.6987 100.623C89.2337 101.3 92.8077 101.798 96.3927 102.12C106.772 103.45 115.074 100.442 120.507 91.1917C124.143 85.5637 126.85 79.0637 126.182 72.2417C125.515 65.0577 124.406 57.9119 123.607 50.7378Z" fill="white"/>
<path fill-rule="evenodd" clip-rule="evenodd" d="M86.7407 0.413973C87.3327 -0.257727 88.2457 -0.0273288 88.7997 0.503771C89.1597 0.610071 89.5097 0.768173 89.8397 0.977473C90.5857 0.881673 91.3667 0.881672 92.0987 0.908572C92.2757 0.808972 92.4667 0.720473 92.6737 0.644373C94.1517 0.103473 95.4617 0.378273 96.5417 1.10237C97.0627 0.609873 97.7187 0.300871 98.5577 0.347571C99.3067 0.389471 99.8407 0.741974 100.298 1.20637C100.754 0.548374 101.492 0.0789703 102.41 0.0136703C103.694 -0.0776297 104.928 0.437473 105.951 1.23487C106.547 0.550973 107.36 0.157771 108.265 0.153971C108.861 0.045771 109.49 0.088473 110.058 0.260073C110.883 0.509273 111.607 0.976172 112.184 1.58207C113.096 0.707972 114.213 0.0789718 115.501 0.170672C117.168 0.291172 118.55 1.51727 119.192 3.02627C120.32 3.47837 121.362 4.12317 122.232 5.04257C122.278 5.09097 122.323 5.14167 122.369 5.19257C122.838 5.36567 123.28 5.61107 123.669 5.93427C124.9 6.95947 125.175 8.44317 124.767 9.89707C124.824 10.1298 124.873 10.3665 124.917 10.603C126.071 10.7784 127.119 11.4444 127.714 12.5286C128.53 14.0165 128.369 15.9776 127.486 17.3981C127.107 18.0091 126.625 18.524 126.083 18.9742C126.695 20.3648 126.402 22.0244 125.415 23.1492C125.175 23.537 124.879 23.887 124.547 24.2038C124.914 25.6416 124.262 27.1251 122.96 27.8933L122.849 28.1721C122.83 28.2184 122.811 28.2645 122.792 28.3101C122.777 28.3693 122.76 28.4266 122.742 28.4843C122.711 28.9945 122.543 29.4952 122.21 29.9669C121.527 30.9337 120.681 31.5641 120.233 32.6927L120.188 32.8113C119.995 33.3453 119.372 33.7222 118.841 33.5573C121.788 39.6106 123.333 46.3461 124.393 52.947C124.922 56.2401 125.33 59.5447 125.661 62.8617L125.986 66.1647C126.271 69.1007 126.525 72.0467 126.527 74.9927C126.531 81.6567 124.626 88.0667 120.536 93.3697C116.667 98.3827 111.193 102.017 105.009 103.447C98.6247 104.923 91.1357 104.341 85.4097 100.964C83.7217 99.9707 85.2007 97.5817 86.9187 98.3817C90.1697 99.8947 93.4737 101.019 97.0777 101.271C100.592 101.518 104.114 101.078 107.445 99.9277C112.957 98.0237 117.647 94.0357 120.662 89.0687C122.147 86.6217 123.223 83.9647 123.795 81.1577C124.508 77.6597 124.401 74.0437 124.139 70.5007L124.121 70.2587C123.603 63.4317 122.921 56.5632 121.818 49.8045C120.843 43.8277 119.344 37.972 117.398 32.2459C116.636 31.5746 115.783 31.0192 114.871 30.5974C108.189 30.3182 101.495 30.3997 94.8217 30.8609C89.1307 31.2568 83.4667 31.9265 77.8467 32.9027L77.2447 33.0084C75.9997 33.2301 74.6187 33.357 73.4457 33.8581C72.4397 34.2892 72.0327 35.1177 71.7787 36.1362C71.1407 38.7126 71.0437 41.5322 70.9357 44.1741C70.8307 46.7566 71.0687 49.3606 70.8617 51.9346C70.6867 54.0883 70.1357 56.2927 68.5397 57.8506C67.7057 58.6662 66.6787 59.1121 65.7157 59.7317C65.0927 60.1307 64.8277 60.5427 64.9087 61.2827C65.0817 62.9017 66.3857 64.9407 64.9207 66.3277C64.6637 66.5707 64.2177 66.6027 63.9637 66.3277C63.3597 65.6707 62.5257 65.1697 61.8087 64.6387C61.5087 64.4197 61.7587 63.9927 62.0987 64.1447C62.5467 64.3457 63.0027 64.5817 63.4697 64.7887C62.4387 63.9397 60.9727 63.5227 59.7517 63.2757C59.1367 63.1527 58.4902 63.1167 57.85 63.1747C57.3768 63.4007 56.893 63.6097 56.4092 63.8147C55.7944 64.0727 55.1733 64.3067 54.5479 64.5297C52.3782 66.2977 51.343 69.1747 51.7951 71.9877C52.0423 73.5407 52.7585 75.2297 54.1085 76.1367C55.7078 77.2107 57.85 76.7497 59.5777 77.5467C61.1967 78.2917 62.1807 79.7997 62.9187 81.3587L63.2257 82.0087C63.9097 83.4467 64.6137 84.8457 65.5487 86.1547C66.6307 87.6697 67.9547 89.0307 69.3997 90.1997C70.1007 90.7657 70.8487 91.2747 71.6207 91.7377L71.8317 91.8627C72.6137 92.3217 73.1737 92.7587 73.2257 93.7287C73.2427 94.0677 73.0297 94.3757 72.7547 94.5517C71.5717 95.3017 70.3947 94.3637 69.4107 93.7077C68.3477 93.0017 67.3317 92.2077 66.3917 91.3407C64.6047 89.6967 63.0577 87.7437 61.8687 85.6237C60.9617 84.0097 60.4467 81.7377 59.0137 80.4857C58.1395 79.7227 56.9035 79.7167 55.8113 79.5767C54.7951 79.4467 53.8338 79.2347 52.9296 78.7337C49.2514 76.6907 48.212 71.7427 49.0845 67.9197C49.2324 67.2747 49.4395 66.6467 49.6951 66.0427C48.3261 66.2707 46.788 64.8547 47.3437 63.4257C47.3859 63.3177 47.4345 63.2167 47.481 63.1127C46.5789 62.5187 45.8669 61.6187 45.5289 60.4417C45.3556 59.8327 45.3303 59.2178 45.4211 58.6239C44.9838 58.3303 44.6226 57.9264 44.3902 57.4298C43.6634 57.0937 43.019 56.5909 42.6345 55.8723C42.1021 54.8809 42.1697 53.9678 42.5754 53.1457C42.5183 53.0423 42.4634 52.9367 42.4106 52.8287C40.9211 51.8841 39.8817 50.2565 40 48.4516C40.038 47.8535 40.1859 47.3145 40.4141 46.8286C40.3951 46.7673 40.3761 46.7037 40.3592 46.6424C39.1127 46.0084 38.0817 44.9666 37.7141 43.576C37.3465 42.1766 37.7796 40.7817 38.6458 39.708C37.3782 38.7804 36.6155 37.4848 37.0782 35.5254C37.2662 34.7288 37.6444 34.0037 38.1557 33.3929C38.1535 33.3741 38.1493 33.3551 38.1451 33.3358L38.0265 33.2438C36.4616 32.0085 35.5621 30.4342 36.5226 28.498C36.9535 27.6275 37.5683 27.0207 38.2909 26.6212L38.3268 26.5071C37.8092 25.3975 37.6338 24.1653 37.9909 22.8698C38.2824 21.8027 38.9733 20.9528 39.8564 20.3887C39.7972 19.9109 39.8057 19.4017 39.9007 18.8499C40.0592 17.918 40.5218 17.1043 41.1979 16.5273C41.2233 16.4046 41.2549 16.2843 41.2909 16.1636C41.519 15.4262 41.9458 14.6252 42.4402 14.0311C42.8479 13.5386 43.3042 13.359 43.862 13.34C43.8282 12.8858 43.8514 12.4248 43.9444 11.9577C44.2296 10.5165 45.1465 9.16157 46.5049 8.54657C47.0627 8.29497 47.65 8.22127 48.2162 8.28237C48.6979 7.26787 49.638 6.53257 50.7937 6.37407C51.2437 6.31067 51.662 6.31467 52.0465 6.37197C52.2641 6.27027 52.4902 6.17957 52.7268 6.09697C52.8831 6.04207 53.0416 5.99127 53.2 5.94077C53.7345 5.27717 54.438 4.74647 55.2599 4.42747C56.2085 4.05767 57.174 4.09547 58.0296 4.40617L58.3021 4.34907C58.7289 3.60937 59.4087 3.03657 60.4547 2.77667C61.6427 2.48287 62.8617 2.89287 63.7947 3.63917C63.7997 3.63917 63.8037 3.63917 63.8097 3.63687C64.2977 2.54417 65.1327 1.78327 66.5327 1.83617C67.4057 1.86997 68.1937 2.30347 68.8017 2.92057C69.1397 2.87807 69.4777 2.84007 69.8187 2.80227C70.1777 2.38147 70.5767 1.98857 71.0187 1.63557C71.7407 1.05627 72.6807 1.10297 73.2137 1.91857C73.3297 2.09607 73.4377 2.27577 73.5447 2.45537L74.0327 2.42157C74.6077 1.64597 75.3917 1.12177 76.4647 1.07977C77.4497 1.03937 78.1507 1.52147 78.6857 2.19547C79.1207 2.18487 79.5577 2.17667 79.9947 2.17007C80.5047 1.58037 81.1047 1.06047 81.7887 0.62937C82.3127 0.29967 83.0857 0.411873 83.5107 0.851473C83.7977 1.15027 84.0647 1.46227 84.3127 1.78517C84.9527 1.06747 85.8167 0.594673 86.7407 0.413973ZM55.6465 67.5287C56.6331 66.9657 57.9599 67.5747 58.9147 68.0527C60.0787 68.6337 61.2347 69.5107 61.9467 70.6097C62.9167 72.1057 60.6367 73.3147 59.6167 71.9727C58.9887 71.1467 58.4881 70.3137 57.7275 69.5907C57.0324 68.9277 56.0247 68.4837 55.6254 67.6087C55.6106 67.5787 55.6148 67.5447 55.6465 67.5287ZM56.3402 31.2075L56.3586 31.1547C56.6392 30.3869 55.4147 30.0559 55.1365 30.8174C54.7148 31.9716 55.2009 33.2263 56.3405 33.7247C56.6563 33.8629 57.0172 33.815 57.2075 33.4973C57.3674 33.2299 57.2933 32.7667 56.9802 32.6299C56.339 32.3494 56.1242 31.8543 56.3402 31.2075ZM45.79 29.0605C46.4029 28.5194 45.5035 27.6252 44.8936 28.1639C44.3244 28.6665 43.9023 29.3492 44.0119 30.1343C44.1237 30.9345 44.7269 31.4994 45.3871 31.8987C46.0868 32.322 46.7246 31.226 46.0268 30.8037L45.9484 30.7557C45.6555 30.5737 45.3127 30.3235 45.2631 29.9655C45.2105 29.585 45.5322 29.2881 45.79 29.0605ZM49.2704 19.5134L49.3138 19.4814C49.9721 19.0114 49.3398 17.9111 48.6739 18.3864C48.0633 18.8224 47.5736 19.3889 47.522 20.17C47.472 20.9292 47.8582 21.5873 48.3631 22.1214C48.9249 22.7155 49.8202 21.8177 49.2595 21.2249C48.7132 20.6471 48.6064 20.0166 49.2704 19.5134Z" fill="black"/>
<path fill-rule="evenodd" clip-rule="evenodd" d="M109.38 81.7527C109.527 81.7127 109.656 81.9097 109.535 82.0177C109.037 82.4587 108.722 83.2817 108.359 83.8427C108.013 84.3757 107.681 84.9037 107.377 85.4617C107.037 86.0877 106.708 86.7117 106.443 87.3737L106.391 87.5067C106.47 87.6957 106.532 87.8827 106.578 88.0047L106.591 88.0397C107.043 89.1957 106.094 90.4797 105.022 90.8037C103.19 91.3557 101.617 89.8507 101.574 88.0597C101.539 86.6517 102.494 85.3967 103.463 84.4657C104.312 83.6517 105.261 82.9577 106.324 82.4507C106.793 82.2267 107.28 82.0397 107.789 81.9307C108.309 81.8197 108.871 81.8907 109.38 81.7527ZM105.927 86.8567C106.062 86.9197 106.176 87.0747 106.273 87.2557C106.225 87.1027 106.125 86.9497 105.927 86.8567ZM107.074 67.2867C108.669 68.2567 111.1 70.5187 109.384 72.9237C107.364 75.0447 104.455 72.6137 103.022 71.5137C101.693 70.6617 100.199 72.8537 101.432 73.8487C111.79 81.5197 115.993 67.5407 107.881 66.1467C106.987 65.9927 106.656 66.9867 107.074 67.2867ZM93.9587 57.9717L94.2407 57.9481C95.4637 57.8403 96.7017 57.676 97.9077 57.9527C99.5267 58.3247 99.4087 60.6817 97.9077 61.1157C96.5847 61.4977 95.1187 61.3317 93.7527 61.3457C93.5377 61.3477 93.3237 61.3527 93.1087 61.3567C93.0667 61.8677 92.8987 62.3077 92.6427 62.7477C92.4587 63.0637 92.2247 63.3637 91.9937 63.6437C91.4447 64.3107 90.1517 64.2957 89.5977 63.6437C89.1887 63.1617 88.8627 62.6067 88.8577 61.9537C88.8557 61.7867 88.8767 61.6097 88.9167 61.4347L88.1707 61.4477C86.3467 61.4757 84.5087 61.4627 82.7167 61.1737C82.0797 61.3047 81.5587 60.1547 82.4377 59.8107C84.8287 58.8752 87.4997 58.5998 90.0367 58.319C91.3407 58.1744 92.6517 58.0748 93.9587 57.9717ZM114.328 57.005L114.393 56.9986C115.975 56.8364 117.719 56.5558 119.305 56.7172C121.672 56.958 121.668 60.1587 119.305 60.3987C118.437 60.4867 117.523 60.4437 116.612 60.3597C117.078 61.3487 116.525 62.5287 115.403 62.6797C114.36 62.8207 113.278 61.8067 113.621 60.7187L113.637 60.6707C113.703 60.4817 113.763 60.2707 113.835 60.0627L113.457 60.0307C112.329 59.9307 110.763 59.7277 110.347 58.836C110.222 58.5674 110.251 58.318 110.444 58.0885C111.235 57.1466 113.185 57.1157 114.328 57.005ZM97.5027 49.6758C98.6487 49.2597 99.8387 50.2336 99.9867 51.3311C100.158 52.5959 99.2457 53.4286 98.0897 53.5797L98.0317 53.5867C95.4807 53.8677 92.9487 54.3818 90.3947 54.6724C89.2337 54.8042 88.0647 54.8909 86.8967 54.9221L86.0627 54.9409C85.0397 54.9667 83.9427 54.9901 82.9977 54.6377L83.0017 54.6314C82.7507 54.5587 82.6357 54.1968 82.9147 53.999C83.9197 53.2878 85.2757 53.019 86.4457 52.681C87.6227 52.341 88.8077 52.0275 89.9967 51.7331C92.4927 51.1155 95.0847 50.5546 97.5027 49.6758ZM108.065 49.9715C108.368 48.3714 110.634 48.1997 111.466 49.3641C112.004 49.5488 112.792 49.7415 113.281 49.8865C114.133 50.1391 114.985 50.3902 115.839 50.6334C117.607 51.1373 119.332 51.776 121.071 52.3714C121.25 52.4329 121.201 52.6603 121.029 52.6829C118.602 52.9988 116.216 53.1458 113.775 53.0445L113.275 53.022C111.124 52.9381 107.472 53.0981 108.065 49.9715Z" fill="black"/>
<path fill-rule="evenodd" clip-rule="evenodd" d="M111.548 90.9457C109.58 89.1927 107.375 85.6667 104.548 88.4567C103.849 89.2447 103.566 91.0117 102.497 91.3577C101.077 91.8187 99.6697 90.3167 99.1857 89.1627C97.2067 82.7507 105.39 80.9917 110.052 82.0277C112.329 82.9637 114.007 86.7297 114.108 88.6947C114.174 90.0157 113.056 91.9587 111.548 90.9457ZM126.391 81.0637C126.372 80.9787 126.345 80.9017 126.313 80.8317C125.443 80.5027 124.754 80.8377 124.329 81.4647C124.343 81.6207 124.389 81.7787 124.418 81.9327C124.09 82.6247 123.794 83.4807 123.349 84.0787C123.261 84.0857 123.17 84.0767 123.083 84.0507C115.707 84.8217 119.308 77.1017 111.827 75.1837C106.043 74.2287 95.5907 75.3227 92.8627 81.3437C90.7117 90.9627 79.7717 84.2607 76.1797 79.2587C72.3467 74.7057 69.8687 69.1437 67.4787 63.7457C66.9737 62.6027 65.3987 63.4197 65.5697 64.5157C63.3607 68.9477 63.4347 74.2717 62.8877 79.1277C61.9567 88.8147 61.0507 102.4 70.0477 108.315C81.7707 121.571 111.044 126.248 124.564 114.069C129.245 104.002 128.668 91.7207 126.391 81.0637Z" fill="black"/>
</svg>
