<svg width="164" height="234" viewBox="0 0 164 234" fill="none" xmlns="http://www.w3.org/2000/svg">
<path fill-rule="evenodd" clip-rule="evenodd" d="M142.628 124.816C140.786 117.673 139.093 114.644 135.822 112.161C132.762 109.838 128.295 107.888 121.778 106.463C114.99 105.276 114.798 101.747 113.096 96.0762C112.599 94.3712 110.139 93.9172 109.077 95.1462C108.927 94.9852 108.771 94.8372 108.61 94.7032C108.754 93.8902 107.571 91.5592 107.61 90.7812C108.023 82.6632 105.368 78.5862 98.7413 77.0702C97.3003 76.7412 87.5123 76.5472 86.1073 76.9352C79.9643 78.6342 73.9173 84.0272 74.8423 90.5242C72.9143 93.0452 71.0273 94.5832 68.0523 95.3952C61.4318 96.2362 54.8121 96.9832 48.19 97.6232C35.2274 99.6572 23.0739 106.52 14.7673 116.528C14.0011 117.452 13.7798 118.706 14.456 119.691C13.9263 121.96 10.9446 127.465 13.2907 129.02C9.43284 138.249 0.556241 156.087 0.539641 161.183C0.469641 182.592 2.78184 210.459 23.9036 222.306C24.7493 223.138 24.8703 224.058 25.2365 225.295C26.1651 229.193 29.5376 231.978 33.2288 231.751C51.4127 232.155 69.0253 229.936 87.2093 229.829C95.2283 229.781 104.872 230.979 111.838 231.776C118.805 232.574 125.837 231.868 132.522 229.829C133.086 230.717 134.225 231.234 135.382 230.979C142.312 229.602 147.916 225.33 152.798 220.661C154.289 217.947 160.115 210.214 157.799 207.522C159.898 198.647 159.789 189.111 156.059 180.66C156.588 179.111 155.624 177.408 156.059 175.808C156.374 174.651 157.18 174.172 157.586 173.026C158.157 171.412 157.536 169.248 156.893 167.602C156.629 166.782 157.378 165.899 157.586 165.061C158.572 161.113 156.313 161.461 154.685 158.821C154.709 158.813 155.133 156.928 155.131 156.938C155.38 155.592 154.756 153.869 154.211 152.746C153.842 151.987 153.054 151.512 152.27 151.599C153.059 148.919 154.057 146.688 155.131 144.106C157.029 139.555 159.432 135.196 162.158 131.076C163.275 129.389 161.775 127.435 159.969 127.32C154.121 126.948 148.338 126.106 142.628 124.816Z" fill="white"/>
<path fill-rule="evenodd" clip-rule="evenodd" d="M125.562 159.237C123.224 158.319 120.705 157.812 118.174 157.615C119.537 157.377 120.904 157.146 122.281 157.028C123.243 156.945 124.134 156.954 124.856 157.683C125.338 158.169 125.564 158.795 125.881 159.37C125.778 159.323 125.67 159.279 125.562 159.237ZM150.665 150.66C146.835 150.855 143 151.766 139.535 153.416C138.118 154.092 136.833 155.069 136.457 156.675C136.267 157.495 136.313 158.343 136.415 159.171C136.491 159.799 136.51 160.6 137.055 161.025C137.148 161.096 137.247 161.151 137.351 161.192C136.073 161.769 134.856 162.462 133.774 163.176C132.785 163.829 131.769 164.835 131.313 165.97C131.275 165.841 131.237 165.721 131.199 165.607C130.421 163.307 129.223 161.424 127.337 160.158C127.671 160.008 127.901 159.653 127.793 159.163C127.345 157.115 125.454 155.335 123.318 155.462C120.98 155.599 118.468 156.451 116.353 157.527C115.582 157.51 114.813 157.52 114.052 157.554C113.921 157.558 113.928 157.736 114.052 157.751C114.669 157.829 115.286 157.916 115.903 158.017C117.369 158.252 118.831 158.55 120.261 158.92C121.977 159.364 123.751 159.809 125.355 160.585C128.465 162.092 130.39 166.032 129.994 169.46C129.929 170.022 129.711 171.721 128.932 171.546C128.273 171.398 128.011 170.022 127.78 169.512C127.163 168.16 126.052 167.276 124.719 166.678C123.154 165.974 121.478 165.499 119.856 164.945C118.937 164.63 118.018 164.315 117.097 164.003C116.154 163.679 115.259 163.233 114.255 163.459C113.649 163.597 113.579 164.32 113.919 164.734C114.437 165.366 115.206 165.552 115.952 165.812C116.936 166.154 117.918 166.497 118.901 166.839C120.42 167.367 122.011 167.813 123.491 168.46L123.445 168.566C123.325 168.532 123.183 168.652 123.206 168.8C123.428 170.168 123.737 171.749 123.394 173.118C123.124 174.204 122.171 175.407 120.933 175.088C121.128 174.91 121.199 174.604 121.068 174.321C120.578 173.272 114.156 169.134 113.583 170.671C113.564 170.726 113.623 170.766 113.67 170.758C114.158 170.656 114.975 171.489 115.366 171.753C115.93 172.133 116.503 172.505 117.061 172.896C117.671 173.323 118.267 173.771 118.848 174.234C119.304 174.598 119.649 174.976 120.172 175.16C119.898 175.291 119.68 175.534 119.587 175.845C119.351 176.654 118.894 177.341 118.102 177.698C117.272 178.07 116.336 177.835 115.461 177.927C114.27 178.047 113.23 178.613 112.362 179.423C110.539 181.126 109.624 184.128 107.074 184.933C105.551 185.413 103.861 185.11 102.318 184.892C100.597 184.649 98.9193 184.457 97.1853 184.711C95.5243 184.954 93.9543 185.529 92.4373 186.23C91.0163 186.888 89.4443 187.632 88.1823 188.612C87.9233 187.811 87.6613 187.019 87.4623 186.201C86.9933 184.267 86.7403 182.297 86.6783 180.31C86.6213 178.419 86.7273 176.519 86.8893 174.636C86.9703 173.695 87.0973 172.759 87.1773 171.818C87.1983 171.582 87.2403 171.328 87.2723 171.075C89.5243 169.745 91.8903 168.726 94.2753 167.678C94.2823 167.676 94.2883 167.672 94.2943 167.67C94.3683 167.636 94.4403 167.604 94.5143 167.572C94.5123 167.568 94.5103 167.564 94.5063 167.56C94.7783 167.393 94.9683 167.171 95.0823 166.921C98.5203 164.641 101.393 161.528 103.535 157.897C104.433 156.375 105.297 154.796 106.472 153.463C107.723 152.04 109.208 151.195 111.046 150.755C113.194 150.24 115.409 149.931 117.61 149.755C118.812 149.661 120.156 149.512 121.466 149.519C122.378 149.525 123.272 149.603 124.092 149.829C125.306 150.163 126.016 151.087 126.779 152.021C127.508 152.917 128.232 153.816 128.913 154.75C129.557 155.635 130.166 156.55 130.694 157.51C131.011 158.085 131.304 158.677 131.551 159.287C131.638 159.503 131.752 159.748 131.805 159.972C131.858 160.198 131.761 160.437 132.014 160.437C130.968 160.452 130.979 162.124 132.018 162.062C136.087 161.826 130.259 153.879 129.407 152.771C128.201 151.203 126.956 149.157 125.025 148.428C124.998 148.418 124.968 148.407 124.941 148.399C125.503 147.866 125.947 147.228 126.371 146.579C126.809 145.911 127.33 145.146 127.474 144.353C127.565 143.848 126.937 143.561 126.64 144.002C126.206 144.647 125.997 145.463 125.674 146.171C125.344 146.89 124.943 147.568 124.626 148.293C123.863 148.058 123.04 147.951 122.201 147.915C123.259 146.482 125.067 143.717 125.285 143.362C126.287 141.718 127.24 140.023 128.15 138.326C129.134 136.487 129.978 134.572 130.92 132.712C131.454 131.658 131.993 130.594 132.587 129.571C132.792 129.221 133.011 128.87 133.261 128.551C133.309 128.487 133.371 128.435 133.428 128.375C133.493 128.339 133.561 128.299 133.599 128.278C133.941 128.082 134.061 127.625 134.302 127.335C134.687 126.869 135.139 126.814 135.718 126.807C136.951 126.794 138.19 126.843 139.421 126.877C141.232 126.927 143.04 126.999 144.849 127.094C145.396 127.124 145.941 127.154 146.488 127.187C149.118 127.344 151.747 127.549 154.368 127.801C156.688 128.022 159.008 128.384 161.33 128.557C158.186 136.028 154.7 143.364 150.753 150.445C150.713 150.516 150.684 150.588 150.665 150.66ZM133.223 169.908C132.716 170.14 132.223 170.43 131.765 170.759C131.841 170.246 131.86 169.705 131.839 169.161C132.217 169.567 132.701 169.8 133.223 169.908ZM154.867 157.056C154.831 157.06 154.798 157.079 154.781 157.115C154.079 158.562 154.373 160.179 155.518 161.314C156.118 161.906 157.426 162.574 157.383 163.546C157.347 164.332 156.492 164.992 156.126 165.64C155.786 166.245 155.66 166.909 155.932 167.564C156.281 168.403 157.255 168.737 157.588 169.561C158.011 170.607 157.324 171.869 156.843 172.78C156.395 173.623 155.816 174.466 155.431 175.358C152.856 176.692 150.551 178.738 148.569 180.816C146.4 183.088 144.538 185.761 141.093 185.694C140.748 185.687 140.486 185.869 140.33 186.12C139.371 186.165 138.41 186.184 137.45 186.188C135.764 186.196 134.079 186.179 132.395 186.127C132.276 185.719 132.363 185.165 132.357 184.82C132.336 183.711 132.325 182.603 132.279 181.494C132.266 181.185 132.253 180.875 132.241 180.566C132.847 181.663 134.03 182.162 135.378 182.086C137.545 181.959 139.726 181.604 141.872 181.285C143.002 181.118 144.131 180.927 145.257 180.724C146.182 180.56 147.488 180.602 148.134 179.86C148.286 179.687 148.295 179.37 148.056 179.254C147.416 178.939 147.012 179.114 146.309 179.249C145.451 179.416 144.591 179.575 143.729 179.723C142.075 180.01 140.417 180.276 138.754 180.511C137.807 180.644 136.859 180.775 135.91 180.879C135.082 180.968 134.148 181.088 133.481 180.465C132.135 179.205 132.889 177.094 133.741 175.821C133.757 175.796 133.757 175.773 133.751 175.751C134.554 175.563 135.355 175.344 136.153 175.189C137.689 174.893 139.236 174.644 140.784 174.422C143.966 173.968 147.169 173.668 150.367 173.365C151.159 173.289 151.168 172.042 150.367 172.116C145.772 172.537 141.154 172.936 136.62 173.822C135.483 174.042 134.355 174.291 133.233 174.572C132.703 174.703 132.135 174.908 131.579 174.915C131.545 174.915 131.511 174.915 131.478 174.912C130.39 174.879 130.231 173.947 130.829 173.171C130.903 173.076 130.979 172.981 131.057 172.89C132.114 171.63 133.43 170.789 134.786 169.918C136.305 169.711 137.82 169.25 139.307 168.912C142.979 168.075 146.651 167.238 150.325 166.403C151.045 166.239 150.739 165.131 150.019 165.294C147.23 165.926 144.441 166.558 141.652 167.19L137.571 168.116C136.755 168.299 135.737 168.669 134.778 168.802C134.305 168.868 133.846 168.876 133.432 168.779C132.095 168.462 132.027 166.79 132.604 165.797C133.25 164.681 134.472 163.983 135.555 163.352C137.433 162.255 139.432 161.466 141.384 160.557C141.731 160.481 142.077 160.405 142.424 160.329C144.439 159.885 146.742 159.668 148.639 158.854C149.207 158.613 148.897 157.717 148.335 157.73C146.862 157.761 145.322 158.285 143.883 158.596C142.326 158.934 140.767 159.27 139.21 159.606C139.054 159.64 138.129 159.936 137.989 159.871C137.9 159.828 137.869 159.52 137.839 159.317C137.744 158.649 137.674 157.947 137.778 157.277C138.006 155.775 139.259 155.069 140.526 154.492C143.349 153.209 146.444 152.406 149.524 152.084C150.234 152.01 150.944 151.964 151.658 151.941C152.497 151.915 153.188 151.767 153.612 152.594C154.28 153.896 154.648 155.57 154.867 157.056ZM150.947 204.259C150.332 202.132 150.499 199.86 150.078 197.689C149.861 196.569 149.564 195.459 149.24 194.365C148.978 193.482 148.542 192.543 148.493 191.622C148.49 191.56 148.562 191.525 148.612 191.553C149.48 192.05 150.146 193.125 150.641 193.968C151.233 194.977 151.686 196.034 152.05 197.145C152.778 199.359 153.375 202.029 152.437 204.259C152.158 204.924 151.177 205.056 150.947 204.259ZM131.941 176.075C132.46 176.024 132.98 175.925 133.5 175.809C132.919 176.375 132.382 177.058 132.084 177.814C132.038 177.233 131.978 176.654 131.9 176.077C131.913 176.077 131.928 176.077 131.941 176.075ZM126.946 220.368C126.029 219.728 125.361 218.834 124.584 218.044C123.82 217.268 125.015 216.072 125.779 216.849C126.442 217.522 127.018 218.363 127.799 218.908C128.174 219.17 128.348 219.643 128.102 220.064C127.884 220.436 127.32 220.629 126.946 220.368ZM121.835 195.778C123.508 195.054 125.153 194.266 126.904 193.745C127.95 193.433 128.393 195.065 127.353 195.375C125.741 195.855 124.228 196.571 122.688 197.238C121.699 197.665 120.839 196.208 121.835 195.778ZM104.166 195.271C103.757 194.262 105.393 193.826 105.796 194.822C106.26 195.968 106.792 197.085 107.256 198.23C107.665 199.24 106.03 199.676 105.626 198.68C105.162 197.534 104.63 196.418 104.166 195.271ZM86.7273 215.438C86.4553 215.802 86.0003 215.999 85.5713 215.742C85.2113 215.526 84.9923 214.953 85.2683 214.585C86.0733 213.511 86.8893 212.45 87.8343 211.492C88.5993 210.716 89.7943 211.912 89.0293 212.688C88.1863 213.543 87.4473 214.479 86.7273 215.438ZM84.2343 102.283C85.0093 102.813 85.6893 103.457 86.3523 104.12C87.1223 104.89 85.9273 106.085 85.1563 105.315C84.5983 104.757 84.0353 104.19 83.3813 103.743C83.0033 103.485 82.8333 103.004 83.0773 102.586C83.2963 102.212 83.8573 102.026 84.2343 102.283ZM109.605 129.492C109.166 130.37 108.772 131.231 108.747 132.23C108.72 133.318 107.03 133.319 107.057 132.23C107.089 130.923 107.571 129.79 108.146 128.638C108.632 127.663 110.089 128.521 109.605 129.492ZM118.914 107.64C119.823 107.034 120.668 108.499 119.767 109.1C119.037 109.586 118.307 110.074 117.577 110.56C116.668 111.166 115.823 109.701 116.724 109.1C117.454 108.614 118.184 108.127 118.914 107.64ZM78.5383 145.846C78.3823 146.92 76.7543 146.461 76.9083 145.397C77.1453 143.752 77.4353 142.129 77.8813 140.527C78.1733 139.479 79.8033 139.927 79.5113 140.976C79.0653 142.578 78.7753 144.201 78.5383 145.846ZM72.6123 165.214C71.5243 165.191 71.5243 163.5 72.6123 163.523C73.5963 163.544 74.5643 163.803 75.5143 164.041C76.5703 164.305 76.1203 165.935 75.0643 165.671C74.2623 165.47 73.4443 165.232 72.6123 165.214ZM70.4243 204.23C70.0513 204.411 69.6673 204.575 69.2893 204.748C68.5333 205.094 67.7773 205.441 67.0213 205.788C65.4463 206.511 63.8723 207.237 62.3003 207.965C59.152 209.422 55.9798 210.829 52.8243 212.271C49.6065 213.741 46.3971 215.231 43.1917 216.729C41.6816 217.434 40.1601 218.114 38.6415 218.8C37.343 219.388 35.738 220.414 34.3126 220.511C34.2393 220.516 34.2148 220.423 34.2566 220.375C34.7951 219.763 35.6541 219.406 36.3619 219.008C37.0848 218.601 37.8213 218.218 38.5544 217.83C40.0827 217.02 41.6129 216.216 43.156 215.435C46.2427 213.872 49.3352 212.321 52.4284 210.772C55.583 209.191 58.7337 207.601 61.9163 206.077C63.4143 205.359 64.9143 204.643 66.4143 203.93C67.2273 203.544 68.0413 203.158 68.8543 202.773C69.2053 202.607 69.5533 202.427 69.9123 202.278C70.3903 202.081 70.7523 202.121 71.2453 201.999C72.0473 201.801 72.3953 202.822 71.7793 203.267C71.2713 203.633 71.0043 203.947 70.4243 204.23ZM59.1412 221.567C58.9678 221.145 59.3309 220.632 59.7315 220.527C60.2113 220.4 60.596 220.692 60.7711 221.117C61.2345 222.245 61.8943 223.279 62.7443 224.153C63.5033 224.934 62.3083 226.13 61.5488 225.349C60.4842 224.253 59.7195 222.973 59.1412 221.567ZM50.8404 194.427C50.0699 193.656 51.2652 192.461 52.0355 193.232L54.2259 195.423C54.9964 196.193 53.8008 197.389 53.0308 196.618L50.8404 194.427ZM28.3678 190.855C26.793 191.317 24.9562 191.741 23.8825 193.085C23.8302 193.151 23.7421 193.067 23.7735 193.001C25.148 190.151 29.0899 189.151 31.819 188.152C33.7494 187.445 35.73 186.86 37.7273 186.336C37.5277 184.057 38.0783 181.614 38.2697 179.346C38.474 176.924 38.6402 174.496 38.7256 172.067C38.8128 169.589 38.834 167.094 38.7524 164.615C38.6713 162.146 38.3508 159.706 38.2105 157.245C38.197 157.007 38.5283 156.995 38.5997 157.192C39.4291 159.476 39.7834 162.006 40.0534 164.415C40.3314 166.896 40.4237 169.37 40.3883 171.865C40.3515 174.431 40.2023 176.99 39.9976 179.548C39.9006 180.76 39.788 181.971 39.6818 183.182C39.6006 184.107 39.563 185.024 39.3746 185.919C40.5792 185.623 41.7866 185.343 42.9902 185.071C46.8281 184.205 50.6821 183.401 54.5039 182.464C56.3799 182.004 58.2292 181.454 60.0968 180.965C61.8553 180.504 63.7113 179.946 65.5173 179.74C66.1613 179.667 66.2433 180.548 65.8173 180.848C64.3493 181.879 62.4003 182.596 60.7054 183.173C59.0043 183.752 57.236 184.169 55.4924 184.598C51.8563 185.492 48.1857 186.224 44.5206 186.986C40.8606 187.747 37.1937 188.502 33.5749 189.441C31.8321 189.893 30.0953 190.347 28.3678 190.855ZM19.7382 145.621C18.7972 146.173 17.9477 144.712 18.8853 144.161C20.1122 143.44 21.4197 142.899 22.7378 142.371C23.7494 141.966 24.1846 143.602 23.1872 144.002C22.0026 144.476 20.8406 144.974 19.7382 145.621ZM16.3307 208.437C15.3872 208.985 14.537 207.523 15.4778 206.977C16.7991 206.211 18.246 205.7 19.6153 205.03C20.5894 204.552 21.4451 206.011 20.4682 206.49C19.0991 207.16 17.652 207.671 16.3307 208.437ZM14.7982 172.78C15.7105 173.647 16.928 174.055 18.0761 174.51C19.0771 174.907 18.638 176.541 17.6267 176.14C16.1964 175.573 14.7395 175.055 13.6031 173.975C12.8125 173.224 14.0098 172.03 14.7982 172.78ZM24.8907 124.354C25.8936 124.748 25.4544 126.382 24.4414 125.985C23.3178 125.544 22.1576 125.208 21.034 124.767C20.0314 124.374 20.4704 122.739 21.4834 123.137C22.6069 123.578 23.7672 123.913 24.8907 124.354ZM42.6948 105.119C43.7604 104.94 44.2142 106.569 43.1442 106.75C41.8166 106.974 40.5092 107.237 39.2501 107.724C38.2332 108.117 37.797 106.482 38.8007 106.094C40.0601 105.606 41.3674 105.344 42.6948 105.119ZM48.5776 151.951C47.6005 151.47 48.4578 150.013 49.4305 150.491C50.4556 150.995 51.5176 151.385 52.6361 151.623C53.7011 151.85 53.2475 153.48 52.1867 153.254C50.928 152.985 49.7303 152.518 48.5776 151.951ZM54.1339 125.571C55.186 125.283 55.631 126.915 54.5833 127.202C52.74 127.707 50.8422 127.97 48.9853 128.419C47.9271 128.676 47.4794 127.045 48.536 126.789C50.3928 126.339 52.2908 126.077 54.1339 125.571ZM77.7043 117.293C78.7743 117.491 78.3183 119.121 77.2553 118.924C76.1233 118.714 74.9763 118.711 73.8283 118.71C72.7393 118.71 72.7413 117.019 73.8283 117.019C75.1323 117.02 76.4193 117.055 77.7043 117.293ZM154.576 126.127C151.814 125.862 149.049 125.651 146.279 125.493C146.15 125.486 146.023 125.478 145.894 125.471C145.88 125.442 145.861 125.414 145.842 125.385C144.938 124.057 144.272 122.73 143.695 121.229C143.144 119.801 142.609 118.328 141.76 117.039C140.791 115.57 139.484 114.42 138.05 113.424C137.181 114.009 136.374 114.694 135.636 115.42C134.859 116.183 133.664 114.988 134.441 114.224C135.097 113.579 135.797 112.983 136.537 112.445C135.683 111.925 134.811 111.437 133.96 110.951C130.772 109.132 127.508 107.449 124.176 105.911C122.628 105.194 121.06 104.558 119.482 103.913C118.632 103.567 117.794 103.121 116.945 102.72C117.006 102.119 116.826 101.447 116.366 101.052C116.026 100.762 115.762 100.654 115.356 100.45C115.265 100.418 115.21 100.399 115.185 100.388C115.204 100.392 115.259 100.409 115.349 100.439C115.565 100.538 115.582 100.509 115.4 100.352C115.39 100.01 114.716 99.2872 114.562 98.9342C114.025 97.7232 113.858 96.4422 113.066 95.3392C111.973 93.8192 110.14 93.2452 108.43 93.7602C108.253 91.9322 108.207 90.0242 107.518 88.3922C107.499 88.3482 107.438 88.3292 107.41 88.3772C106.692 89.6012 106.631 90.9642 106.576 92.3762C106.523 93.7012 106.573 95.0562 106.747 96.3732C106.637 96.4572 106.525 96.5382 106.409 96.6162C105.864 96.9752 105.276 97.2522 104.659 97.4572C103.485 97.8462 102.253 98.0152 101.021 98.0742C97.8423 98.2262 94.5653 97.9052 91.4383 97.3602C88.2763 96.8082 83.4273 95.9792 80.6133 94.3962C78.7563 93.3532 77.0433 92.0782 75.3063 90.8442C75.9353 88.8152 76.0963 86.6332 75.4623 84.9192C75.3863 84.7142 75.0653 84.6762 75.0043 84.9192C74.6073 86.5552 74.4903 88.2002 73.9623 89.8162C73.9543 89.8402 73.9453 89.8652 73.9373 89.8882C73.7723 89.7762 73.6073 89.6662 73.4433 89.5562C73.0623 89.3052 72.5453 89.4932 72.3163 89.8522C68.6683 95.6032 62.8903 95.9332 56.8224 96.9602C50.182 98.0842 43.5083 99.2982 37.1238 101.498C31.0182 103.603 25.1829 106.668 20.5604 111.245C19.514 112.282 18.5354 113.386 17.6117 114.539C18.5054 114.652 19.3917 114.827 20.2665 115.102C21.3024 115.428 20.8572 117.059 19.8172 116.733C18.6928 116.379 17.556 116.204 16.4075 116.117C13.2666 120.416 10.8176 125.29 8.69983 130.087C4.63783 139.285 1.99383 149.081 0.777127 159.054C1.44513 158.653 2.12523 158.272 2.82223 157.917C3.79063 157.424 4.64483 158.884 3.67533 159.377C2.59873 159.925 1.55293 160.529 0.539628 161.183C0.0970281 165.549 -0.0744724 169.942 0.0294276 174.329C0.276628 184.787 1.68793 195.551 4.88013 205.529C6.44563 210.426 8.52033 215.283 11.6111 219.421C13.0097 221.295 14.5984 222.986 16.4703 224.396C17.3766 225.081 18.3358 225.692 19.3477 226.207C20.6513 226.875 22.3498 227.095 23.4738 228.039C23.8435 228.35 24.1287 228.76 24.3442 229.223C24.2196 230.102 24.2048 230.984 24.4456 231.863C24.5217 232.138 24.7287 232.362 24.9844 232.469C24.9886 232.545 24.9886 232.619 24.9886 232.691C24.9886 232.725 25.0393 232.734 25.0456 232.7C25.0562 232.634 25.0667 232.569 25.0773 232.501C25.1597 232.529 25.2463 232.541 25.3351 232.541C28.5442 232.554 31.7574 232.475 34.9708 232.366C34.7223 231.605 34.4532 230.85 34.1948 230.088C33.8439 229.054 35.4767 228.614 35.8245 229.639C36.1268 230.529 36.4429 231.412 36.7241 232.305C40.1671 232.177 43.6091 232.023 47.0449 231.91C54.3527 231.666 61.6583 231.586 68.9683 231.432C80.3193 231.191 91.7533 230.698 103.123 231.18C103.516 230.346 103.956 229.53 104.373 228.707C104.865 227.735 106.323 228.591 105.833 229.56C105.542 230.132 105.242 230.697 104.957 231.268C107.259 231.388 109.56 231.546 111.855 231.762C115.772 232.129 119.651 232.782 123.564 233.188C127.542 233.602 131.433 233.528 135.38 232.871C136.09 232.753 136.508 232.324 136.681 231.791C136.687 231.789 136.692 231.785 136.696 231.778C136.899 231.542 137.089 231.345 137.285 231.174C137.52 231.022 137.773 230.893 138.071 230.779C138.627 230.567 139.206 230.438 139.793 230.352C140.44 230.255 141.095 230.246 141.741 230.166C142.286 230.096 142.819 229.992 143.351 229.866C144.308 229.638 145.216 229.339 146.121 228.944C146.909 228.6 147.62 228.105 148.292 227.566C149.683 226.549 150.887 225.252 151.939 223.903C152.552 223.115 153.128 222.297 153.652 221.446C154.565 219.97 155.342 218.438 156.128 216.893C156.414 216.435 156.674 215.966 156.912 215.488C155.376 215.035 153.825 214.666 152.197 214.64C151.108 214.622 151.109 212.931 152.197 212.949C154.064 212.979 155.831 213.415 157.586 213.935C157.671 213.708 157.753 213.479 157.829 213.247C158.038 212.763 158.212 212.266 158.355 211.763C158.439 211.535 158.524 211.307 158.609 211.079C158.799 210.288 158.989 209.496 159.181 208.703C159.564 207.435 159.866 206.148 160.088 204.844C160.273 203.986 160.417 203.121 160.514 202.246C160.81 200.126 161.051 198.011 161.068 195.868C161.042 194.547 160.958 193.228 160.814 191.915C160.753 191.024 160.65 190.136 160.51 189.255C160.328 187.944 160.149 186.647 159.847 185.353C159.621 184.478 159.395 183.603 159.169 182.728C158.604 180.904 157.939 179.116 157.172 177.368C157.13 177.259 156.916 177.017 156.788 177.015C156.69 177.013 156.555 177.102 156.599 177.221C156.604 177.231 156.608 177.244 156.612 177.254C156.568 177.155 156.526 177.053 156.481 176.954C156.443 176.861 156.295 176.675 156.181 176.677C156.175 176.677 156.168 176.677 156.16 176.679C156.19 176.658 156.217 176.631 156.245 176.599C157.003 175.701 157.495 174.519 158.038 173.479C158.488 172.621 158.913 171.717 159.035 170.747C159.143 169.895 158.997 169.056 158.463 168.367C157.854 167.583 156.709 167.215 157.345 166.082C158.068 164.793 159.131 163.675 158.072 162.21C157.533 161.464 156.68 161.054 156.046 160.405C155.317 159.655 154.97 158.651 154.99 157.626C155.034 157.651 155.093 157.639 155.114 157.575C155.727 155.724 155.283 153.691 154.656 151.888C154.314 150.91 153.589 150.641 152.746 150.593C156.397 143.459 159.813 136.212 162.857 128.798C162.959 128.555 163.058 128.312 163.157 128.069C163.305 127.705 162.992 127.221 162.631 127.141C159.999 126.564 157.257 126.38 154.576 126.127Z" fill="black"/>
<path fill-rule="evenodd" clip-rule="evenodd" d="M125.084 33.6513C123.172 25.5875 118.992 18.0833 112.299 12.0185C92.1594 -7.90042 55.1747 2.91117 55.3422 32.9276C54.6199 36.4335 54.3267 40.0383 54.5658 43.6137C54.6647 45.1392 55.3247 47.2682 54.438 48.6412C52.4379 51.2092 51.2755 53.1032 51.9562 56.5192C52.525 59.5032 54.5544 61.6162 57.2933 62.7402C58.9359 63.2112 60.4944 64.2382 61.1029 65.8042C64.7594 72.5002 67.4674 78.0702 73.2314 82.6342C74.7194 83.8092 89.9734 90.8562 95.0004 90.8562C109.715 90.8562 128.261 85.5232 128.569 69.0802C128.622 65.4692 127.989 61.8152 127.591 58.2322C126.624 50.0552 126.965 41.5828 125.084 33.6513Z" fill="white"/>
<path fill-rule="evenodd" clip-rule="evenodd" d="M124.753 29.618C124.758 29.5183 124.901 29.4959 124.928 29.5943C125.475 31.5356 125.785 33.5132 126.213 35.4847C126.625 37.3837 127.014 39.2881 127.337 41.2038C127.948 44.8193 128.463 48.4442 128.942 52.0782L129.061 52.9872C129.893 59.3822 131.267 66.0442 130.065 72.4762C129.04 77.9652 125.602 82.3882 121.172 85.6312C116.978 88.7022 111.892 90.6732 106.842 91.7932C101.422 92.9962 94.9983 93.3552 90.5883 89.3792C88.8233 87.7872 91.2293 84.6282 93.1443 86.0652C97.6413 89.4382 103.362 88.4432 108.437 87.1012L108.59 87.0602C113.044 85.8742 117.527 84.0752 121.063 81.0402C124.972 77.6852 126.905 73.0292 127.128 67.9212C127.254 65.0522 126.986 62.1862 126.698 59.3342L126.666 59.0172C126.335 55.7552 125.987 52.4942 125.667 49.2312C125.374 46.2557 125.122 43.2627 124.989 40.2737L124.926 38.7662C124.797 35.7267 124.622 32.6429 124.753 29.618ZM72.0123 4.36327C79.3303 0.551969 87.7403 -0.812033 95.8843 0.467067C103.713 1.69667 110.898 5.73817 116.269 11.5332C118.891 14.3625 121.218 17.6353 122.705 21.2107C123.444 22.9869 124.023 24.8398 124.331 26.7428C124.489 27.7211 124.645 28.7348 124.675 29.7266C124.702 30.6449 124.432 31.5062 124.464 32.4397C124.469 32.5858 124.246 32.6139 124.212 32.474C123.957 31.4331 123.344 30.646 122.96 29.6573C122.672 28.9191 122.346 28.1983 122.014 27.4798L121.729 26.8641C120.902 25.0746 119.912 23.3586 118.933 21.6488C116.962 18.2051 114.434 15.0754 111.472 12.4346C106.273 7.79797 99.6033 4.80497 92.6423 4.26607C85.4163 3.70637 78.0883 5.42937 71.9173 9.24587C65.7473 13.0623 61.0813 18.9949 58.6589 25.8255C57.4367 29.2724 56.7617 32.8639 56.6047 36.5156C56.5253 38.3641 56.5994 40.228 56.7289 42.0729L56.7933 42.9526C56.8686 44.0076 56.9203 45.0586 56.7627 46.0881C57.8757 45.7408 59.0423 45.5969 60.2132 45.7687C61.9533 46.0241 62.9923 46.7376 63.7733 48.2922C63.8133 48.3742 63.7323 48.4552 63.6513 48.4142C62.6393 47.9095 61.0022 48.1754 59.9307 48.4402C58.8156 48.7162 57.8113 49.1952 56.8637 49.8432C55.1108 51.0412 53.7367 52.8982 53.3996 55.0282C53.0736 57.0862 53.918 59.1692 55.3365 60.6442C56.0666 61.4042 56.9394 62.0602 57.9165 62.4692C59.1023 62.9662 60.2761 62.9512 61.3253 63.7712C61.9743 64.2782 61.8173 65.1462 61.3772 65.7092C63.5903 68.1372 65.5533 70.7932 67.7673 73.2312C68.7923 74.3602 69.8103 75.4922 70.7933 76.6582L71.1603 77.0972C72.1423 78.2822 73.7033 79.5342 74.1523 81.0242C74.4313 81.9512 73.4383 83.1642 72.4353 82.7422C70.8963 82.0932 69.7973 80.4072 68.7583 79.1132L68.6903 79.0292C67.5993 77.6892 66.6313 76.2732 65.7463 74.7902L65.4553 74.3022C63.8543 71.6092 62.2673 68.8162 61.2467 65.8572C61.1793 65.9262 61.1079 65.9892 61.0327 66.0432C59.5622 67.0892 57.4246 66.2852 55.9561 65.6052C54.5698 64.9642 53.2988 64.0002 52.3082 62.8372C50.1537 60.3092 49.1605 57.0352 49.8801 53.7542C50.4896 50.9742 52.4153 48.2712 54.9399 46.8648C53.7746 45.5227 53.292 43.7136 52.9709 41.9448C52.561 39.6869 52.4793 37.3731 52.5906 35.0835C52.8127 30.5232 53.9858 26.028 55.7994 21.8521C59.044 14.3803 64.7803 8.13017 72.0123 4.36327ZM56.6103 54.2232C58.1462 53.9352 59.5776 53.8662 61.059 54.5162C62.6663 55.2212 63.7963 56.3862 64.8483 57.7512C66.0443 59.3042 62.9783 61.0002 62.2053 58.9392L62.1833 58.8752C61.9763 58.2652 61.6053 57.6752 61.1354 57.1322C60.9945 57.3482 60.8061 57.5382 60.5847 57.6472C60.3166 57.7792 59.9071 57.6882 59.8427 57.3452C59.7713 56.9652 59.8503 56.5042 60.0696 56.1822L60.0996 56.1382C59.034 55.2812 57.7522 54.6542 56.6103 54.4522C56.4962 54.4322 56.4975 54.2442 56.6103 54.2232Z" fill="black"/>
<path fill-rule="evenodd" clip-rule="evenodd" d="M93.6614 65.5382C93.7054 65.4972 93.7754 65.4822 93.8294 65.5162C94.7434 66.0942 94.8514 68.0392 94.8624 69.1622C95.2404 69.2602 95.6134 69.3722 95.9674 69.4502C96.7174 69.6172 97.4714 69.7612 98.2244 69.9142L98.7884 70.0302C100.674 70.4282 102.595 70.7222 104.516 70.8702C106.381 71.0122 108.301 71.0652 110.16 70.8242C110.959 70.7212 111.753 70.5482 112.525 70.3182C113.437 70.0462 114.163 69.5952 115.012 69.2002C117.136 68.2102 118.916 71.1102 116.872 72.3832C115.117 73.4752 112.723 73.8692 110.697 74.0382C108.627 74.2112 106.565 74.0212 104.519 73.6932C102.308 73.3392 100.142 72.7952 98.0454 72.0062C97.1584 71.6722 96.3003 71.2672 95.4623 70.8252L95.2343 70.7042C95.0943 70.6292 94.9493 70.5532 94.8033 70.4762C94.6463 71.8772 94.1944 73.2292 93.6474 74.5302L93.6354 74.5072C93.3364 75.5332 92.2564 76.1682 91.1814 75.7142C89.9204 75.1832 89.8244 73.7882 90.5584 72.7972L90.5934 72.7512C91.4564 71.6412 91.9964 70.2632 92.4664 68.9502C92.7074 68.2772 92.9303 67.5872 93.1243 66.8992C93.2643 66.4012 93.2694 65.9002 93.6614 65.5382ZM126.161 54.3842C125.413 56.6442 123.783 58.3852 121.512 59.1502C119.261 59.9082 116.757 59.6322 114.457 59.2222C113.953 59.1322 113.443 59.0332 112.934 58.9172C113.351 59.1762 113.719 59.5392 114.071 59.9242C114.592 60.4922 115.064 61.0912 115.208 61.8022C115.35 62.5082 115.126 63.0452 114.717 63.4502C114.089 64.0732 113.075 64.4092 112.216 64.5952C110.293 65.0102 108.367 64.9462 106.454 64.5192C105.965 64.4112 105.634 64.1492 105.448 63.8072C105.222 63.3912 105.204 62.8752 105.333 62.4052C105.463 61.9352 105.743 61.5012 106.149 61.2622C106.483 61.0642 106.902 61.0102 107.376 61.1682C108.329 61.4852 109.275 61.6952 110.282 61.7202C110.708 61.7292 111.137 61.7172 111.562 61.6782C111.802 61.6562 112.042 61.6252 112.281 61.5872C112.141 61.4002 112.004 61.2092 111.871 61.0162C111.713 60.7882 111.559 60.5582 111.413 60.3232C110.989 59.6442 110.636 58.9462 110.326 58.2092C110.226 57.9732 110.134 57.7362 110.046 57.4982C110.033 57.4642 110.02 57.4302 110.008 57.3952C109.98 57.3732 109.953 57.3502 109.926 57.3262C109.32 56.8012 108.811 56.1552 108.451 55.3542C107.477 53.1842 107.636 50.4912 108.227 48.2382C108.701 46.4321 109.746 44.7619 111.127 43.6271C111.368 43.2302 111.527 42.9895 111.722 42.7867C112.516 41.9606 113.624 41.4034 114.705 41.0645C117.119 40.3072 119.748 40.8505 121.794 42.2924C123.684 43.6237 125.163 45.6203 125.962 47.841C126.719 49.9442 126.867 52.2512 126.161 54.3842ZM93.2793 40.6492C96.1503 40.6247 99.0714 41.4726 101.401 43.1696C103.63 44.7934 105.379 47.1907 105.377 50.0462C105.375 52.8262 103.89 55.5602 102.242 57.7132C100.392 60.1292 97.9764 61.2942 94.9374 61.3212C93.3574 61.3352 91.7664 61.1952 90.1984 61.0032L89.3564 60.8972C88.1984 60.7482 87.0273 60.5712 85.9293 60.1722C80.7013 58.2752 80.5394 51.4302 82.4754 47.0548C83.9704 43.6766 87.7543 40.3821 91.5273 40.7775C92.0953 40.6978 92.6793 40.6545 93.2793 40.6492ZM98.1283 43.8683C94.5333 42.254 90.1653 42.7374 86.6774 44.4601C85.2964 45.9679 84.2864 47.8681 83.8774 49.6122C83.4414 51.4752 83.5054 53.4812 84.1614 55.2852C84.9624 57.4892 86.9344 58.0342 89.0624 58.3732L89.8873 58.5032L90.2343 58.5552C92.3243 58.8672 94.6104 59.1102 96.6194 58.7192C98.8584 58.2842 100.28 56.4752 101.399 54.6192L101.451 54.5322C102.613 52.5892 103.586 50.2252 102.611 47.9977C101.782 46.1046 99.9723 44.6964 98.1283 43.8683ZM119.348 44.4308C118.114 43.7469 116.707 43.6226 115.375 44.0804C114.802 44.2773 114.306 44.5965 113.826 44.9543L113.635 45.0993C113.044 45.5528 112.492 45.7825 112.049 46.395L111.992 46.4771C111.769 46.811 111.378 46.9446 111.021 46.9002C110.606 48.0451 110.435 49.2832 110.431 50.5022L110.432 50.6632L110.434 50.8282C110.461 52.2692 110.712 54.0312 111.845 54.9972C112.878 55.8772 114.443 56.0892 115.841 56.2112L116.917 56.3012L117.204 56.3232C118.676 56.4252 120.29 56.3902 121.524 55.5182C122.599 54.7592 123.106 53.4692 123.237 52.1962C123.548 49.1892 122.027 45.9155 119.348 44.4308ZM92.4923 44.7086C94.4713 43.6975 96.8503 43.9509 98.5273 45.2182C98.3783 45.2474 98.2313 45.2846 98.0853 45.3579C97.7043 45.5487 97.4683 45.9309 97.3783 46.3375C97.2773 46.7972 97.5154 47.2324 97.9684 47.3773C98.3634 47.5033 98.8314 47.561 99.1984 47.3211C99.3904 47.1956 99.5244 47.0301 99.6124 46.8217L99.6243 46.7911L99.6404 46.7686L99.6464 46.758C99.6474 46.754 99.6404 46.7617 99.6294 46.7788C99.6404 46.7528 99.6514 46.7268 99.6614 46.7004C99.6774 46.6689 99.6914 46.6372 99.7034 46.6044C99.7254 46.586 99.7443 46.5655 99.7643 46.545C100.068 47.014 100.308 47.5437 100.46 48.1329C101.434 51.9152 97.4374 55.8402 93.8664 56.2332C92.5174 56.3812 91.2864 56.0592 90.2654 55.4262C90.2744 55.4132 90.2844 55.4022 90.2934 55.3892C90.7034 55.4632 91.1934 55.2792 91.3424 54.8212C91.7224 53.6542 91.3324 52.2882 90.0604 51.9062C89.2424 51.6612 88.4043 51.9322 87.8193 52.4922C87.3773 51.4082 87.2193 50.1892 87.4283 48.9682C87.7233 47.2446 88.7624 45.6918 90.3794 44.9749C91.1674 44.6256 91.8453 44.5522 92.4923 44.7086ZM113.341 47.0421L113.402 46.9471C114.013 46.0053 115.183 44.85 116.395 45.1676C116.565 45.2122 116.732 45.2841 116.882 45.3773C117.548 45.2868 118.246 45.4382 118.818 45.7905L118.803 45.83C118.8 45.8366 118.798 45.8433 118.796 45.8503C118.744 46.0794 118.774 46.2912 118.881 46.5017C118.997 46.7297 119.163 46.9459 119.387 47.0768C119.54 47.1664 119.721 47.2135 119.898 47.2099C120.158 47.2053 120.386 47.0909 120.574 46.9163C120.676 46.8217 120.747 46.6828 120.786 46.5399C120.879 46.6287 120.969 46.7276 121.054 46.8398C122.459 48.6882 122.265 51.6582 120.617 53.3062C120.55 53.3722 120.479 53.4322 120.409 53.4942C119.74 54.4152 118.708 55.0412 117.469 55.1682C116.322 55.2852 115.175 54.9462 114.295 54.2502C114.366 54.2122 114.432 54.1632 114.489 54.0992C114.639 53.9292 114.763 53.7612 114.854 53.5532C114.877 53.5012 114.899 53.4482 114.92 53.3952L114.951 53.3152C114.956 53.3002 115.003 53.1652 114.991 53.1892L114.988 53.1942L115.004 53.1552C115.162 52.7622 115.098 52.3132 114.724 52.0662L114.683 52.0402C114.561 51.9692 114.41 51.9352 114.257 51.9352C113.875 51.4682 113.307 51.3612 112.774 51.4972L112.755 51.3462C112.753 51.3212 112.75 51.2962 112.748 51.2712C112.335 49.9012 112.535 48.3442 113.341 47.0421ZM95.0044 33.2515L95.1413 33.2301C96.1783 33.0802 96.8834 33.2528 97.5584 34.1394C97.8794 34.5619 97.7804 35.1999 97.5584 35.6317C96.8404 37.0268 94.8653 36.7383 93.5353 37.0154C92.2363 37.2857 90.9413 37.6537 89.7253 38.1893C88.4853 38.7358 87.3224 39.3823 86.1874 40.1206C85.1604 40.7887 84.2294 41.7928 83.0564 42.1815C83.0034 42.199 82.9403 42.1517 82.9433 42.0957C83.0273 40.7614 84.1414 39.5366 85.0044 38.5864C86.0024 37.4876 87.2154 36.512 88.4794 35.7363C89.7844 34.9362 91.1943 34.2774 92.6543 33.8179C93.4223 33.5759 94.2094 33.3836 95.0044 33.2515ZM110.801 35.0631C112.107 33.1532 115.353 33.5194 117.268 34.0299C119.669 34.6694 122.271 35.9631 123.955 37.8356C125.463 39.5131 123.207 41.6926 121.511 40.281L121.058 39.9055L120.768 39.6675C119.466 38.6036 118.177 37.6408 116.59 36.9315C114.73 36.1002 112.845 35.6953 110.878 35.2523C110.801 35.235 110.756 35.1301 110.801 35.0631Z" fill="black"/>
<path fill-rule="evenodd" clip-rule="evenodd" d="M90.9983 77.8172C92.7093 73.8092 96.4423 70.8632 100.74 69.7852C103.897 68.9962 107.209 69.0222 110.427 69.3352C112.112 69.4982 113.921 69.6312 115.509 70.2572C116.866 70.7922 117.972 71.8042 118.803 72.9912C119.792 74.3982 120.465 76.0082 120.938 77.6582C121.005 77.8932 121.068 78.1292 121.127 78.3672C120.922 79.6122 120.485 80.6722 119.332 81.4542C118.207 82.2192 116.865 82.5322 115.527 82.6432C115.396 82.5802 115.269 82.5152 115.153 82.4482C113.068 81.2542 111.6 78.4322 108.968 78.8142C106.619 79.1552 105.073 82.1122 103.676 83.8452C99.1933 84.3682 94.7133 83.0202 91.0653 80.4552C90.8803 79.5782 90.8693 78.6922 90.9983 77.8172ZM124.174 74.7762C123.815 73.7702 123.364 72.7942 122.828 71.8762C121.058 68.8382 118.341 66.4172 115.115 65.0332C107.483 61.7652 97.6093 64.0692 91.4463 69.4302C89.3413 71.2632 87.2123 73.9562 86.5683 76.8532C86.3763 76.8912 86.1953 76.9912 86.0453 77.1322C81.5933 74.3272 77.0073 71.6292 73.4193 67.7422C70.8143 64.9172 69.0013 61.5742 67.8913 57.9012C67.8013 57.5992 67.3133 57.6432 67.3283 57.9782C67.3323 58.0562 67.3363 58.1342 67.3413 58.2122C67.2943 58.0682 67.0753 58.1422 67.0583 58.2822C66.4613 62.7442 65.7143 67.4752 66.4023 71.9602C66.8133 74.6372 68.0293 76.5962 69.6533 78.7122C71.3943 80.9802 73.3643 83.0892 75.3793 85.1122C76.6583 86.3962 77.9933 87.8772 79.5593 88.8192C81.3803 89.9132 83.4453 90.7442 85.3893 91.5882C87.3653 92.4492 89.3723 93.2452 91.4163 93.9352C95.5033 95.3182 99.7273 96.2752 104.025 96.6942C107.466 97.0282 111.399 97.3922 114.697 96.0972C117.224 95.1052 119.265 93.3112 120.883 91.1522C122.645 88.8022 124.037 86.1242 124.807 83.3012C125.607 80.3682 124.343 75.2492 124.174 74.7762Z" fill="black"/>
</svg>
