<svg width="166" height="242" viewBox="0 0 166 242" fill="none" xmlns="http://www.w3.org/2000/svg">
<path fill-rule="evenodd" clip-rule="evenodd" d="M159.566 209.03C158.715 204.219 157.934 199.395 157.225 194.561C156.888 192.265 156.559 189.968 156.264 187.667C156.057 186.055 155.742 184.211 156.839 183.017C158.382 181.337 159.783 179.898 159.972 177.491C160.15 175.226 159.384 172.756 158.905 170.558C157.901 165.947 156.652 161.393 155.271 156.883C153.868 152.3 152.329 147.76 150.768 143.229C149.309 138.993 147.907 134.718 146.006 130.654C142.4 122.941 136.299 117.229 128.758 113.414C126.883 112.466 123.057 109.08 121.098 108.322C119.297 107.624 119.303 109.66 117.531 108.893C116.113 108.28 114.794 107.463 114 106.094C113.139 104.608 110.978 102.529 110.649 100.799C109.952 97.1319 110.707 94.0099 108.091 91.2499C105.768 88.7989 102.646 87.1199 99.4157 86.2189C92.3097 84.2359 82.8327 85.6219 78.5447 92.2279C76.4977 95.3829 75.7817 99.1959 73.0187 101.77C70.6057 104.018 71.1457 105.555 68.0207 106.714C67.8437 106.779 63.0461 105.75 62.8691 105.816C59.4503 105.084 56.1828 107.133 53.0463 108.322C48.3703 110.094 43.9185 112.4 39.736 115.142C31.3024 120.67 24.0792 127.848 18.1242 135.97C12.12 144.16 7.46129 153.34 4.14419 162.934C3.33859 165.264 2.61499 167.623 1.97679 170.004C1.61949 171.337 1.23779 172.72 1.67279 174.085C2.02849 175.201 2.81989 176.032 3.74929 176.702C5.00909 177.61 7.53609 178.201 7.48689 180.027C7.44919 181.416 6.97829 182.877 6.74849 184.249C6.47489 185.884 6.25009 187.527 6.02529 189.169C5.00279 196.64 4.20689 204.153 3.85489 211.688C3.50849 219.107 3.22089 226.677 3.73539 234.094C3.76939 234.583 3.91519 235.032 4.15029 235.411C3.93079 235.495 3.91389 235.905 4.18709 235.963C4.37849 236.003 4.56949 236.044 4.76089 236.084C5.15849 236.385 5.65429 236.57 6.22489 236.588C6.61179 236.6 6.99839 236.617 7.38479 236.637C11.4625 237.49 15.5395 238.295 19.6704 238.905C24.6919 239.647 29.7281 240.251 34.7799 240.743C45.1605 241.752 55.4594 241.417 65.8537 240.873C76.2317 240.33 86.6047 240.203 96.9937 240.473C107.392 240.744 117.786 241.196 128.187 241.381C139.806 241.588 151.408 241.27 162.994 240.346C164.582 240.22 165.565 238.956 165.252 237.377C163.375 227.921 161.248 218.528 159.566 209.03Z" fill="white"/>
<path fill-rule="evenodd" clip-rule="evenodd" d="M59.6272 105.583C60.7017 105.537 61.7973 105.71 62.8693 105.816C62.9627 105.825 62.9981 105.969 62.8929 105.991C60.9745 106.392 59.077 106.941 57.1928 107.498L56.3861 107.736C54.2614 108.365 52.199 109.014 50.1421 109.853C46.0427 111.524 42.1492 113.78 38.5659 116.372C24.7676 126.352 14.781 141.462 8.4788 157.106C6.7674 161.355 5.3172 165.709 4.1426 170.137C3.8569 171.214 3.5882 172.296 3.3334 173.38C3.2586 173.698 2.9327 174.513 3.1114 174.838C3.2694 175.126 3.8838 175.304 4.1692 175.454L5.1328 175.953C7.0124 176.923 10.1434 178.515 10.4574 178.671L10.947 178.912C18.9563 182.84 27.5142 186.171 36.5272 186.401L36.5977 185.631C36.9996 181.374 37.5269 177.095 38.6779 172.969C38.7398 172.747 39.0218 172.822 39.0476 173.019C39.6888 177.904 39.4838 182.826 39.2601 187.733C38.864 196.425 38.3379 205.111 37.8704 213.799C37.6363 218.145 37.3338 222.488 37.0606 226.831C36.787 231.184 36.6985 235.641 36.0738 239.957C35.9346 240.919 34.8081 241.442 33.955 241.341C33.011 241.228 32.2849 240.397 32.2805 239.443C32.2691 236.929 32.5849 234.385 32.7605 231.876C32.9272 229.493 33.1061 227.111 33.2895 224.729C33.9596 216.036 34.7305 207.353 35.4436 198.664C35.6962 195.582 35.9692 192.503 36.2502 189.424C26.7024 189.116 17.7824 185.578 9.273 181.445C9.1498 184.242 8.8524 187.035 8.5644 189.821C7.7605 197.596 7.0517 205.367 6.5212 213.166C6.2534 217.105 6.0584 221.049 5.8885 224.993C5.805 226.932 5.737 228.871 5.6848 230.81C5.6674 231.457 5.6516 232.103 5.6376 232.75L5.6086 234.231C5.5849 235.169 5.4895 236.039 4.7001 236.722C3.8984 237.416 2.8154 237.453 2.0219 236.722C0.959602 235.744 1.1474 234.41 1.1789 233.096C1.2051 231.988 1.2366 230.879 1.2731 229.771C1.3465 227.555 1.44 225.339 1.5539 223.124C1.9524 215.381 2.7486 207.669 3.7891 199.988L4.1952 197.023C4.9537 191.511 5.7865 185.874 7.4821 180.564C6.8219 180.235 6.1636 179.905 5.5078 179.572C4.3446 178.983 3.1418 178.43 2.0111 177.78C1.1141 177.264 0.3404 176.556 0.0906997 175.512C-0.1878 174.349 0.238001 173.076 0.521001 171.941L0.545499 171.841C0.822899 170.698 1.1217 169.56 1.4369 168.427C2.715 163.833 4.2955 159.328 6.1452 154.933C9.8487 146.134 14.6291 137.775 20.4683 130.217C25.7244 123.413 31.9336 117.244 39.2109 112.616C42.7686 110.354 46.56 108.496 50.5697 107.183C52.4438 106.569 54.483 106.036 56.4453 105.816C57.5037 105.697 58.5636 105.63 59.6272 105.583ZM78.6657 91.6409C79.9417 90.2689 82.4787 91.6879 81.8657 93.5049C80.4237 97.7779 78.1277 101.676 74.5437 104.484C71.1747 107.124 67.1577 108.838 62.8309 108.472C62.7976 108.469 62.7686 108.461 62.7431 108.449L63.1159 108.954C66.0427 112.915 69.1307 116.822 72.8527 120.059C80.4357 126.656 90.7607 130.213 100.73 127.682C108.574 125.691 115.485 119.486 117.517 111.578C117.226 111.709 116.88 111.754 116.5 111.671C114.873 111.318 113.264 109.607 112.215 108.38C111.08 107.053 110.194 105.62 109.545 104C108.356 101.036 107.975 97.2189 109.598 94.3479C109.798 93.9939 110.26 94.1919 110.299 94.5379L110.361 95.0769C110.674 97.7679 111.064 100.372 112.332 102.825C112.953 104.025 113.697 105.197 114.603 106.203C115.087 106.74 115.613 107.254 116.18 107.705C116.733 108.145 117.402 108.463 117.897 108.967L117.988 109.064L117.991 109.046C118.116 107.981 118.863 107.511 119.594 107.541C120.301 107.569 121.131 107.881 121.453 108.03L121.484 108.044C126.417 110.413 130.961 113.501 135.237 116.928C144.08 124.013 150.705 133.275 153.915 144.183C155.491 149.536 156.395 155.052 157.35 160.542L157.937 163.906C158.828 168.975 159.823 174.143 161.834 178.858C162.354 180.077 161.953 181.221 160.678 181.701C159.085 182.3 157.487 182.88 155.886 183.453C156.672 186.826 157.151 190.317 157.74 193.707C158.992 200.914 160.526 208.075 161.841 215.272C162.514 218.952 163.121 222.645 163.792 226.325C164.116 228.098 164.453 229.867 164.782 231.639C164.959 232.594 165.119 233.552 165.288 234.509L165.317 234.668C165.414 235.172 165.535 235.694 165.397 236.199C165.238 236.775 164.789 237.182 164.388 237.595C164.058 237.935 163.58 237.937 163.176 237.752L163.043 237.69C162.32 237.352 161.754 237.015 161.498 236.199C161.335 235.683 161.277 235.101 161.171 234.57C160.967 233.55 160.774 232.529 160.592 231.505C160.228 229.456 159.872 227.406 159.525 225.354L159.201 223.433C158.087 216.812 157.03 210.15 156.495 203.459C156.258 200.49 156.007 197.524 155.753 194.557L155.563 192.332C155.322 189.516 155.028 186.629 154.986 183.774L154.029 184.114L149.357 185.766C148.199 186.176 146.725 187.015 145.478 186.862C144.868 186.787 144.403 186.595 144.044 186.246C144.474 192.319 145.056 198.381 145.832 204.412C146.538 209.9 147.321 215.381 148.245 220.836C148.703 223.538 149.174 226.237 149.685 228.929C149.94 230.275 150.204 231.619 150.475 232.962C150.611 233.632 150.772 234.302 150.878 234.978C150.998 235.751 150.786 236.227 150.353 236.864C149.999 237.386 149.289 237.655 148.714 237.294C147.952 236.816 147.555 236.401 147.33 235.531C147.127 234.739 147.003 233.913 146.845 233.112C146.554 231.633 146.273 230.153 146.002 228.67C145.434 225.569 144.911 222.46 144.443 219.342C142.797 208.359 141.752 197.283 141.224 186.19C140.963 180.716 140.883 175.238 140.929 169.759C140.953 166.951 141.045 164.134 141.243 161.333C141.444 158.497 141.863 155.718 142.236 152.909C142.249 152.811 142.389 152.805 142.395 152.909C142.571 156.058 142.849 159.203 142.984 162.36C143.114 165.373 143.171 168.39 143.274 171.403C143.41 175.364 143.597 179.328 143.846 183.288C144.296 182.796 144.975 182.512 145.654 182.623C146.638 182.416 147.696 181.9 148.634 181.586L152.17 180.405C154.028 179.784 155.887 179.167 157.752 178.569C156.084 172.957 154.942 167.261 153.967 161.483L153.532 158.884C152.67 153.768 151.742 148.65 150.182 143.697C148.543 138.488 146.089 133.646 142.834 129.261C139.626 124.94 135.722 121.135 131.703 117.576C128.262 114.529 124.581 111.778 121.071 108.815C121.108 109.011 121.116 109.227 121.084 109.465C120.337 114.928 117.488 120.016 113.518 123.8C105.542 131.403 93.7347 132.98 83.5257 129.415C73.6497 125.967 64.9191 117.8 61.8344 107.694C61.7816 107.521 62.0131 107.452 62.1061 107.579C62.2772 107.814 62.4492 108.048 62.6214 108.283C62.6097 108.19 62.6581 108.088 62.7731 108.044C66.3727 106.654 69.9067 104.682 72.6047 101.893C73.9197 100.533 75.0667 98.9929 75.9727 97.3319C76.4067 96.5359 76.7967 95.7119 77.1077 94.8599L77.1867 94.6399C77.5637 93.5729 77.8787 92.4859 78.6657 91.6409Z" fill="black"/>
<path fill-rule="evenodd" clip-rule="evenodd" d="M76.0577 7.67979L77.8827 9.85069C76.8727 10.563 75.9187 11.2787 75.0217 11.9978L75.0207 11.9957C79.1767 9.28319 83.7787 7.67979 88.7507 7.67979C98.3277 7.67979 117.78 15.9091 122.177 21.8449C124.359 24.7907 128.414 33.8339 130.518 43.6654C132.208 51.5649 134.722 73.8819 132.208 82.2679C128.991 93.0009 118.406 102.92 107.492 102.92C96.5777 102.92 79.6327 95.0369 67.5737 77.7629C67.0217 76.9739 60.6893 76.0579 56.1718 73.0929L57.3579 86.1649L58.2593 93.7689L58.0604 94.3099C54.825 103.063 52.2611 107.63 50.3688 108.01C48.4379 108.398 44.5055 105.231 38.5717 98.5109L37.8135 95.3269C35.8877 87.2059 34.9248 82.8459 34.9248 82.2489L34.9261 82.1399C34.9545 80.7659 35.4278 72.9859 35.4376 70.8929L35.4377 39.5148C41.8193 18.2915 47.9091 7.67979 53.7072 7.67979H76.0577Z" fill="white"/>
<path fill-rule="evenodd" clip-rule="evenodd" d="M60.9377 0.451889C62.814 -0.275111 64.9877 -0.137711 66.7687 0.957089C70.2657 0.806989 73.7427 2.85289 75.5657 5.83929C75.6037 5.88149 75.6447 5.92379 75.6797 5.96609L76.0667 6.41659C76.4327 6.84679 76.8187 7.32089 77.1237 7.81049C75.6267 7.84479 74.3787 8.45539 73.5077 9.68859C72.8867 10.5685 74.3097 11.4047 74.9457 10.5725L74.9677 10.542C75.4907 9.80169 76.2797 9.51489 77.1587 9.49989C77.4107 9.49559 77.6017 9.39899 77.7377 9.25659C77.7907 9.45289 77.8397 9.65139 77.8837 9.85069C82.3077 8.12919 87.0777 7.67339 91.8277 8.08169C91.6197 8.41899 91.4457 8.78039 91.3117 9.16019C91.1597 9.59069 91.4837 10.0851 91.9017 10.2001C92.3537 10.3243 92.7627 10.0593 92.9257 9.64959L92.9407 9.60949C93.1237 9.09219 93.4217 8.64809 93.8217 8.30379C96.0587 8.60709 98.2787 9.08939 100.445 9.71119C103.049 10.4592 105.627 11.372 108.15 12.4171C107.722 12.5847 107.353 12.8679 107.095 13.3407C106.579 14.2844 107.997 15.1297 108.535 14.2275L108.554 14.1942C108.607 14.0974 108.654 14.0392 108.688 14.0061L108.7 13.9949L108.775 13.9606L108.913 13.9209L108.967 13.9078C109.013 13.8972 109.033 13.8979 109.156 13.8911C109.321 13.8818 109.485 13.8826 109.65 13.8824C110.037 13.8822 110.284 13.6664 110.396 13.3904C111.64 13.9524 112.869 14.5442 114.076 15.164L114.363 15.3126C118.089 17.2599 121.618 19.8172 123.665 23.58C123.801 23.8315 123.843 24.1063 123.809 24.3683C124.246 24.8925 124.669 25.4336 125.075 25.9831C126.313 27.6654 127.219 29.5781 128.077 31.4739C129.803 35.2867 130.965 39.203 131.871 43.2863C132.748 47.2217 133.456 51.1993 134.113 55.1769C134.842 59.5959 135.448 64.0539 135.575 68.5359C135.799 76.5279 134.237 84.5649 129.752 91.2929C125.751 97.2949 119.726 102.061 112.58 103.587C105.313 105.138 97.6227 103.625 91.8947 98.7809C90.9717 98.0009 91.0987 96.4259 91.8947 95.6269C92.7967 94.7269 94.1277 94.8519 95.0467 95.6269C100.441 100.19 108.292 100.894 114.79 98.5689C120.799 96.4179 125.506 91.4549 128.394 85.8819C131.918 79.0849 132.511 71.2779 131.97 63.7579C131.675 59.6279 131.06 55.532 130.426 51.4423L130.043 48.9806C129.626 46.3142 129.188 43.6515 128.616 41.0122L128.482 40.3973C127.783 37.2146 126.964 33.9503 125.698 30.9583C125.035 29.3879 124.236 27.8746 123.419 26.3804C123.26 26.0909 123.097 25.7971 122.93 25.5012C122.706 25.5794 122.451 25.5921 122.182 25.5075C119.873 24.7889 117.501 24.3071 115.086 24.1464C113.986 24.0729 112.884 24.0615 111.784 24.1044C109.9 23.9947 107.963 24.1604 106.169 24.7382C105.993 24.5875 105.815 24.44 105.637 24.2925C105.589 24.2887 105.541 24.2836 105.493 24.2741C105.035 24.1841 104.714 23.8586 104.52 23.4475C104.509 23.4257 104.5 23.404 104.492 23.3822C104.262 23.2066 104.03 23.0337 103.797 22.8631C103.227 23.0108 102.728 22.5368 102.594 22.0173C102.467 21.9317 102.338 21.8488 102.21 21.7649C102.11 21.7895 102.01 21.8097 101.913 21.8169C101.494 21.8471 101.089 21.7829 100.717 21.5828C100.246 21.3293 99.9457 20.9206 99.7447 20.4563C99.0327 20.5 98.3127 20.269 97.6767 19.8514C97.1607 19.5126 96.7647 19.0449 96.3717 18.578C91.5807 16.4402 86.3727 15.178 81.1517 14.8546C80.6377 14.9535 80.1267 15.0713 79.6227 15.2082C79.5037 15.2408 79.3337 15.3046 79.1387 15.3811C80.3027 15.2403 81.4817 15.2264 82.6777 15.3986C88.3507 16.2193 92.7697 20.4687 96.5727 24.4799C97.4767 24.2971 98.3917 25.4691 97.5547 26.2451L91.0267 32.2963C91.1867 32.9731 90.4107 33.6401 89.7317 33.4775C88.5917 33.2036 87.4507 32.9373 86.3077 32.6755C85.1167 33.2522 83.6187 33.1535 82.5377 32.3174C82.4877 32.2786 82.3777 32.2164 82.2827 32.1547C82.1947 32.228 82.0747 32.3016 82.0277 32.3329C81.6437 32.5873 81.1747 32.6622 80.7257 32.5907C80.2647 32.5174 79.8477 32.283 79.4877 31.9911C79.2597 31.8052 78.7267 31.0294 78.4297 30.9723L78.4007 30.969C78.5987 30.9747 77.9627 31.5663 77.7917 31.6887C77.3927 31.9734 76.9517 32.123 76.4557 32.0685C75.5907 31.9733 74.8467 31.1847 74.4237 30.4566L74.3917 30.4007L74.3787 30.366L74.3677 30.4035C74.3657 30.4102 74.3627 30.4173 74.3597 30.4252C74.2967 30.5966 74.0977 30.7915 73.9627 30.9113C73.5767 31.2522 73.0997 31.4021 72.5907 31.3131C72.1587 31.238 71.7967 30.9773 71.5047 30.6619L71.4597 30.6116C71.3737 30.5143 70.8047 29.7506 70.8947 29.5676L70.9047 29.5521L70.8767 29.5462C70.5307 29.6312 70.2407 29.546 70.0287 29.3678C68.8427 29.1079 67.6717 28.805 66.5387 28.4199C66.4497 28.6693 66.3627 28.9187 66.2787 29.1702C66.8977 29.5528 67.4697 30.0981 67.9957 30.4869C68.9937 31.2224 69.9907 31.9579 70.9857 32.6956L74.9287 35.605L75.3787 35.4839C75.9557 35.3292 76.4497 35.6647 76.6607 36.1775L76.6787 36.2219C76.7627 36.4466 76.8637 36.6544 76.9817 36.8532C77.9677 36.8139 78.8017 37.4192 79.0717 38.2875C79.3157 38.282 79.5607 38.2913 79.8127 38.3189C80.5007 38.3946 80.9657 38.9061 80.8407 39.6084L80.8307 39.6566L80.8147 39.7348C81.2137 39.9043 81.5027 40.2317 81.5667 40.7266C81.6737 40.8875 81.7607 41.0625 81.8157 41.2574C82.1037 42.2685 81.5427 43.5184 81.2447 44.487L81.2217 44.5629C81.0307 45.1995 80.8317 45.833 80.6317 46.4662L80.1317 48.0384C78.7467 52.4202 77.3967 57.04 78.5177 61.6339C78.7567 62.6059 77.5137 63.0459 76.9747 62.2849C75.6687 60.4429 74.2577 58.7069 72.7767 57.0404L72.7047 57.0289C71.6667 56.8203 71.2637 56.0872 70.7877 55.3398C70.5077 55.4225 70.2057 55.4419 69.9137 55.3857C69.4917 55.3043 69.1137 55.0632 68.8157 54.7586C68.5627 54.5004 68.3307 53.838 68.0317 53.6738C67.6577 53.4685 66.9057 53.7619 66.4597 53.6959C66.0967 53.6425 65.7567 53.5178 65.4287 53.3612C64.8236 54.1856 64.4228 55.1549 64.3246 56.1998C64.2863 56.5972 64.168 56.9332 63.9969 57.2119C64.6265 57.1889 65.2577 57.2329 65.8817 57.3499C68.1887 57.7789 69.8427 59.2029 70.7727 61.3249C70.8127 61.4179 70.6917 61.4939 70.6367 61.4049C69.2577 59.2809 66.2557 59.1739 64.0751 59.9219C61.7596 60.7159 60.4603 62.7559 59.9978 65.0829C59.4908 67.6339 60.1413 70.3839 61.5295 72.5559C62.1736 73.5669 63.0527 74.4879 64.2208 74.8599C65.6087 75.3019 66.8917 74.5109 68.3127 74.9189C69.2807 75.1959 69.7077 76.1319 69.5317 77.0689C69.4627 77.4359 69.3337 77.7579 69.1607 78.0369C69.6717 79.0509 70.1447 80.0949 70.7467 81.0549C71.6767 82.5359 72.8007 83.7619 74.0257 84.9989C75.2917 86.2749 76.5797 87.5259 77.9347 88.7099C79.2317 89.8449 80.7187 90.6519 82.0797 91.6919C83.0347 92.4209 83.5077 93.4439 83.0367 94.6149C82.6477 95.5829 81.3377 96.4069 80.2767 95.9699C78.2467 95.1329 76.4697 93.7079 74.8517 92.2409C73.3517 90.8799 72.0457 89.2529 71.0597 87.4859C70.1287 85.8199 69.4427 83.9289 68.8647 82.1059L68.7927 81.8789C68.5197 81.0119 68.2327 80.0379 68.0467 79.0549C66.9337 79.6639 65.4227 79.7529 64.2316 79.5879C62.3068 79.3239 60.5511 78.3539 59.2244 76.9399C58.606 76.2819 58.0594 75.5309 57.5875 74.7179C57.6303 75.2129 57.6559 75.6919 57.6834 76.1279C58.7864 77.3369 59.2288 79.0809 58.8373 80.6719C59.7601 81.6219 60.0187 83.0489 59.537 84.2629C60.5471 85.2649 60.5091 86.8599 60.0724 88.3079C61.2665 89.6439 61.3795 91.7229 60.4472 93.2299L60.4191 93.3379C61.3605 94.9139 61.1482 96.9509 59.9686 98.3419C60.7742 99.9049 60.6496 102.008 58.6364 102.614C57.9027 102.835 57.1915 102.647 56.6594 102.235C57.1453 104.653 57.3627 107.107 56.7147 109.536C56.4567 110.5 55.5145 111.204 54.5237 111.204C53.6955 111.204 53.0934 110.787 52.6774 110.175C52.726 111.394 52.652 112.62 52.3922 113.856C52.2354 114.603 51.5431 115.185 50.8081 115.366C51.0732 115.665 51.1789 116.097 50.9247 116.548C49.847 118.456 47.2432 117.665 47.0672 115.836C46.3318 115.287 45.9899 114.386 45.8484 113.411C45.6422 111.991 45.5674 110.593 45.3337 109.191L45.2444 109.275L45.1983 109.314L45.1835 109.416C45.0496 110.109 44.6587 110.595 44.1515 110.884C44.2618 112.093 44.0577 113.325 43.2908 114.243C42.7799 114.855 41.9097 115.096 41.1637 114.964C41.1168 114.966 41.0689 114.966 41.019 114.959C39.3295 114.734 38.352 113.131 38.7967 111.66C38.1164 110.826 37.8299 109.768 38.0313 108.722C36.7149 107.85 36.7417 105.935 37.1976 104.396C35.8176 103.307 35.2985 101.27 35.9919 99.6509C34.7482 98.1059 34.5751 95.9529 35.4202 94.1929C34.0518 93.0689 34.0596 90.8979 35.4168 89.7469C34.6941 88.3119 34.2582 86.5919 34.9806 85.2789C34.471 84.7159 34.1913 83.9139 34.2502 83.1389C34.3366 82.0019 35.0891 81.2149 36.0229 80.6909L36.0876 80.3349C36.3069 80.3629 36.5406 80.3009 36.7465 80.1039C36.9504 79.9079 37.1602 79.7499 37.3772 79.6199C37.6229 79.6159 37.8344 79.5069 37.9831 79.3389C38.39 79.1999 38.8275 79.1389 39.3128 79.1339C40.3609 79.1219 40.3979 77.5539 39.4225 77.4529C39.2684 77.2969 39.0563 77.1989 38.8263 77.1989L38.6461 77.1999C38.2249 77.2039 37.7997 77.2299 37.4089 77.3979C37.1549 77.5059 36.9591 77.6699 36.8156 77.8709C36.7888 78.1739 36.624 78.4759 36.2672 78.7249C35.855 79.0139 35.2913 79.0469 34.8502 78.7869C34.2327 78.4209 34.2263 77.8509 34.2975 77.2319C34.4534 75.8759 33.6743 74.5999 33.8598 73.2129C33.942 72.5999 34.146 72.0709 34.4788 71.6429C33.7772 70.5929 33.6534 69.2359 34.1936 68.0829C33.0682 66.8719 32.8736 65.0049 33.5913 63.5469C33.6016 63.5119 33.6096 63.4759 33.6208 63.4409C33.702 63.1929 33.8137 62.9699 33.9369 62.7559C33.3069 61.6639 33.3115 60.3239 33.9519 59.2369C32.982 58.1059 32.9511 56.3059 33.8137 55.0873C33.8188 54.9862 33.8294 54.8852 33.838 54.7842C33.4421 53.756 33.5372 52.587 34.0394 51.6308C33.8602 51.2177 33.722 50.7728 33.6337 50.2989C33.4075 49.0773 33.5239 47.8895 33.8619 46.6975C33.9166 46.5094 33.9779 46.3213 34.0434 46.1332C34.0544 45.3168 34.0854 44.5039 34.1264 43.6925C33.9658 43.0057 33.9399 42.2509 33.9363 41.5502L33.9353 41.0958C33.9274 39.9395 33.8469 38.2464 34.5777 37.2635C34.1084 36.2016 34.3013 34.8638 35.0845 34.0222C34.5348 33.0764 34.4194 31.915 34.9719 30.8657C35.0606 30.6968 35.1635 30.5396 35.2763 30.3908C35.2307 29.4298 35.4329 28.4387 35.9448 27.4837C36.2773 26.8619 36.774 26.3235 37.3645 25.8928C37.3546 25.7654 37.3484 25.6381 37.3506 25.5128C37.3609 24.9536 37.4849 24.392 37.6937 23.8681C37.3191 23.2285 37.1454 22.5076 37.3645 21.7307C37.6096 20.8515 38.2541 20.0948 39.0589 19.6679C39.1237 18.839 39.2532 18.0149 39.4383 17.2019C38.9437 16.1001 39.3375 14.646 40.4553 13.997C40.3096 13.1165 40.441 12.2034 41.0815 11.5157C41.3243 11.2551 41.6103 11.0575 41.9182 10.9265C41.7699 10.0411 41.9372 9.12009 42.5492 8.39909C43.0491 7.81049 43.7898 7.45289 44.5436 7.40029C44.8339 5.86039 46.3045 4.70899 47.856 4.80069C48.05 4.12269 48.5133 3.53149 49.232 3.23179C49.416 3.15509 49.602 3.10459 49.7872 3.07649C51.0489 1.80329 52.9273 0.94039 54.5534 0.49839C56.1846 0.0568902 57.8381 0.0141888 59.2385 0.527489L59.3406 0.56609L59.4546 0.551289C59.9492 0.496289 60.4434 0.464589 60.9377 0.451889ZM48.5429 104.803C48.1072 104.667 47.6213 104.964 47.5032 105.394C47.3786 105.848 47.6562 106.297 48.0935 106.434C48.6383 106.604 49.2107 106.646 49.7786 106.646C50.2351 106.647 50.6236 106.258 50.6236 105.801C50.6236 105.342 50.2368 104.956 49.7786 104.956C49.3167 104.955 48.9757 104.938 48.5429 104.803ZM44.6673 95.8249C44.0159 95.8259 43.4573 95.9819 42.9744 96.4379C42.6524 96.7429 42.6444 97.3309 42.9744 97.6339C43.3077 97.9399 43.7913 97.9579 44.1334 97.6659L44.1993 97.6069C44.2072 97.5999 44.2134 97.5939 44.2183 97.5889C44.2458 97.5719 44.2735 97.5539 44.3026 97.5379L44.2475 97.5739C44.2055 97.6049 44.3029 97.5549 44.3575 97.5319L44.3747 97.5249L44.3802 97.5239L44.4239 97.5199C44.5048 97.5159 44.5861 97.5159 44.6673 97.5159C45.1092 97.5159 45.5326 97.1279 45.5123 96.6709C45.4916 96.2129 45.1409 95.8249 44.6673 95.8249ZM56.9582 90.4619C57.873 89.9009 57.0559 88.4649 56.1385 88.9819L56.1053 89.0019C55.635 89.2899 55.0566 89.2509 54.5238 89.2509C53.4364 89.2519 53.4345 90.9429 54.5238 90.9419H54.7038C55.4849 90.9359 56.2749 90.8809 56.9582 90.4619ZM49.7599 84.2899C49.0688 84.1599 48.2947 84.0439 47.5675 84.1229L47.4468 84.1389H47.223C47.0287 84.1389 46.8404 84.2169 46.6894 84.3399C46.4502 84.4389 46.2237 84.5719 46.0171 84.7509C45.1938 85.4649 46.3936 86.6569 47.2123 85.9469C47.2577 85.9069 47.3105 85.8749 47.3692 85.8479L47.4142 85.8289H48.3182C48.4004 85.8289 48.4805 85.8119 48.5585 85.7869C48.8519 85.8279 49.1253 85.8859 49.3106 85.9209C50.3737 86.1209 50.8292 84.4919 49.7599 84.2899ZM48.9881 68.0629C47.6635 67.4479 46.1964 67.4529 44.9713 68.3059C44.0952 68.9169 44.909 70.3559 45.7926 69.7869L45.8242 69.7659C45.934 69.6899 46.0468 69.6259 46.1609 69.5679C46.7829 69.7469 47.4089 69.7559 48.0102 69.5349L48.0885 69.5049L48.1352 69.5229C49.1155 69.9779 49.9749 68.5209 48.9881 68.0629ZM63.4123 65.4139C62.0741 65.2639 62.0634 63.1489 63.4123 63.2999C66.2607 63.6199 68.8447 64.8859 70.7377 67.0619C71.6177 68.0729 70.1677 69.5529 69.2707 68.5869L69.2437 68.5559C67.7387 66.8259 65.7077 65.6709 63.4123 65.4139ZM48.421 54.5561C48.1235 54.5236 47.8267 54.5073 47.5345 54.5215C46.8327 54.5553 45.9779 55.0236 46.2859 55.8699C46.5329 56.5479 47.3424 56.5748 47.7422 56.2131C47.9084 56.2171 48.0745 56.2281 48.2399 56.245C48.6812 56.2905 49.1184 56.3746 49.5534 56.4604C50.6158 56.6694 51.0707 55.0401 50.0027 54.8298L49.5304 54.7363C49.3712 54.7052 49.2106 54.6747 49.0493 54.6468C48.9528 54.5988 48.8493 54.5665 48.7386 54.5582L48.6827 54.5561H48.421ZM40.024 41.4387L39.9248 41.4252C38.4977 41.2426 36.2068 41.4106 36.0336 43.228C35.9379 44.2344 37.3914 44.2976 37.6783 43.437C38.7321 43.247 39.7946 43.2106 40.8412 43.326C41.2405 42.9202 41.2437 42.1402 40.579 41.9455C40.4852 41.6932 40.2894 41.4769 40.024 41.4387ZM72.6457 38.3692C72.3157 38.0664 71.7747 38.0262 71.4507 38.3692C71.2637 38.5666 71.1067 38.786 70.9837 39.0274L70.9017 39.1904C70.8877 39.2174 70.8727 39.2443 70.8587 39.2709C70.8307 39.3201 70.7997 39.367 70.7697 39.4148L70.7487 39.4348C70.7407 39.443 70.7317 39.4528 70.7197 39.4649C70.4157 39.7863 70.3777 40.3458 70.7197 40.6605C71.0497 40.9634 71.5907 41.0035 71.9157 40.6605C72.1017 40.4631 72.2577 40.2439 72.3817 40.0023L72.4637 39.8395C72.4777 39.8125 72.4917 39.7856 72.5067 39.7591C72.5347 39.7096 72.5657 39.6627 72.5957 39.6149L72.6297 39.5814C72.6347 39.5764 72.6397 39.5709 72.6457 39.5648C72.9497 39.2436 72.9877 38.6839 72.6457 38.3692ZM55.3156 36.1676C54.1249 35.3235 52.709 35.2842 51.6144 36.2997C50.8245 37.0327 51.9851 38.2071 52.7816 37.5203L52.8095 37.4953C52.8385 37.4683 52.8678 37.4446 52.897 37.422C53.0398 37.5437 53.2213 37.6208 53.4288 37.6211C53.483 37.6212 53.5371 37.6211 53.5912 37.6222L53.6723 37.6251L53.7159 37.6287L53.7214 37.6297L53.7594 37.6459C53.8289 37.6773 53.9248 37.7257 53.7932 37.6433C53.8226 37.6587 53.85 37.6769 53.8779 37.6946L53.9265 37.7388C54.2451 38.0402 54.7963 38.0799 55.1126 37.7466C55.6726 37.5572 55.9699 36.6311 55.3156 36.1676ZM66.9577 33.3979L66.9787 33.3911C68.0227 33.0929 67.5787 31.461 66.5297 31.7605C65.4157 32.0786 64.8841 33.1153 64.6614 34.1771C64.5678 34.6237 64.7924 35.091 65.2517 35.2172C65.6717 35.3324 66.1967 35.0756 66.2917 34.6267C66.3577 34.311 66.4337 34.0432 66.5547 33.7946L66.6277 33.6527C66.6617 33.5881 66.6737 33.5773 66.7887 33.4767C66.8077 33.4598 66.8957 33.4188 66.9577 33.3979ZM49.2729 24.8824L49.1096 24.8451C48.0925 24.6222 46.7424 24.5058 46.1282 25.5145C45.5683 26.4335 46.9807 27.27 47.5623 26.4013C47.5711 26.401 47.5813 26.4011 47.5932 26.4021L47.6123 26.4043L47.873 26.3832C48.1978 26.3808 48.5085 26.4383 48.8235 26.5129C49.8811 26.7634 50.3326 25.1334 49.2729 24.8824ZM85.7867 18.3825C86.5577 17.6121 85.3627 16.4161 84.5927 17.1871C83.9827 17.7964 83.3957 18.41 82.9997 19.1841C82.7917 19.5904 82.8937 20.1014 83.3027 20.3409C83.6807 20.5617 84.2507 20.4455 84.4587 20.0376C84.8027 19.3665 85.2357 18.935 85.7867 18.3825ZM76.0697 16.3603C75.3097 16.8109 74.8167 17.5531 74.5177 18.4123C74.3677 18.8434 74.6887 19.3369 75.1077 19.4521C75.5587 19.576 75.9707 19.3119 76.1327 18.9018L76.1477 18.8616C76.2277 18.6319 76.3557 18.3605 76.5137 18.1557C76.6487 17.9809 76.8597 17.8059 77.0177 17.7478C77.3987 17.6079 77.6687 17.2625 77.6337 16.8593C77.0067 17.0759 76.4257 16.8153 76.0697 16.3603ZM53.2963 12.6828C52.5288 11.9701 51.4991 11.8756 50.5687 12.307C50.1544 12.4989 50.0506 13.0964 50.2655 13.4637C50.514 13.8888 51.006 13.9598 51.4216 13.767C51.3149 13.8165 51.5075 13.7512 51.5908 13.7273C51.6014 13.7322 51.7409 13.7259 51.7891 13.7266L51.8469 13.7302C51.8474 13.7306 51.8332 13.7303 51.8044 13.7294C51.8449 13.7386 51.885 13.7495 51.9245 13.7621L51.9749 13.7795C51.9495 13.7743 52.0637 13.8487 52.0954 13.8734L52.1012 13.8782C52.8977 14.6177 54.0958 13.4248 53.2963 12.6828Z" fill="black"/>
<path fill-rule="evenodd" clip-rule="evenodd" d="M114.618 77.8479C115.343 76.5689 117.506 76.7769 117.837 78.2689C118.507 81.2939 114.901 84.0879 112.162 84.1579C109.441 84.2269 106.387 81.9089 106.781 78.9819C106.878 78.2579 107.845 78.3459 108.175 78.7999L108.303 78.9739C109.198 80.1769 110.379 81.4219 112.04 81.1289C112.729 81.0079 113.354 80.5769 113.77 80.0229C114.272 79.3549 114.217 78.5569 114.618 77.8479ZM97.3117 55.7154C97.6807 55.6137 98.0527 55.653 98.3797 55.7921C99.1087 55.9259 99.7187 56.5346 99.9327 57.2299C99.9497 57.2899 99.9687 57.3489 99.9897 57.4079L100.022 57.4959L99.9347 57.2729C99.9747 57.4919 100.154 57.7229 100.218 57.9429C100.297 58.2139 100.316 58.5209 100.289 58.8189C100.521 58.8219 100.753 58.8299 100.985 58.8499L101.209 58.8699C102.46 58.9859 103.834 59.1989 104.576 60.2809C104.992 60.8889 104.601 61.9829 103.836 62.0999C102.658 62.2809 101.643 61.6279 100.468 61.4979C99.3577 61.3739 98.1967 61.4449 97.1007 61.6459C94.8387 62.0589 92.7607 62.9759 90.5557 63.5519L90.2557 63.6279L90.2567 63.6269C89.8787 63.7179 89.4497 63.1929 89.8237 62.8849C91.5897 61.4339 93.8507 60.2579 96.0777 59.5419C95.7537 59.0249 95.6527 58.3449 95.8747 57.7909C95.9087 57.6759 95.9517 57.5639 95.9967 57.4529L96.0907 57.2239C96.0997 57.1159 96.1207 57.0088 96.1507 56.9042L96.1547 56.8723L96.1577 56.8742C96.3237 56.3351 96.7567 55.8684 97.3117 55.7154ZM119.842 55.7989C120.325 55.3155 121.004 55.3869 121.508 55.7673L121.575 55.8198C122.05 56.0309 122.443 56.4923 122.701 56.9199C122.969 57.3639 123.147 57.8159 123.154 58.3049C124.323 58.3089 125.443 58.6599 126.302 59.6039C126.579 59.9089 126.768 60.3789 126.616 60.7919L126.525 61.0379C126.237 61.8179 124.941 62.2679 124.5 61.3499L124.48 61.3049C124.012 60.2149 122.216 60.3299 121.261 60.4409C120.595 60.5189 119.938 60.6849 119.295 60.8699C119.069 60.9349 118.845 61.0059 118.62 61.0779L118.396 61.1509C118.277 61.1899 117.654 61.5279 118.041 61.4479C118.145 61.4269 118.224 61.5779 118.118 61.6289C117.656 61.8499 117.163 61.4099 117.194 60.9139C117.247 60.0529 118.615 59.5799 119.273 59.2829L119.312 59.2649C119.564 59.1489 119.829 59.0369 120.101 58.9329C119.948 58.7049 119.821 58.4509 119.716 58.1789C119.616 57.9219 119.55 57.6719 119.513 57.3989C119.477 57.2649 119.477 57.1319 119.513 56.9978L119.519 56.9596C119.5 56.8712 119.491 56.7799 119.492 56.688L119.489 56.6523H119.492C119.505 56.3304 119.633 56.0079 119.842 55.7989ZM112.125 64.9729C113.981 65.5459 117.042 67.1089 116.075 69.5199C114.725 71.7349 111.144 70.1079 109.409 69.3919C107.85 68.8749 107.038 71.0609 108.546 71.7199C121.002 76.6489 120.956 63.6389 112.577 63.8299C111.654 63.8509 111.625 64.7819 112.125 64.9729ZM95.6447 48.008L95.9617 47.9155C97.6057 47.439 99.2847 46.616 100.746 47.9001C101.319 48.4044 101.437 49.4523 101.027 50.0813C100.092 51.5144 98.7057 51.2955 97.1967 51.4176C96.0467 51.5106 94.9147 51.8484 93.8417 52.2704C92.9657 52.6156 92.1517 53.1015 91.3847 53.6434C90.6297 54.1762 90.1147 55.0091 89.3407 55.4887C89.0577 55.6645 88.7297 55.4836 88.6287 55.1985C88.2677 54.1872 88.8767 52.9273 89.3927 52.0656C90.0227 51.0144 90.9797 50.1546 92.0077 49.5041C93.1347 48.7916 94.3797 48.3802 95.6447 48.008ZM119.611 46.9198C122.391 46.9189 125.066 48.4658 126.621 50.7334C127.149 51.5037 126.762 52.645 126.003 53.0886C125.152 53.5866 124.243 53.228 123.682 52.5145L123.649 52.4713C122.757 51.2833 121.607 50.3476 120.245 49.7385C119.58 49.4412 118.845 49.2 118.126 49.0776L117.893 49.0378C117.567 48.9832 117.19 48.931 116.895 48.9821C116.737 49.0028 116.592 49.055 116.459 49.1345C116.523 49.2748 116.357 49.4439 116.204 49.3598C115.513 48.9802 115.598 48.303 116.168 47.7768C116.976 47.0322 118.568 46.92 119.611 46.9198Z" fill="black"/>
</svg>
