<svg width="168" height="246" viewBox="0 0 168 246" fill="none" xmlns="http://www.w3.org/2000/svg">
<path fill-rule="evenodd" clip-rule="evenodd" d="M11.3375 241.278C38.9386 245.472 67.0405 245.683 94.8705 244.16C105.885 243.335 116.933 243.187 127.939 244.241C134.442 244.725 162.955 246.905 165.284 241.079C163.818 210.052 160.848 178.76 151.739 148.92C147.992 138.324 144.774 129.53 137.462 120.762C135.158 118.368 130.188 113.347 127.34 111.709C124.873 110.291 123.842 110.797 122.425 108.401C121.018 105.754 119.979 101.334 117.981 99.4669C115.945 97.5649 112.929 98.2449 109.191 98.8579C109.878 89.5729 105.594 87.2079 99.6915 85.4429C89.3165 81.4819 79.0715 83.4719 76.4605 96.1059C71.6185 96.1059 68.8995 98.1899 65.9595 100.193C64.7575 101.011 65.5935 103.097 64.1575 103.74C61.5019 104.686 56.8084 104.455 54.2511 105.619C42.6222 110.913 32.2647 118.591 25.4627 129.803C10.2134 153.742 -0.261788 204.169 1.55091 232.542C0.756712 233.788 1.85501 235.575 2.13411 236.914C2.48651 238.08 3.62751 238.855 4.81841 238.722C6.48021 240.51 9.05061 240.908 11.3375 241.278Z" fill="white"/>
<path fill-rule="evenodd" clip-rule="evenodd" d="M125.583 111.007C125.413 110.913 125.563 110.671 125.733 110.751C133.918 114.592 140.198 121.332 144.616 129.119C149.192 137.183 151.799 146.337 154.047 155.285L154.129 155.609C156.526 165.181 158.564 174.852 160.399 184.546C162.258 194.364 163.749 204.242 164.949 214.161C165.543 219.066 166.072 223.979 166.485 228.902C166.691 231.362 166.879 233.824 167.047 236.287C167.114 237.272 167.178 238.257 167.232 239.243L167.271 239.982C167.305 240.653 167.384 241.326 167.219 241.988C167.076 242.558 166.774 243.074 166.508 243.598C165.983 244.633 164.543 244.463 163.977 243.598L163.813 243.346C163.438 242.766 163.126 242.227 163.008 241.505C162.894 240.805 162.89 240.072 162.839 239.366C162.745 238.067 162.665 236.766 162.573 235.466C162.382 232.729 162.166 229.994 161.928 227.261C161.457 221.867 160.951 216.476 160.33 211.096C159.227 201.535 157.843 191.999 156.211 182.513C154.616 173.247 152.6 164.075 150.497 154.915L150.279 153.967C146.597 137.973 140.922 119.555 125.583 111.007ZM38.3951 173.635C38.4553 173.475 38.7143 173.438 38.7581 173.635C39.3095 176.119 39.364 178.677 39.4483 181.219C39.5313 183.728 39.5279 186.248 39.4914 188.757C39.3566 197.981 39.1035 207.197 38.8846 216.42C38.7752 221.033 38.6725 225.647 38.5937 230.261C38.5639 231.991 38.5389 233.721 38.5181 235.452L38.4926 237.734C38.4799 238.743 38.4535 239.74 38.3305 240.748C38.2493 241.411 38.0765 242.044 37.7106 242.612C37.4509 243.015 37.0808 243.22 36.7201 243.494L36.6526 243.547C36.1924 243.91 35.7078 243.913 35.2521 243.547L35.1198 243.442C34.6844 243.101 34.3082 242.835 34.0303 242.297C33.6437 241.548 33.5818 240.734 33.5161 239.909C33.4164 238.658 33.4825 237.388 33.4954 236.134C33.5212 233.616 33.556 231.1 33.6002 228.583C33.7622 219.353 34.0825 210.121 34.6662 200.908C34.9412 196.568 35.3141 192.214 35.8143 187.892L35.9095 187.082C36.0612 185.81 36.1996 184.516 36.3555 183.217C34.028 181.58 31.9821 179.593 30.2374 177.338C30.109 177.172 30.3205 176.94 30.4755 177.1C32.2582 178.947 34.3022 180.419 36.5651 181.576C36.9359 178.858 37.4457 176.155 38.3951 173.635ZM77.2795 91.3599C77.3115 91.3349 77.3615 91.3239 77.3915 91.3599C77.8925 91.9429 77.7905 92.8349 77.8065 93.5749L77.8085 93.6429C77.8445 94.7239 77.8515 95.8019 77.8475 96.8839L77.8365 100.327C77.8345 100.8 77.7965 101.293 77.8205 101.769L77.8335 101.954C78.0965 102.223 78.2185 102.612 78.1295 103.003C78.1135 103.504 77.8515 103.922 77.4695 104.185L78.2885 105.348L79.1085 106.51C80.7975 108.907 82.5065 111.284 84.2875 113.616C86.1025 115.993 88.0395 118.281 90.0665 120.481C91.0565 121.556 92.0635 122.616 93.0945 123.652C93.5135 124.073 93.9425 124.484 94.3665 124.899L94.7895 125.317C95.0385 125.566 95.3525 125.813 95.5185 126.129C95.6155 126.316 95.6375 126.776 95.6725 126.852C95.9855 127.54 95.4515 128.636 94.5655 128.293L94.6055 128.266C94.7675 128.154 94.6635 128.152 94.2955 128.261C94.0625 128.26 93.8445 128.207 93.6415 128.101L93.5805 128.068C93.2945 127.922 93.0385 127.64 92.8055 127.414L92.7475 127.359C92.2145 126.86 91.7075 126.331 91.1965 125.809C90.1315 124.72 89.0905 123.608 88.0815 122.466C86.0705 120.189 84.1635 117.818 82.3585 115.374C80.5185 112.885 78.8095 110.268 77.3395 107.544C76.7815 106.51 76.2695 105.456 75.7795 104.39C74.8245 104.084 74.6035 103.068 74.6695 101.924C74.3175 101.104 74.0005 100.266 73.8125 99.4109C73.7875 99.2939 73.9375 99.1829 74.0275 99.2859C74.3335 99.6329 74.6155 100.002 74.8875 100.381C75.0515 99.5789 75.2585 98.8409 75.3565 98.3699L75.7795 96.2929C73.3955 96.1689 70.7825 97.1489 69.1385 98.8639C69.0505 99.3109 68.7065 99.6309 68.3715 100.049C67.9885 100.526 67.6545 101.062 67.4055 101.622C66.8525 102.864 67.1645 104.694 66.0925 105.605C65.9805 105.7 65.8555 105.766 65.7275 105.807C66.2355 108.302 66.0045 111.052 65.9935 113.584V113.807C65.9955 116.64 65.9015 119.476 65.7915 122.308L65.6805 125.11C65.5365 128.847 65.4425 132.586 65.8055 136.302C67.4625 134.834 69.1765 133.432 70.9495 132.097C72.1155 131.219 73.3045 130.372 74.5145 129.557L75.4985 128.9C76.6775 128.109 77.8845 127.295 79.1755 126.729C80.8635 125.989 82.4685 126.243 84.0975 127.002C85.7205 127.759 87.2955 128.637 88.8875 129.457C90.5065 130.291 92.1295 131.117 93.7505 131.946C94.8245 132.495 96.3985 132.991 97.1865 134.002C97.2365 133.778 97.2955 133.555 97.3635 133.333C97.2855 132.994 97.3155 132.628 97.5055 132.279C100.153 127.413 102.603 122.431 105.035 117.455C106.266 114.937 107.436 112.389 108.67 109.872L109.869 107.421C110.069 107.012 110.27 106.604 110.472 106.197C110.774 105.587 111.089 104.983 111.395 104.374C111.525 104.117 111.687 103.862 111.813 103.603L111.872 103.472C111.875 103.466 112.166 102.552 111.941 102.639L111.922 102.648C111.807 102.713 111.716 102.569 111.79 102.477C112.107 102.084 112.549 102.432 112.73 102.795C113.229 103.795 112.315 105.365 111.963 106.322L111.944 106.376C110.853 109.465 109.617 112.497 108.351 115.519C105.924 121.311 103.317 127.015 100.715 132.728L100.684 132.826C101.239 132.401 101.831 132.015 102.338 131.639C103.618 130.691 104.935 129.789 106.25 128.89C108.662 127.242 111.138 125.703 113.656 124.224L114.16 123.929C115.418 123.196 116.664 122.602 118.157 122.822C119.543 123.026 120.833 123.772 122.086 124.377L122.215 124.439L126.087 126.28C125.673 124.629 125.225 122.986 124.757 121.349C123.845 118.156 122.842 114.99 121.754 111.853C120.738 108.921 119.639 106.021 118.477 103.145L118.127 102.281C117.654 101.097 117.183 99.8059 115.829 99.4409C114.475 99.0759 112.923 99.6169 111.686 98.8449C111.574 98.7749 111.588 98.5899 111.724 98.5559L112.487 98.3629C113.92 98.0069 115.6 97.6479 116.955 97.9949C118.429 98.3729 119.649 99.6099 120.365 100.897C121.16 102.329 121.721 103.931 122.324 105.458L122.42 105.698C123.113 107.426 123.779 109.163 124.417 110.912C125.692 114.408 126.852 117.946 127.903 121.516C128.409 123.236 128.889 124.965 129.351 126.697C129.483 127.196 129.702 127.8 129.882 128.43C130.087 128.631 130.282 128.855 130.465 129.111C130.768 129.535 130.551 130.032 130.174 130.286C130.159 130.719 130.063 131.127 129.832 131.477C128.933 132.842 126.557 132.49 126.653 130.655C126.668 130.374 126.778 130.106 126.943 129.879L126.938 129.843L126.92 129.775C126.507 129.578 126.093 129.357 125.656 129.141L121.593 127.133C120.416 126.551 119.112 125.652 117.803 125.43C116.583 125.224 115.296 126.133 114.248 126.682L114.18 126.717C111.646 128.016 109.13 129.359 106.625 130.712C105.402 131.373 104.195 132.062 102.976 132.73C101.958 133.29 100.858 134.092 99.7125 134.408C99.2235 134.788 98.6425 134.737 98.1755 134.45C98.3885 135.772 98.3755 137.128 98.4415 138.48C98.5295 140.287 98.5425 142.099 98.5715 143.908L98.5835 144.586C98.6605 148.586 98.7015 152.587 98.7175 156.588C98.7715 170.835 98.6135 185.086 98.5775 199.333C98.5585 206.491 98.4165 213.655 98.2305 220.81C98.1515 223.842 97.9875 226.87 97.8095 229.898L97.7115 231.549C97.5035 235.033 97.3815 238.556 96.7365 241.993C96.6525 242.441 95.8945 242.453 95.8195 241.993C95.2265 238.31 95.1935 234.546 95.0795 230.82L95.0555 230.075C94.9185 226.074 94.8535 222.076 94.8675 218.073C94.9175 203.82 95.2885 189.577 95.5915 175.329C95.7435 168.17 95.8455 161.008 96.0825 153.851C96.2005 150.27 96.3345 146.692 96.4935 143.112C96.5645 141.514 96.6325 139.917 96.7395 138.322L96.7865 137.638C96.8195 137.192 96.8465 136.751 96.8785 136.314C95.4375 136.841 94.1195 135.866 92.8225 135.199C91.3275 134.43 89.8335 133.659 88.3385 132.892L86.8425 132.125L83.8475 130.597C82.4995 129.908 81.4605 129.223 80.0225 130.031C74.8415 132.938 70.0805 136.807 65.7665 140.867C64.9385 141.646 63.1907 141.437 62.9812 140.132C62.086 134.557 62.6304 128.902 63.0875 123.311L63.2559 121.235C63.4601 118.755 63.6825 116.276 63.9785 113.807C64.1115 112.702 64.2435 111.598 64.3895 110.496L64.5015 109.669C64.6845 108.362 64.8035 107.063 65.1925 105.81C65.0695 105.77 64.9515 105.705 64.8465 105.605C63.676 104.495 64.2405 102.568 64.7735 101.247C65.3015 99.9429 66.1045 98.8049 67.1115 97.8259C67.3315 97.6119 67.6405 97.4739 67.9515 97.4669C70.3925 95.8489 73.0705 95.0419 75.8565 95.9249C75.9355 95.5509 76.0145 95.1769 76.0995 94.8039L76.1845 94.4309C76.4015 93.5059 76.4815 91.9779 77.2795 91.3599ZM102.295 237.449C103.053 237.24 103.882 237.46 104.437 238.015C104.992 238.57 105.211 239.4 105.003 240.157C104.898 240.531 104.71 240.854 104.437 241.129C104.182 241.383 103.884 241.563 103.545 241.672L103.466 241.696L103.342 241.747C102.962 241.849 102.582 241.849 102.203 241.747C101.84 241.645 101.525 241.462 101.257 241.196C100.992 240.929 100.808 240.613 100.706 240.25C100.604 239.87 100.604 239.49 100.706 239.111L100.758 238.987C100.863 238.614 101.051 238.29 101.324 238.015C101.599 237.742 101.922 237.553 102.295 237.449ZM147.268 161.946C147.392 161.803 147.594 161.986 147.517 162.138C146.337 164.452 145.022 166.749 143.73 169.004C143.833 169.629 143.936 170.249 144.054 170.853C144.557 173.429 145.174 175.958 145.576 178.558C147.021 187.903 147.771 197.351 148.415 206.78C149.061 216.244 149.143 225.711 149.24 235.193C149.249 236.015 148.617 236.97 147.77 237.125C147.382 237.196 147.092 237.182 146.705 237.125C145.824 236.995 145.273 235.985 145.235 235.193C144.983 229.894 144.643 224.601 144.249 219.31C143.551 209.93 143.124 200.524 142.56 191.134L142.362 187.852C142.149 184.296 141.954 180.737 141.89 177.176C141.848 174.816 141.974 172.458 141.897 170.101C141.825 167.925 141.604 165.559 142.084 163.421C142.102 163.341 142.228 163.321 142.265 163.398C142.763 164.448 143.079 165.589 143.323 166.754C144.608 165.128 145.916 163.499 147.268 161.946ZM63.0988 104.471C63.2792 104.457 63.272 104.728 63.0988 104.748C60.5771 105.041 58.1411 106.068 55.7601 106.94L55.5561 107.014C53.1506 107.888 50.8053 108.903 48.5484 110.113C44.1356 112.479 40.0835 115.53 36.5008 119.023C22.1969 132.966 15.6783 153.073 10.9017 171.968C8.24781 182.466 6.36052 193.142 5.13732 203.899C4.53242 209.219 4.10481 214.559 3.85551 219.908C3.72791 222.649 3.64741 225.393 3.61381 228.137C3.59651 229.542 3.59142 230.948 3.59312 232.354C3.59402 232.998 3.70892 233.809 3.53672 234.434C3.37702 235.014 2.92661 235.524 2.59341 236.007C2.19861 236.579 1.48891 236.549 1.08861 236.007L0.940918 235.809C0.513918 235.243 0.0962169 234.701 0.0352169 233.96C-0.0300831 233.166 0.0160153 232.348 0.0130153 231.551C0.00621532 229.944 0.0261157 228.338 0.0582157 226.731C0.120116 223.653 0.241415 220.576 0.421615 217.502C0.787515 211.264 1.38982 205.038 2.25222 198.85C3.78522 187.849 6.08292 176.953 9.09262 166.262C11.9321 156.177 15.2959 146.121 20.0879 136.779C24.5372 128.105 30.3741 120.036 38.076 113.974C41.6577 111.155 45.5566 108.806 49.7602 107.036C51.8803 106.144 54.1066 105.416 56.3708 105C58.6098 104.59 60.8391 104.647 63.0988 104.471ZM102.729 219.622C103.129 219.619 103.575 219.707 103.918 219.928L104.377 220.283C104.501 220.442 104.624 220.603 104.748 220.763C105.034 221.137 105.072 221.742 105.012 222.187C104.999 222.484 104.911 222.761 104.748 223.017L104.399 223.469C104.063 223.743 103.783 223.938 103.377 224.07C103.165 224.139 102.96 224.153 102.756 224.142L102.688 224.138L102.729 224.144L102.658 224.136C102.591 224.13 102.525 224.123 102.458 224.114C102.413 224.108 102.367 224.104 102.322 224.098C102.278 224.095 102.236 224.093 102.191 224.097C101.675 224.146 101.156 223.853 100.789 223.516C100.459 223.213 100.163 222.57 100.209 222.114L100.229 221.923C100.263 221.602 100.292 221.475 100.428 221.153C100.56 220.839 100.745 220.561 100.997 220.327C101.478 219.879 102.068 219.627 102.729 219.622ZM101.131 196.102C101.816 195.355 102.993 195.3 103.843 195.752C104.05 195.863 104.24 196.039 104.423 196.187C104.883 196.559 105.063 197.23 105.089 197.795C105.114 198.354 104.819 199.018 104.423 199.404L104.327 199.497C104.09 199.728 103.751 199.928 103.419 199.989C102.885 200.087 102.436 200.084 101.939 199.874C101.511 199.694 101.143 199.404 100.892 199.01L100.852 198.944C100.834 198.916 100.818 198.888 100.803 198.859L100.781 198.816C100.305 197.9 100.433 196.863 101.131 196.102ZM101.486 172.459C101.795 172.362 102.104 172.348 102.413 172.417C102.623 172.418 102.818 172.471 102.999 172.576C103.196 172.631 103.368 172.731 103.512 172.875C103.687 172.978 103.826 173.117 103.929 173.292C104.135 173.517 104.274 173.78 104.346 174.083L104.429 174.701L104.346 175.32L104.111 175.875C104.047 175.959 103.982 176.043 103.916 176.127C103.813 176.302 103.673 176.442 103.498 176.546C103.384 176.659 103.254 176.744 103.108 176.802C102.59 177.174 101.901 177.295 101.287 177.126C100.923 177.024 100.607 176.839 100.339 176.573C100.072 176.304 99.8875 175.988 99.7855 175.624L99.7435 175.333C99.6895 174.943 99.6805 174.727 99.7915 174.231C99.8395 174.013 99.9805 173.705 100.054 173.576C100.369 173.023 100.882 172.644 101.486 172.459ZM128.324 155.449C129.211 155.443 130.099 155.444 130.986 155.454L131.652 155.463C132.766 155.481 133.721 155.366 134.597 156.139C135.233 156.701 134.952 157.642 134.349 158.065C133.434 158.706 132.287 158.384 131.236 158.313C130.127 158.239 129.018 158.177 127.908 158.127C125.758 158.031 123.608 157.969 121.457 157.96C119.31 157.951 117.16 157.971 115.014 158.006C112.83 158.041 110.556 158.245 108.384 158.019C108.086 157.988 108.018 157.595 108.313 157.493C110.359 156.785 112.662 156.555 114.806 156.285C117.019 156.005 119.231 155.807 121.457 155.679C123.743 155.548 126.033 155.465 128.324 155.449ZM101.482 148.492L101.555 148.494C101.946 148.495 102.311 148.587 102.652 148.77L102.725 148.81L103.194 149.173C103.481 149.462 103.68 149.803 103.79 150.196L103.873 150.812C103.885 151.131 103.818 151.429 103.673 151.705C103.58 151.993 103.42 152.241 103.194 152.451C102.984 152.677 102.735 152.837 102.448 152.931C102.193 153.064 101.92 153.132 101.629 153.132L101.555 153.13C101.137 153.129 100.747 153.023 100.386 152.814L99.9165 152.451C99.6295 152.162 99.4305 151.821 99.3205 151.428L99.2375 150.812C99.2255 150.493 99.2915 150.195 99.4375 149.919C99.5305 149.631 99.6905 149.383 99.9165 149.173C100.127 148.947 100.375 148.787 100.663 148.693C100.918 148.559 101.191 148.492 101.482 148.492ZM108.352 94.0339C108.851 93.3099 109.756 93.9539 109.627 94.5349C109.661 96.1689 109.744 97.7539 110.116 99.3539C110.286 100.087 110.509 100.82 110.853 101.491L110.997 101.774C111.442 102.653 111.787 103.483 111.188 104.447C110.906 104.902 110.395 105.244 109.842 105.22C107.388 105.114 107.051 101.697 106.902 99.7889C106.748 97.8249 107.226 95.6659 108.352 94.0339Z" fill="black"/>
<path fill-rule="evenodd" clip-rule="evenodd" d="M133.712 50.3457C132.912 37.1993 128.647 22.2947 116.097 15.84C88.4295 4.73191 52.0524 32.7054 50.1265 61.2829C49.455 71.0649 54.8842 81.7539 64.8055 84.4729C67.0115 87.3969 70.3475 89.1819 73.6395 90.7319C112.857 111.087 138.19 94.5409 133.712 50.3457Z" fill="white"/>
<path fill-rule="evenodd" clip-rule="evenodd" d="M142.647 42.168C141.261 38.3172 139.797 34.496 138.257 30.7043C136.757 27.0142 135.402 23.2442 133.539 19.7289C122.414 -1.26658 102.183 -1.26658 91.7245 1.47672C86.3015 -0.860778 76.1435 -0.201479 70.4965 1.90782C61.3543 5.32262 50.2102 18.7556 46.3999 24.791C37.9875 38.1164 32.7375 55.8519 38.3255 71.2509C39.0559 73.2629 39.9873 75.1269 41.0361 76.9229C40.3754 77.8189 39.6151 78.6669 38.7728 79.5009C36.2697 81.9779 33.7666 84.3739 31.6042 87.1679C29.4554 89.9449 27.674 92.8979 26.3479 96.1539C23.8473 102.294 23.7269 109.247 27.0328 115.106C29.909 120.203 35.0042 124 40.7445 124.362C41.0392 124.403 41.3344 124.44 41.6308 124.47C42.3913 125.723 43.3188 126.877 44.3773 127.883C47.6202 130.969 55.3505 132.552 59.7597 132.653C59.9857 132.835 60.2139 133.017 60.4421 133.197C63.1399 135.321 65.9705 137.464 69.0685 138.975C71.1655 140 73.9165 140.856 76.1055 140.116C77.0985 140.78 78.7275 140.64 79.7115 140.097C81.3305 139.205 82.6465 137.599 83.4465 135.955C85.3885 131.962 84.9215 127.594 84.4235 123.329C83.8735 118.618 83.3455 113.905 82.8085 109.194C82.3885 105.51 81.9495 101.765 80.8295 98.2159C80.2505 96.3769 79.4925 94.6099 78.5115 92.9489C78.5375 92.8099 78.5325 92.6699 78.4925 92.5389C78.1715 91.4949 77.5085 90.9479 76.7225 90.2379C76.6205 90.1469 76.5195 90.0539 76.4205 89.9589C76.0275 89.5109 75.6065 89.0939 75.1565 88.7409C74.9835 88.5659 74.8125 88.3879 74.6415 88.2109C73.2195 86.7209 71.8755 85.1549 70.6825 83.4759C69.5245 81.8489 68.4785 80.1499 67.4835 78.4189C66.4715 76.6579 65.8015 74.7159 64.7925 72.9679C64.7055 72.8179 64.4855 72.7889 64.3635 72.9129C64.0505 73.2369 63.8498 73.5959 63.8875 73.9739L63.7315 73.9969C63.6723 73.4269 63.1463 72.9619 62.4322 73.0869C61.3632 73.2719 60.4843 73.3419 59.559 72.9869C59.7216 71.9069 59.8716 70.8249 60.0195 69.7409C60.2899 67.7459 60.5413 65.7439 60.7568 63.7429C61.2787 63.8669 61.7963 64.0469 62.3033 64.2749C63.0259 64.5989 63.7082 65.0339 64.2915 65.5689C64.8655 66.0969 65.2635 66.8089 65.9645 67.1769C66.7715 67.5979 67.7455 66.9019 67.5085 65.9889C67.0295 64.1439 64.3145 63.0879 62.635 62.7389C62.0582 62.6179 61.4688 62.5679 60.8794 62.5799C61.0125 61.2949 61.1308 60.0099 61.228 58.7229C61.2744 58.1139 61.3167 57.5059 61.3568 56.8949C62.6625 56.4999 64.0615 56.3809 65.4195 56.5669C65.8675 56.9249 66.3155 57.2779 66.7485 57.6349C68.1235 58.7719 69.4925 59.9149 70.8445 61.0799C70.9675 61.1829 71.0875 61.2869 71.2105 61.3919C72.0135 62.0839 73.0145 61.3989 72.8795 60.4199C71.7765 52.4015 76.6865 46.023 82.4355 41.0816C88.7985 35.6098 100.368 34.9726 107.935 25.4945C111.421 26.2042 119.202 28.3118 122.414 33.4307C126.909 40.604 126.322 47.0311 126.664 55.1681C127.007 63.3119 127.877 71.8059 126.028 79.8349C124.324 87.2389 119.707 93.5639 112.545 96.4719C112.368 96.5439 112.188 96.6139 112.009 96.6819C108.305 98.0789 104.264 98.4739 100.368 97.7379C96.0555 96.9229 92.4555 94.9489 88.8685 92.5199C88.6615 92.3829 88.3585 92.6659 88.5155 92.8729C93.2435 99.1419 102.531 101.236 109.898 99.5809C110.243 99.5029 110.585 99.4189 110.925 99.3259C109.277 104.066 109.609 109.27 111.755 113.886C113.046 116.663 115.015 119.066 117.413 120.962C120.056 123.05 123.335 124.736 125.169 127.668C126.848 130.354 126.35 133.372 123.474 134.923C122.75 135.316 122.471 136.587 123.189 137.145C123.464 137.356 123.738 137.572 124.019 137.783C125.629 138.998 130.051 141.281 130.767 141.365C137.126 142.12 141.402 137.449 144.143 131.939C147.36 125.472 146.524 117.591 142.978 111.432C140.135 106.49 134.534 101.621 136.761 95.3669C137.555 93.1329 139.18 91.2289 140.758 89.5079C142.558 87.5489 144.493 85.7149 146.219 83.6859C147.935 81.6719 149.456 79.4799 150.305 76.9519C151.545 73.2579 150.928 69.2629 149.997 65.5749C148 57.6579 145.408 49.8463 142.647 42.168Z" fill="black"/>
<path fill-rule="evenodd" clip-rule="evenodd" d="M107.025 83.5009C105.605 82.9219 104.338 81.9549 103.411 80.7199C103.089 80.2899 103.006 79.8369 103.073 79.4219C103.149 78.9559 103.425 78.5329 103.801 78.2499C104.178 77.9659 104.651 77.8249 105.107 77.8969C105.504 77.9589 105.898 78.1759 106.211 78.6259L106.275 78.7159C106.826 79.4619 107.544 80.0729 108.362 80.4679C109.15 80.8479 110.032 81.0249 110.944 80.9219C112.682 80.7259 113.878 79.7859 115.151 78.5089C115.309 78.3479 115.467 78.1819 115.625 78.0129C115.725 77.8599 115.865 77.7609 116.019 77.7099C116.19 77.6519 116.384 77.6559 116.562 77.7179C116.733 77.7769 116.886 77.8909 116.989 78.0419C117.086 78.1849 117.143 78.3619 117.125 78.5659C117.008 79.8879 116.316 81.0689 115.334 81.9959C114.243 83.0259 112.798 83.7379 111.437 83.9879C109.938 84.2629 108.409 84.0659 107.025 83.5009ZM112.144 63.0929C113.739 64.0629 116.17 66.3249 114.454 68.7299C112.433 70.8509 109.525 68.4199 108.092 67.3199C106.763 66.4679 105.269 68.6599 106.502 69.6549C116.859 77.3259 121.064 63.3469 112.952 61.9529C112.058 61.7989 111.726 62.7929 112.144 63.0929ZM93.5845 54.1698C93.7605 51.981 97.0925 51.4839 97.4245 53.6499C97.7205 55.5899 97.3715 57.3719 96.4975 59.1189C95.6635 60.7879 93.5655 60.0099 93.4065 58.4899C93.1935 56.4529 93.4745 55.5309 93.5845 54.1698ZM118.95 53.2007C119.415 52.5921 120.085 52.1765 120.888 52.4114C123.399 53.1454 122.66 56.7119 121.778 58.4469C121.299 59.3899 119.749 59.6289 119.049 58.7989C117.908 57.4459 117.362 54.7425 118.812 53.4094C118.852 53.3405 118.897 53.2709 118.95 53.2007ZM96.4625 44.5923L96.8595 44.5228C98.0865 44.3105 99.6115 44.1065 100.48 45.0934C100.941 45.6167 101.099 46.5893 100.48 47.0902C99.3915 47.9715 98.1875 47.63 96.8835 47.7046C95.8085 47.7663 94.7755 47.9443 93.7405 48.2404C91.4685 48.8899 89.6175 50.0755 87.6775 51.3775C87.4235 51.5482 87.1635 51.2225 87.2845 50.9843C88.4045 48.7899 90.5745 46.9873 92.7485 45.8885C93.9095 45.302 95.1785 44.8154 96.4625 44.5923ZM116.661 43.6092L116.965 43.6714C120.269 44.3622 124.561 45.7422 126.125 48.9884C126.185 49.4474 126.122 49.5458 126.071 49.6101L126.053 49.6315C126.01 49.6864 125.977 49.762 125.778 49.8245C125.723 49.8113 125.668 49.7974 125.612 49.7826C124.894 49.5946 124.327 49.3356 123.778 49.0669L123.181 48.7734C122.49 48.4345 121.793 48.1079 121.054 47.8668C119.478 47.3523 117.857 46.99 116.211 46.7965C115.854 46.7546 115.51 46.6341 115.239 46.4275C114.982 46.2315 114.784 45.9601 114.694 45.5993C114.578 45.1325 114.612 44.779 114.862 44.3578C115.05 44.0415 115.32 43.8222 115.629 43.6963C115.944 43.568 116.304 43.5377 116.661 43.6092Z" fill="black"/>
</svg>
